
<svg width="24" height="24" viewBox="0 0 24 24" fill="none" xmlns="http://www.w3.org/2000/svg">
<path d="M13.3125 17.6875C13.3125 17.9471 13.2355 18.2008 13.0913 18.4167C12.9471 18.6325 12.7421 18.8008 12.5023 18.9001C12.2624 18.9994 11.9985 19.0254 11.7439 18.9748C11.4893 18.9241 11.2555 18.7991 11.0719 18.6156C10.8884 18.432 10.7634 18.1982 10.7127 17.9436C10.6621 17.689 10.6881 17.4251 10.7874 17.1852C10.8868 16.9454 11.055 16.7404 11.2708 16.5962C11.4867 16.452 11.7404 16.375 12 16.375C12.3481 16.375 12.6819 16.5133 12.9281 16.7594C13.1742 17.0056 13.3125 17.3394 13.3125 17.6875ZM12 5.875C9.58719 5.875 7.625 7.64141 7.625 9.8125V10.25C7.625 10.4821 7.71719 10.7046 7.88129 10.8687C8.04538 11.0328 8.26794 11.125 8.5 11.125C8.73207 11.125 8.95463 11.0328 9.11872 10.8687C9.28282 10.7046 9.375 10.4821 9.375 10.25V9.8125C9.375 8.60938 10.553 7.625 12 7.625C13.447 7.625 14.625 8.60938 14.625 9.8125C14.625 11.0156 13.447 12 12 12C11.7679 12 11.5454 12.0922 11.3813 12.2563C11.2172 12.4204 11.125 12.6429 11.125 12.875V13.75C11.125 13.9821 11.2172 14.2046 11.3813 14.3687C11.5454 14.5328 11.7679 14.625 12 14.625C12.2321 14.625 12.4546 14.5328 12.6187 14.3687C12.7828 14.2046 12.875 13.9821 12.875 13.75V13.6712C14.87 13.3048 16.375 11.7134 16.375 9.8125C16.375 7.64141 14.4128 5.875 12 5.875ZM23.375 12C23.375 14.2498 22.7079 16.449 21.458 18.3196C20.2081 20.1902 18.4315 21.6482 16.353 22.5091C14.2745 23.3701 11.9874 23.5953 9.78085 23.1564C7.57432 22.7175 5.54749 21.6342 3.95667 20.0433C2.36584 18.4525 1.28248 16.4257 0.843573 14.2192C0.404666 12.0126 0.629929 9.72548 1.49088 7.64698C2.35182 5.56847 3.80978 3.79193 5.68039 2.54203C7.551 1.29213 9.75024 0.625 12 0.625C15.0159 0.628185 17.9073 1.82764 20.0398 3.96018C22.1724 6.09271 23.3718 8.98414 23.375 12ZM21.625 12C21.625 10.0964 21.0605 8.23546 20.0029 6.65264C18.9453 5.06981 17.4421 3.83615 15.6833 3.10766C13.9246 2.37917 11.9893 2.18856 10.1223 2.55994C8.25519 2.93132 6.54018 3.84802 5.1941 5.1941C3.84802 6.54018 2.93133 8.25519 2.55995 10.1223C2.18856 11.9893 2.37917 13.9246 3.10766 15.6833C3.83616 17.4421 5.06982 18.9453 6.65264 20.0029C8.23546 21.0605 10.0964 21.625 12 21.625C14.5518 21.6221 16.9983 20.6071 18.8027 18.8027C20.6071 16.9983 21.6221 14.5518 21.625 12Z" fill="black"/>
</svg>
