
<svg width="23" height="23" viewBox="0 0 23 23" fill="none" xmlns="http://www.w3.org/2000/svg">
<path d="M15.375 10.25C15.375 10.4821 15.2828 10.7046 15.1187 10.8687C14.9546 11.0328 14.7321 11.125 14.5 11.125H7.5C7.26794 11.125 7.04538 11.0328 6.88128 10.8687C6.71719 10.7046 6.625 10.4821 6.625 10.25C6.625 10.0179 6.71719 9.79538 6.88128 9.63128C7.04538 9.46719 7.26794 9.375 7.5 9.375H14.5C14.7321 9.375 14.9546 9.46719 15.1187 9.63128C15.2828 9.79538 15.375 10.0179 15.375 10.25ZM14.5 12.875H7.5C7.26794 12.875 7.04538 12.9672 6.88128 13.1313C6.71719 13.2954 6.625 13.5179 6.625 13.75C6.625 13.9821 6.71719 14.2046 6.88128 14.3687C7.04538 14.5328 7.26794 14.625 7.5 14.625H14.5C14.7321 14.625 14.9546 14.5328 15.1187 14.3687C15.2828 14.2046 15.375 13.9821 15.375 13.75C15.375 13.5179 15.2828 13.2954 15.1187 13.1313C14.9546 12.9672 14.7321 12.875 14.5 12.875ZM22.375 11.5625C22.3718 14.4623 21.2185 17.2425 19.168 19.293C17.1175 21.3435 14.3373 22.4968 11.4375 22.5H2.21391C1.75953 22.4994 1.32393 22.3187 1.00263 21.9974C0.681336 21.6761 0.500579 21.2405 0.5 20.7861V11.5625C0.5 8.66169 1.65234 5.8797 3.70352 3.82852C5.7547 1.77734 8.53669 0.625 11.4375 0.625C14.3383 0.625 17.1203 1.77734 19.1715 3.82852C21.2227 5.8797 22.375 8.66169 22.375 11.5625ZM20.625 11.5625C20.625 9.12582 19.657 6.78895 17.934 5.06596C16.2111 3.34297 13.8742 2.375 11.4375 2.375C9.00082 2.375 6.66395 3.34297 4.94096 5.06596C3.21797 6.78895 2.25 9.12582 2.25 11.5625V20.75H11.4375C13.8734 20.7474 16.2087 19.7786 17.9312 18.0562C19.6536 16.3337 20.6224 13.9984 20.625 11.5625Z" fill="black"/>
</svg>
