
<svg width="82" height="69" viewBox="0 0 82 69" fill="none" xmlns="http://www.w3.org/2000/svg">
<path d="M39.7501 15.0001H42.2501V37.5001H39.7501V15.0001ZM35.1626 22.7751C34.244 21.9543 33.509 20.9488 33.0058 19.8244C32.5026 18.7 32.2424 17.482 32.2424 16.2501C32.2424 15.0182 32.5026 13.8002 33.0058 12.6758C33.509 11.5514 34.244 10.5459 35.1626 9.7251L36.8376 11.5876C36.1808 12.1739 35.6554 12.8923 35.2956 13.6958C34.9358 14.4993 34.7498 15.3697 34.7498 16.2501C34.7498 17.1305 34.9358 18.0009 35.2956 18.8044C35.6554 19.6079 36.1808 20.3263 36.8376 20.9126L35.1626 22.7751ZM46.8376 22.7751L45.1626 20.9126C45.8194 20.3263 46.3449 19.6079 46.7047 18.8044C47.0645 18.0009 47.2504 17.1305 47.2504 16.2501C47.2504 15.3697 47.0645 14.4993 46.7047 13.6958C46.3449 12.8923 45.8194 12.1739 45.1626 11.5876L46.8376 9.7251C47.7562 10.5459 48.4912 11.5514 48.9944 12.6758C49.4977 13.8002 49.7578 15.0182 49.7578 16.2501C49.7578 17.482 49.4977 18.7 48.9944 19.8244C48.4912 20.9488 47.7562 21.9543 46.8376 22.7751Z" fill="#858585"/>
<path d="M31.5 27.25C29.7923 25.9692 28.4063 24.3085 27.4516 22.3992C26.497 20.4899 26 18.3846 26 16.25C26 14.1154 26.497 12.0101 27.4516 10.1008C28.4063 8.19155 29.7923 6.53077 31.5 5.25L33 7.25C31.6028 8.29791 30.4688 9.65672 29.6877 11.2188C28.9066 12.781 28.5 14.5035 28.5 16.25C28.5 17.9965 28.9066 19.719 29.6877 21.2812C30.4688 22.8433 31.6028 24.2021 33 25.25L31.5 27.25ZM50.5 27.25L49 25.25C50.3972 24.2021 51.5312 22.8433 52.3123 21.2812C53.0934 19.719 53.5 17.9965 53.5 16.25C53.5 14.5035 53.0934 12.781 52.3123 11.2188C51.5312 9.65672 50.3972 8.29791 49 7.25L50.5 5.25C52.2077 6.53077 53.5937 8.19155 54.5484 10.1008C55.503 12.0101 56 14.1154 56 16.25C56 18.3846 55.503 20.4899 54.5484 22.3992C53.5937 24.3085 52.2077 25.9692 50.5 27.25Z" fill="#858585"/>
<path d="M9.44 61.536C9.536 61.536 9.61867 61.5733 9.688 61.648L10.36 62.384C9.89067 62.9387 9.31733 63.368 8.64 63.672C7.968 63.976 7.15733 64.128 6.208 64.128C5.376 64.128 4.62133 63.984 3.944 63.696C3.272 63.408 2.696 63.0053 2.216 62.488C1.74133 61.9707 1.37333 61.352 1.112 60.632C0.850667 59.912 0.72 59.12 0.72 58.256C0.72 57.392 0.856 56.6 1.128 55.88C1.40533 55.16 1.792 54.5413 2.288 54.024C2.784 53.5067 3.376 53.104 4.064 52.816C4.75733 52.528 5.52267 52.384 6.36 52.384C7.176 52.384 7.90133 52.5173 8.536 52.784C9.17067 53.0507 9.72267 53.4053 10.192 53.848L9.632 54.64C9.59467 54.6987 9.54667 54.7467 9.488 54.784C9.43467 54.8213 9.36267 54.84 9.272 54.84C9.17067 54.84 9.05067 54.7893 8.912 54.688C8.77867 54.5867 8.6 54.4747 8.376 54.352C8.15733 54.224 7.88533 54.1093 7.56 54.008C7.23467 53.9067 6.82933 53.856 6.344 53.856C5.77333 53.856 5.25067 53.9573 4.776 54.16C4.30133 54.3573 3.89067 54.6453 3.544 55.024C3.20267 55.3973 2.936 55.8587 2.744 56.408C2.55733 56.952 2.464 57.568 2.464 58.256C2.464 58.9547 2.56267 59.576 2.76 60.12C2.95733 60.664 3.22933 61.1253 3.576 61.504C3.92267 61.8827 4.33067 62.1707 4.8 62.368C5.26933 62.5653 5.776 62.664 6.32 62.664C6.65067 62.664 6.94667 62.6453 7.208 62.608C7.47467 62.5653 7.71733 62.504 7.936 62.424C8.16 62.344 8.37067 62.2427 8.568 62.12C8.76533 61.992 8.96 61.84 9.152 61.664C9.19467 61.6267 9.24 61.5973 9.288 61.576C9.336 61.5493 9.38667 61.536 9.44 61.536ZM15.06 55.744C15.6573 55.744 16.196 55.8427 16.676 56.04C17.1613 56.232 17.572 56.512 17.908 56.88C18.2493 57.2427 18.5107 57.6827 18.692 58.2C18.8733 58.712 18.964 59.288 18.964 59.928C18.964 60.568 18.8733 61.1467 18.692 61.664C18.5107 62.1813 18.2493 62.6213 17.908 62.984C17.572 63.3467 17.1613 63.6267 16.676 63.824C16.196 64.016 15.6573 64.112 15.06 64.112C14.4573 64.112 13.9133 64.016 13.428 63.824C12.948 63.6267 12.5373 63.3467 12.196 62.984C11.8547 62.6213 11.5907 62.1813 11.404 61.664C11.2227 61.1467 11.132 60.568 11.132 59.928C11.132 59.288 11.2227 58.712 11.404 58.2C11.5907 57.6827 11.8547 57.2427 12.196 56.88C12.5373 56.512 12.948 56.232 13.428 56.04C13.9133 55.8427 14.4573 55.744 15.06 55.744ZM15.06 62.896C15.828 62.896 16.4013 62.6373 16.78 62.12C17.1587 61.6027 17.348 60.8747 17.348 59.936C17.348 58.9973 17.1587 58.2693 16.78 57.752C16.4013 57.2293 15.828 56.968 15.06 56.968C14.2813 56.968 13.7 57.2293 13.316 57.752C12.9373 58.2693 12.748 58.9973 12.748 59.936C12.748 60.8747 12.9373 61.6027 13.316 62.12C13.7 62.6373 14.2813 62.896 15.06 62.896ZM22.1694 57C22.3454 56.8133 22.5294 56.6427 22.7214 56.488C22.9134 56.3333 23.116 56.2027 23.3294 56.096C23.548 55.984 23.78 55.8987 24.0254 55.84C24.276 55.776 24.5427 55.744 24.8254 55.744C25.2734 55.744 25.6654 55.8187 26.0014 55.968C26.3427 56.1173 26.628 56.328 26.8574 56.6C27.0867 56.8667 27.26 57.1893 27.3774 57.568C27.4947 57.9467 27.5534 58.3653 27.5534 58.824V64H25.9854V58.824C25.9854 58.2427 25.852 57.792 25.5854 57.472C25.3187 57.1467 24.9107 56.984 24.3614 56.984C23.9614 56.984 23.5854 57.08 23.2334 57.272C22.8867 57.4587 22.564 57.7147 22.2654 58.04V64H20.7054V55.872H21.6414C21.86 55.872 21.996 55.976 22.0494 56.184L22.1694 57ZM31.1225 57C31.2985 56.8133 31.4825 56.6427 31.6745 56.488C31.8665 56.3333 32.0692 56.2027 32.2825 56.096C32.5012 55.984 32.7332 55.8987 32.9785 55.84C33.2292 55.776 33.4958 55.744 33.7785 55.744C34.2265 55.744 34.6185 55.8187 34.9545 55.968C35.2958 56.1173 35.5812 56.328 35.8105 56.6C36.0398 56.8667 36.2132 57.1893 36.3305 57.568C36.4478 57.9467 36.5065 58.3653 36.5065 58.824V64H34.9385V58.824C34.9385 58.2427 34.8052 57.792 34.5385 57.472C34.2718 57.1467 33.8638 56.984 33.3145 56.984C32.9145 56.984 32.5385 57.08 32.1865 57.272C31.8398 57.4587 31.5172 57.7147 31.2185 58.04V64H29.6585V55.872H30.5945C30.8132 55.872 30.9492 55.976 31.0025 56.184L31.1225 57ZM43.9956 59.032C43.9956 58.7227 43.9503 58.4373 43.8596 58.176C43.7743 57.9147 43.6463 57.688 43.4756 57.496C43.305 57.304 43.097 57.1547 42.8516 57.048C42.6063 56.9413 42.3236 56.888 42.0036 56.888C41.3476 56.888 40.8303 57.0773 40.4516 57.456C40.0783 57.8347 39.841 58.36 39.7396 59.032H43.9956ZM45.2836 62.84C45.0916 63.064 44.8703 63.2587 44.6196 63.424C44.369 63.584 44.1023 63.7147 43.8196 63.816C43.537 63.9173 43.2436 63.992 42.9396 64.04C42.641 64.088 42.345 64.112 42.0516 64.112C41.4916 64.112 40.9716 64.0187 40.4916 63.832C40.017 63.64 39.6036 63.3627 39.2516 63C38.905 62.632 38.633 62.1787 38.4356 61.64C38.2436 61.096 38.1476 60.472 38.1476 59.768C38.1476 59.2027 38.2356 58.6773 38.4116 58.192C38.5876 57.7013 38.8383 57.2747 39.1636 56.912C39.4943 56.5493 39.897 56.264 40.3716 56.056C40.8463 55.848 41.3796 55.744 41.9716 55.744C42.4676 55.744 42.9236 55.8267 43.3396 55.992C43.761 56.152 44.1236 56.3867 44.4276 56.696C44.7316 57.0053 44.969 57.3867 45.1396 57.84C45.3156 58.2933 45.4036 58.8107 45.4036 59.392C45.4036 59.632 45.377 59.7947 45.3236 59.88C45.2703 59.96 45.1716 60 45.0276 60H39.6996C39.7156 60.4853 39.785 60.9093 39.9076 61.272C40.0303 61.6293 40.1983 61.928 40.4116 62.168C40.6303 62.408 40.889 62.5867 41.1876 62.704C41.4863 62.8213 41.8196 62.88 42.1876 62.88C42.5343 62.88 42.833 62.84 43.0836 62.76C43.3396 62.68 43.5583 62.5947 43.7396 62.504C43.9263 62.408 44.081 62.32 44.2036 62.24C44.3316 62.16 44.4436 62.12 44.5396 62.12C44.6676 62.12 44.7663 62.168 44.8356 62.264L45.2836 62.84ZM52.7764 57.392C52.7284 57.4507 52.6804 57.4987 52.6324 57.536C52.5897 57.568 52.5257 57.584 52.4404 57.584C52.355 57.584 52.2644 57.552 52.1684 57.488C52.0777 57.4187 51.9604 57.3467 51.8164 57.272C51.6777 57.192 51.507 57.12 51.3044 57.056C51.107 56.9867 50.8617 56.952 50.5684 56.952C50.1844 56.952 49.8457 57.0213 49.5524 57.16C49.259 57.2987 49.0137 57.496 48.8164 57.752C48.6244 58.008 48.4777 58.32 48.3764 58.688C48.275 59.056 48.2244 59.4693 48.2244 59.928C48.2244 60.4027 48.2777 60.8267 48.3844 61.2C48.491 61.568 48.643 61.88 48.8404 62.136C49.0377 62.3867 49.2777 62.5787 49.5604 62.712C49.843 62.84 50.1577 62.904 50.5044 62.904C50.8404 62.904 51.1177 62.864 51.3364 62.784C51.555 62.6987 51.7364 62.608 51.8804 62.512C52.0244 62.416 52.1444 62.328 52.2404 62.248C52.3364 62.1627 52.435 62.12 52.5364 62.12C52.6644 62.12 52.763 62.168 52.8324 62.264L53.2804 62.84C53.0937 63.0693 52.883 63.264 52.6484 63.424C52.419 63.584 52.1737 63.7147 51.9124 63.816C51.651 63.9173 51.3764 63.992 51.0884 64.04C50.8057 64.088 50.5177 64.112 50.2244 64.112C49.7177 64.112 49.243 64.0187 48.8004 63.832C48.363 63.6453 47.9817 63.3733 47.6564 63.016C47.3364 62.6587 47.083 62.2213 46.8964 61.704C46.7097 61.1813 46.6164 60.5893 46.6164 59.928C46.6164 59.3253 46.699 58.768 46.8644 58.256C47.035 57.744 47.283 57.304 47.6084 56.936C47.939 56.5627 48.3444 56.272 48.8244 56.064C49.3044 55.8507 49.8537 55.744 50.4724 55.744C51.0537 55.744 51.5657 55.8373 52.0084 56.024C52.451 56.2107 52.8457 56.4747 53.1924 56.816L52.7764 57.392ZM62.4406 64H60.8726V57.136H56.7926V61.896C56.7926 62.216 56.87 62.456 57.0246 62.616C57.1846 62.7707 57.3873 62.848 57.6326 62.848C57.7766 62.848 57.8993 62.8293 58.0006 62.792C58.1073 62.7547 58.198 62.7147 58.2726 62.672C58.3473 62.624 58.4113 62.5813 58.4646 62.544C58.518 62.5067 58.566 62.488 58.6086 62.488C58.662 62.488 58.702 62.5013 58.7286 62.528C58.7606 62.5493 58.7926 62.5867 58.8246 62.64L59.2886 63.392C59.0326 63.6267 58.7286 63.808 58.3766 63.936C58.0246 64.064 57.6593 64.128 57.2806 64.128C56.6246 64.128 56.118 63.944 55.7606 63.576C55.4086 63.208 55.2326 62.6827 55.2326 62V57.136H54.2886C54.198 57.136 54.1206 57.1093 54.0566 57.056C53.998 56.9973 53.9686 56.912 53.9686 56.8V56.168L55.2966 55.984L55.6406 53.56C55.662 53.4693 55.702 53.4 55.7606 53.352C55.8246 53.2987 55.9046 53.272 56.0006 53.272H56.7926V56H62.4406V64ZM62.7926 53.312C62.7926 53.456 62.7633 53.5947 62.7046 53.728C62.646 53.856 62.566 53.9707 62.4646 54.072C62.3686 54.168 62.254 54.2453 62.1206 54.304C61.9873 54.3573 61.8486 54.384 61.7046 54.384C61.5606 54.384 61.4246 54.3573 61.2966 54.304C61.1686 54.2453 61.054 54.168 60.9526 54.072C60.8566 53.9707 60.7793 53.856 60.7206 53.728C60.6673 53.5947 60.6406 53.456 60.6406 53.312C60.6406 53.1627 60.6673 53.0213 60.7206 52.888C60.7793 52.7547 60.8566 52.64 60.9526 52.544C61.054 52.4427 61.1686 52.3653 61.2966 52.312C61.4246 52.2533 61.5606 52.224 61.7046 52.224C61.8486 52.224 61.9873 52.2533 62.1206 52.312C62.254 52.3653 62.3686 52.4427 62.4646 52.544C62.566 52.64 62.646 52.7547 62.7046 52.888C62.7633 53.0213 62.7926 53.1627 62.7926 53.312ZM68.1694 55.744C68.7667 55.744 69.3054 55.8427 69.7854 56.04C70.2707 56.232 70.6814 56.512 71.0174 56.88C71.3587 57.2427 71.62 57.6827 71.8014 58.2C71.9827 58.712 72.0734 59.288 72.0734 59.928C72.0734 60.568 71.9827 61.1467 71.8014 61.664C71.62 62.1813 71.3587 62.6213 71.0174 62.984C70.6814 63.3467 70.2707 63.6267 69.7854 63.824C69.3054 64.016 68.7667 64.112 68.1694 64.112C67.5667 64.112 67.0227 64.016 66.5374 63.824C66.0574 63.6267 65.6467 63.3467 65.3054 62.984C64.964 62.6213 64.7 62.1813 64.5134 61.664C64.332 61.1467 64.2414 60.568 64.2414 59.928C64.2414 59.288 64.332 58.712 64.5134 58.2C64.7 57.6827 64.964 57.2427 65.3054 56.88C65.6467 56.512 66.0574 56.232 66.5374 56.04C67.0227 55.8427 67.5667 55.744 68.1694 55.744ZM68.1694 62.896C68.9374 62.896 69.5107 62.6373 69.8894 62.12C70.268 61.6027 70.4574 60.8747 70.4574 59.936C70.4574 58.9973 70.268 58.2693 69.8894 57.752C69.5107 57.2293 68.9374 56.968 68.1694 56.968C67.3907 56.968 66.8094 57.2293 66.4254 57.752C66.0467 58.2693 65.8574 58.9973 65.8574 59.936C65.8574 60.8747 66.0467 61.6027 66.4254 62.12C66.8094 62.6373 67.3907 62.896 68.1694 62.896ZM75.2788 57C75.4548 56.8133 75.6388 56.6427 75.8308 56.488C76.0228 56.3333 76.2254 56.2027 76.4388 56.096C76.6574 55.984 76.8894 55.8987 77.1348 55.84C77.3854 55.776 77.6521 55.744 77.9348 55.744C78.3828 55.744 78.7748 55.8187 79.1108 55.968C79.4521 56.1173 79.7374 56.328 79.9668 56.6C80.1961 56.8667 80.3694 57.1893 80.4868 57.568C80.6041 57.9467 80.6628 58.3653 80.6628 58.824V64H79.0948V58.824C79.0948 58.2427 78.9614 57.792 78.6948 57.472C78.4281 57.1467 78.0201 56.984 77.4708 56.984C77.0708 56.984 76.6948 57.08 76.3428 57.272C75.9961 57.4587 75.6734 57.7147 75.3748 58.04V64H73.8148V55.872H74.7508C74.9694 55.872 75.1054 55.976 75.1588 56.184L75.2788 57Z" fill="#858585"/>
</svg>
