<svg width="28" height="28" viewBox="0 0 28 28" fill="none" xmlns="http://www.w3.org/2000/svg">
<path d="M4.6047 5.25H23.3953C23.5651 5.25005 23.7311 5.29947 23.8732 5.39222C24.0154 5.48498 24.1275 5.61707 24.1959 5.7724C24.2643 5.92774 24.286 6.09961 24.2584 6.26708C24.2309 6.43456 24.1552 6.5904 24.0406 6.71563L16.8547 14.6234C16.7051 14.7835 16.6229 14.995 16.625 15.2141V21.4047C16.6264 21.5501 16.591 21.6935 16.5221 21.8216C16.4533 21.9497 16.3533 22.0584 16.2313 22.1375L12.7313 24.4672C12.6 24.5537 12.4478 24.6032 12.2908 24.6105C12.1337 24.6178 11.9776 24.5827 11.8389 24.5089C11.7001 24.435 11.5838 24.3251 11.5021 24.1907C11.4205 24.0564 11.3766 23.9025 11.375 23.7453V15.2141C11.3771 14.995 11.2949 14.7835 11.1453 14.6234L3.95939 6.71563C3.84483 6.5904 3.76915 6.43456 3.74159 6.26708C3.71403 6.09961 3.73577 5.92774 3.80417 5.7724C3.87256 5.61707 3.98466 5.48498 4.12679 5.39222C4.26893 5.29947 4.43498 5.25005 4.6047 5.25Z" stroke="#666666" stroke-width="2" stroke-linecap="round" stroke-linejoin="round"/>
</svg>