<svg width="40" height="69" viewBox="0 0 40 69" fill="none" xmlns="http://www.w3.org/2000/svg">
<path d="M34.9406 35.3781C34.8908 35.5346 34.8108 35.6797 34.7049 35.8052C34.5991 35.9307 34.4696 36.0342 34.3237 36.1096C34.1779 36.1851 34.0186 36.2311 33.855 36.245C33.6915 36.2588 33.5267 36.2404 33.3703 36.1906L20 31.9359L6.62964 36.1906C6.47318 36.2403 6.30845 36.2588 6.14486 36.2449C5.98127 36.231 5.82202 36.185 5.67621 36.1096C5.53039 36.0341 5.40086 35.9307 5.29502 35.8052C5.18917 35.6797 5.10908 35.5345 5.05932 35.3781C5.00957 35.2216 4.99111 35.0569 5.00501 34.8933C5.01892 34.7297 5.0649 34.5705 5.14035 34.4246C5.2158 34.2788 5.31923 34.1493 5.44474 34.0435C5.57024 33.9376 5.71537 33.8575 5.87182 33.8078L15.8718 30.625L5.87182 27.4406C5.71105 27.3946 5.56114 27.3167 5.43098 27.2117C5.30081 27.1067 5.19304 26.9767 5.11405 26.8293C5.03506 26.6819 4.98645 26.5201 4.9711 26.3536C4.95575 26.1871 4.97397 26.0191 5.02468 25.8598C5.0754 25.7004 5.15758 25.5529 5.26635 25.4258C5.37512 25.2988 5.50828 25.1949 5.65794 25.1202C5.80759 25.0456 5.9707 25.0018 6.13761 24.9913C6.30452 24.9808 6.47183 25.004 6.62964 25.0593L20 29.3125L33.3703 25.0593C33.5281 25.004 33.6954 24.9808 33.8623 24.9913C34.0292 25.0018 34.1923 25.0456 34.342 25.1202C34.4916 25.1949 34.6248 25.2988 34.7336 25.4258C34.8423 25.5529 34.9245 25.7004 34.9752 25.8598C35.0259 26.0191 35.0442 26.1871 35.0288 26.3536C35.0135 26.5201 34.9648 26.6819 34.8858 26.8293C34.8069 26.9767 34.6991 27.1067 34.5689 27.2117C34.4388 27.3167 34.2889 27.3946 34.1281 27.4406L24.1281 30.625L34.1281 33.8078C34.2845 33.8575 34.4297 33.9376 34.5552 34.0434C34.6807 34.1493 34.7842 34.2788 34.8596 34.4246C34.9351 34.5704 34.9811 34.7297 34.9949 34.8933C35.0088 35.0569 34.9904 35.2216 34.9406 35.3781ZM10.6249 16.875C10.6249 13.7343 12.1515 10.489 15.0374 7.49995C16.3324 6.15337 17.7778 4.96012 19.3453 3.9437C19.5422 3.82264 19.7688 3.75854 20 3.75854C20.2311 3.75854 20.4577 3.82264 20.6546 3.9437C21.0109 4.15464 29.375 9.38745 29.375 16.875C29.375 19.3614 28.3872 21.7459 26.6291 23.5041C24.8709 25.2622 22.4864 26.25 20 26.25C17.5135 26.25 15.129 25.2622 13.3708 23.5041C11.6127 21.7459 10.6249 19.3614 10.6249 16.875ZM20 23.75C20.663 23.75 21.2989 23.4866 21.7677 23.0177C22.2366 22.5489 22.5 21.913 22.5 21.25C22.5 19.1296 20.9375 17.4281 20 16.5953C19.0625 17.4281 17.5 19.1296 17.5 21.25C17.5 21.913 17.7633 22.5489 18.2322 23.0177C18.701 23.4866 19.3369 23.75 20 23.75ZM13.1249 16.875C13.1244 18.6341 13.8008 20.326 15.014 21.6C15.014 21.4843 15 21.3671 15 21.25C15 16.875 19.1312 14.0765 19.3062 13.9593C19.5116 13.8223 19.753 13.7491 20 13.7491C20.2469 13.7491 20.4883 13.8223 20.6937 13.9593C20.8687 14.0765 25 16.875 25 21.25C25 21.3671 25 21.4843 24.9859 21.6C26.1991 20.326 26.8755 18.6341 26.875 16.875C26.875 11.875 21.8343 7.81246 20 6.50933C18.1671 7.81246 13.1249 11.875 13.1249 16.875Z" fill="#858585"/>
<path d="M9.628 53.896V57.744H14.236V59.128H9.628V64H7.916V52.512H15.036V53.896H9.628ZM18.2436 55.872V64H16.6836V55.872H18.2436ZM18.5396 53.36C18.5396 53.504 18.5103 53.6427 18.4516 53.776C18.393 53.904 18.313 54.0187 18.2116 54.12C18.1156 54.216 18.001 54.2933 17.8676 54.352C17.7343 54.4053 17.5956 54.432 17.4516 54.432C17.3076 54.432 17.1716 54.4053 17.0436 54.352C16.9156 54.2933 16.801 54.216 16.6996 54.12C16.6036 54.0187 16.5263 53.904 16.4676 53.776C16.4143 53.6427 16.3876 53.504 16.3876 53.36C16.3876 53.2107 16.4143 53.072 16.4676 52.944C16.5263 52.8107 16.6036 52.696 16.6996 52.6C16.801 52.4987 16.9156 52.4213 17.0436 52.368C17.1716 52.3093 17.3076 52.28 17.4516 52.28C17.5956 52.28 17.7343 52.3093 17.8676 52.368C18.001 52.4213 18.1156 52.4987 18.2116 52.6C18.313 52.696 18.393 52.8107 18.4516 52.944C18.5103 53.072 18.5396 53.2107 18.5396 53.36ZM21.9743 57.432C22.2356 56.8987 22.5503 56.48 22.9183 56.176C23.2863 55.872 23.7289 55.72 24.2463 55.72C24.4223 55.72 24.5876 55.7413 24.7423 55.784C24.9023 55.8213 25.0409 55.88 25.1583 55.96L25.0543 57.136C25.0169 57.28 24.9289 57.352 24.7903 57.352C24.7156 57.352 24.6036 57.3387 24.4543 57.312C24.3049 57.28 24.1449 57.264 23.9743 57.264C23.7236 57.264 23.5023 57.3013 23.3103 57.376C23.1183 57.4453 22.9449 57.552 22.7903 57.696C22.6409 57.8347 22.5076 58.008 22.3903 58.216C22.2729 58.4187 22.1636 58.6507 22.0623 58.912V64H20.5023V55.872H21.3983C21.5689 55.872 21.6836 55.904 21.7423 55.968C21.8063 56.0267 21.8516 56.1333 21.8783 56.288L21.9743 57.432ZM31.4488 59.032C31.4488 58.7227 31.4034 58.4373 31.3128 58.176C31.2274 57.9147 31.0994 57.688 30.9288 57.496C30.7581 57.304 30.5501 57.1547 30.3048 57.048C30.0594 56.9413 29.7768 56.888 29.4568 56.888C28.8008 56.888 28.2834 57.0773 27.9048 57.456C27.5314 57.8347 27.2941 58.36 27.1928 59.032H31.4488ZM32.7368 62.84C32.5448 63.064 32.3234 63.2587 32.0728 63.424C31.8221 63.584 31.5554 63.7147 31.2728 63.816C30.9901 63.9173 30.6968 63.992 30.3928 64.04C30.0941 64.088 29.7981 64.112 29.5048 64.112C28.9448 64.112 28.4248 64.0187 27.9448 63.832C27.4701 63.64 27.0568 63.3627 26.7048 63C26.3581 62.632 26.0861 62.1787 25.8888 61.64C25.6968 61.096 25.6008 60.472 25.6008 59.768C25.6008 59.2027 25.6888 58.6773 25.8648 58.192C26.0408 57.7013 26.2914 57.2747 26.6168 56.912C26.9474 56.5493 27.3501 56.264 27.8248 56.056C28.2994 55.848 28.8328 55.744 29.4248 55.744C29.9208 55.744 30.3768 55.8267 30.7928 55.992C31.2141 56.152 31.5768 56.3867 31.8808 56.696C32.1848 57.0053 32.4221 57.3867 32.5928 57.84C32.7688 58.2933 32.8568 58.8107 32.8568 59.392C32.8568 59.632 32.8301 59.7947 32.7768 59.88C32.7234 59.96 32.6248 60 32.4808 60H27.1528C27.1688 60.4853 27.2381 60.9093 27.3608 61.272C27.4834 61.6293 27.6514 61.928 27.8648 62.168C28.0834 62.408 28.3421 62.5867 28.6408 62.704C28.9394 62.8213 29.2728 62.88 29.6408 62.88C29.9874 62.88 30.2861 62.84 30.5368 62.76C30.7928 62.68 31.0114 62.5947 31.1928 62.504C31.3794 62.408 31.5341 62.32 31.6568 62.24C31.7848 62.16 31.8968 62.12 31.9928 62.12C32.1208 62.12 32.2194 62.168 32.2888 62.264L32.7368 62.84Z" fill="#858585"/>
</svg>