<svg width="51" height="69" viewBox="0 0 51 69" fill="none" xmlns="http://www.w3.org/2000/svg">
<path d="M42.962 37.3157L40.2132 27.4032C40.1603 27.2212 40.0607 27.0563 39.9243 26.9247C39.7879 26.7931 39.6195 26.6995 39.4357 26.6532C38.9363 24.8676 37.4776 19.7538 34.6288 10.6176C32.2557 3.00945 26.0801 0.520698 21.0095 1.4282C15.992 2.32695 12.7482 6.35382 13.122 11.2201L13.4313 11.1976V12.8476C13.2065 12.6665 12.9249 12.5707 12.6363 12.5769C12.0232 12.5826 11.5307 13.0044 11.537 13.5176C11.5388 13.6369 11.6651 13.7919 11.8526 13.9588C9.54758 15.4919 7.92633 19.8688 8.00258 25.0194C8.05008 28.2994 9.61571 31.2388 11.132 33.3326C9.35071 34.1776 8.15821 35.7863 8.18446 37.6213C8.19633 38.4613 8.76946 38.7501 9.55133 38.7501C11.2657 38.7501 13.9845 37.3607 13.9845 37.3607C13.9845 37.3607 16.672 38.6607 18.3901 38.6607C19.2057 38.6607 19.8026 38.3676 19.7895 37.5038C19.7638 35.6682 18.5251 34.0844 16.7201 33.2757C18.1757 31.1532 19.6551 28.1819 19.6076 24.9019C19.5357 19.8507 17.852 15.5813 15.5713 14.0163C15.8145 13.8094 15.9845 13.6151 15.982 13.4732C15.9745 12.9582 15.4695 12.5463 14.8551 12.5532C14.5672 12.5529 14.2886 12.6547 14.0688 12.8407V11.1501L14.3945 11.1263C14.0151 6.1807 17.5607 3.30007 21.2432 2.6407C25.7532 1.8332 31.2613 4.09632 33.4063 10.9738C35.4426 17.5026 36.767 21.9707 37.537 24.6351C36.2988 23.1026 34.0907 22.5363 32.1888 23.3938C29.9763 24.3895 29.0195 26.9294 30.0513 29.0669C30.1663 29.3045 30.3026 29.5245 30.4545 29.7313L27.0632 33.0076H26.0401V34.5263H29.6907V33.0076H29.2413L31.5513 30.7763C32.1907 31.2001 32.9268 31.4551 33.6913 31.5176C34.4557 31.5801 35.2235 31.4481 35.9232 31.1338C36.8366 30.7269 37.5814 30.0171 38.032 29.1244L40.4807 37.9576C40.6395 38.5288 41.2463 38.867 41.837 38.7145L42.1788 38.6251C42.7701 38.472 43.1201 37.8857 42.962 37.3157ZM16.5276 31.1851C16.2932 31.3288 15.9995 31.4195 15.6682 31.4157C14.8757 31.4082 14.2626 30.9626 14.2288 30.3782C14.2132 30.0526 13.5526 30.0595 13.5457 30.3863C13.5345 30.947 12.932 31.4557 12.1445 31.4476C11.8319 31.4484 11.5245 31.3671 11.2532 31.212C10.7944 30.4463 10.4012 29.6432 10.0776 28.8113C10.5345 29.0292 11.0366 29.1353 11.5426 29.1207C12.5613 29.0976 13.4145 28.6763 13.857 28.067C14.3213 28.6738 15.1845 29.1032 16.1957 29.0788C16.6986 29.0706 17.1938 28.9533 17.647 28.7351C17.3448 29.5823 16.9703 30.402 16.5276 31.1851ZM17.9632 27.7038C17.6582 28.207 16.9907 28.5776 16.1882 28.5732C15.0907 28.5669 14.2201 27.9451 14.1838 27.1451C14.1707 26.8176 13.4945 26.8226 13.4932 27.1501C13.4845 27.9269 12.6326 28.6213 11.5351 28.6151C10.727 28.6101 10.0432 28.2694 9.72508 27.7713C9.50572 27.027 9.36803 26.2611 9.31446 25.4869C9.82571 25.9382 10.5513 26.2288 11.3713 26.2088C12.4526 26.1832 13.3595 25.6832 13.807 24.9669C14.277 25.6794 15.1963 26.187 16.2757 26.1613C17.0951 26.1432 17.812 25.8488 18.3095 25.3982C18.2793 26.1772 18.1632 26.9504 17.9632 27.7038ZM18.5101 37.4076C18.4701 37.4103 18.4301 37.4115 18.3901 37.4113C17.3613 37.4113 15.4876 36.6926 14.5501 36.2401L13.9688 35.9594L13.3945 36.2532C12.7607 36.5757 10.6957 37.5001 9.55133 37.5001C9.51758 37.5001 9.48696 37.4988 9.46071 37.4976C9.49008 36.2576 10.3345 35.0988 11.6882 34.4576L13.0457 33.8138L12.1726 32.6088C12.0103 32.3843 11.8528 32.1563 11.7001 31.9251C11.8463 31.9463 11.9976 31.9582 12.1538 31.9538C12.9045 31.9332 13.5395 31.642 13.9032 31.2076C14.282 31.6432 14.9257 31.9438 15.6751 31.9232C15.8295 31.9182 15.9782 31.9013 16.1213 31.8757C15.9663 32.1232 15.812 32.3594 15.6613 32.5801L14.8238 33.802L16.1895 34.4138C17.5626 35.0282 18.442 36.1676 18.5101 37.4076ZM17.7763 20.3838C17.0701 21.1901 16.077 21.8101 14.9201 22.0919C13.2551 22.497 11.4913 22.2357 10.082 21.3951C9.76508 21.2057 9.46883 21.6469 9.78383 21.8344C11.3007 22.7401 13.2982 23.0394 15.0851 22.5776C16.1926 22.2932 17.1688 21.7538 17.922 21.0382C18.1276 22.0501 18.262 23.1569 18.3095 24.3388C18.0832 25.0738 17.272 25.6588 16.267 25.6544C15.0895 25.6488 14.1451 24.9194 14.1101 23.9844C14.0995 23.6588 13.4745 23.6644 13.4713 23.9907C13.4651 24.9001 12.5432 25.7076 11.3638 25.7013C10.3545 25.6963 9.52321 25.1594 9.28008 24.4194C9.32446 20.5738 10.3745 17.0932 12.0145 15.4469C12.3476 15.1126 12.6838 14.8907 13.0201 14.7588C13.4388 15.0051 13.7838 15.1832 13.7838 15.1832C13.7838 15.1832 14.0745 15.0251 14.4432 14.8007C15.757 15.3938 17.0613 17.4338 17.7763 20.3838ZM34.9913 29.1976C34.7056 29.3251 34.3964 29.392 34.0835 29.394C33.7706 29.3961 33.4606 29.3332 33.1732 29.2094L34.9376 27.5051L33.8482 26.452L32.0626 28.1776C32.0601 28.1726 32.0563 28.1694 32.0545 28.1651C31.5388 27.0957 32.017 25.8251 33.1226 25.3269C34.2295 24.8288 35.5438 25.2913 36.0601 26.3601C36.5763 27.4294 36.097 28.6988 34.9913 29.1976Z" fill="#858585"/>
<path d="M12.1831 16.9149C11.4781 16.9211 10.9119 17.3449 10.9213 17.8624C10.9313 18.3811 11.5081 18.7949 12.2131 18.7899C12.9163 18.7836 13.4825 18.358 13.4738 17.8399C13.4638 17.3218 12.8881 16.908 12.1831 16.9149Z" fill="#858585"/>
<path d="M3.128 53.896V57.744H7.736V59.128H3.128V64H1.416V52.512H8.536V53.896H3.128ZM11.7436 55.872V64H10.1836V55.872H11.7436ZM12.0396 53.36C12.0396 53.504 12.0103 53.6427 11.9516 53.776C11.893 53.904 11.813 54.0187 11.7116 54.12C11.6156 54.216 11.501 54.2933 11.3676 54.352C11.2343 54.4053 11.0956 54.432 10.9516 54.432C10.8076 54.432 10.6716 54.4053 10.5436 54.352C10.4156 54.2933 10.301 54.216 10.1996 54.12C10.1036 54.0187 10.0263 53.904 9.96763 53.776C9.91429 53.6427 9.88763 53.504 9.88763 53.36C9.88763 53.2107 9.91429 53.072 9.96763 52.944C10.0263 52.8107 10.1036 52.696 10.1996 52.6C10.301 52.4987 10.4156 52.4213 10.5436 52.368C10.6716 52.3093 10.8076 52.28 10.9516 52.28C11.0956 52.28 11.2343 52.3093 11.3676 52.368C11.501 52.4213 11.6156 52.4987 11.7116 52.6C11.813 52.696 11.893 52.8107 11.9516 52.944C12.0103 53.072 12.0396 53.2107 12.0396 53.36ZM18.7943 57.272C18.7516 57.3413 18.7063 57.392 18.6583 57.424C18.6103 57.4507 18.5489 57.464 18.4743 57.464C18.3889 57.464 18.2929 57.4347 18.1863 57.376C18.0849 57.3173 17.9596 57.2533 17.8103 57.184C17.6663 57.1147 17.4956 57.0507 17.2983 56.992C17.1009 56.9333 16.8663 56.904 16.5943 56.904C16.3703 56.904 16.1649 56.9333 15.9783 56.992C15.7969 57.0453 15.6423 57.1227 15.5143 57.224C15.3863 57.32 15.2876 57.4373 15.2183 57.576C15.1489 57.7093 15.1143 57.8533 15.1143 58.008C15.1143 58.2107 15.1729 58.3787 15.2903 58.512C15.4129 58.6453 15.5703 58.76 15.7623 58.856C15.9596 58.952 16.1809 59.04 16.4263 59.12C16.6769 59.1947 16.9303 59.2747 17.1863 59.36C17.4476 59.4453 17.7009 59.544 17.9463 59.656C18.1969 59.7627 18.4183 59.8987 18.6103 60.064C18.8076 60.224 18.9649 60.4187 19.0823 60.648C19.2049 60.8773 19.2663 61.1573 19.2663 61.488C19.2663 61.8667 19.1969 62.2187 19.0583 62.544C18.9249 62.864 18.7249 63.1413 18.4583 63.376C18.1969 63.6107 17.8716 63.7947 17.4823 63.928C17.0929 64.0613 16.6476 64.128 16.1463 64.128C15.5863 64.128 15.0689 64.0347 14.5943 63.848C14.1196 63.6613 13.7223 63.424 13.4023 63.136L13.7703 62.536C13.8129 62.4613 13.8663 62.4053 13.9303 62.368C13.9943 62.3253 14.0796 62.304 14.1863 62.304C14.2876 62.304 14.3916 62.3413 14.4983 62.416C14.6049 62.4907 14.7329 62.5733 14.8823 62.664C15.0316 62.7493 15.2129 62.8293 15.4263 62.904C15.6396 62.9733 15.9063 63.008 16.2263 63.008C16.4929 63.008 16.7249 62.976 16.9223 62.912C17.1196 62.8427 17.2823 62.752 17.4103 62.64C17.5436 62.5227 17.6423 62.3893 17.7063 62.24C17.7703 62.0907 17.8023 61.9333 17.8023 61.768C17.8023 61.5547 17.7409 61.3787 17.6183 61.24C17.5009 61.096 17.3436 60.9733 17.1463 60.872C16.9543 60.7707 16.7329 60.6827 16.4823 60.608C16.2316 60.5333 15.9756 60.4533 15.7143 60.368C15.4529 60.2827 15.1969 60.184 14.9463 60.072C14.6956 59.96 14.4716 59.8187 14.2743 59.648C14.0823 59.4773 13.9249 59.2693 13.8023 59.024C13.6849 58.7787 13.6263 58.48 13.6263 58.128C13.6263 57.8133 13.6903 57.512 13.8183 57.224C13.9516 56.936 14.1409 56.6827 14.3863 56.464C14.6369 56.2453 14.9436 56.072 15.3063 55.944C15.6743 55.8107 16.0929 55.744 16.5623 55.744C17.1009 55.744 17.5863 55.8293 18.0183 56C18.4556 56.1707 18.8289 56.4053 19.1383 56.704L18.7943 57.272ZM22.5154 56.904C22.8567 56.5573 23.2327 56.2773 23.6434 56.064C24.0594 55.8507 24.5367 55.744 25.0754 55.744C25.5234 55.744 25.9154 55.8187 26.2514 55.968C26.5927 56.1173 26.878 56.328 27.1074 56.6C27.3367 56.8667 27.51 57.1893 27.6274 57.568C27.7447 57.9467 27.8034 58.3653 27.8034 58.824V64H26.2354V58.824C26.2354 58.2427 26.102 57.792 25.8354 57.472C25.5687 57.1467 25.1607 56.984 24.6114 56.984C24.2114 56.984 23.8354 57.08 23.4834 57.272C23.1367 57.4587 22.814 57.7147 22.5154 58.04V64H20.9554V52.192H22.5154V56.904ZM31.5405 55.872V64H29.9805V55.872H31.5405ZM31.8365 53.36C31.8365 53.504 31.8072 53.6427 31.7485 53.776C31.6898 53.904 31.6098 54.0187 31.5085 54.12C31.4125 54.216 31.2978 54.2933 31.1645 54.352C31.0312 54.4053 30.8925 54.432 30.7485 54.432C30.6045 54.432 30.4685 54.4053 30.3405 54.352C30.2125 54.2933 30.0978 54.216 29.9965 54.12C29.9005 54.0187 29.8232 53.904 29.7645 53.776C29.7112 53.6427 29.6845 53.504 29.6845 53.36C29.6845 53.2107 29.7112 53.072 29.7645 52.944C29.8232 52.8107 29.9005 52.696 29.9965 52.6C30.0978 52.4987 30.2125 52.4213 30.3405 52.368C30.4685 52.3093 30.6045 52.28 30.7485 52.28C30.8925 52.28 31.0312 52.3093 31.1645 52.368C31.2978 52.4213 31.4125 52.4987 31.5085 52.6C31.6098 52.696 31.6898 52.8107 31.7485 52.944C31.8072 53.072 31.8365 53.2107 31.8365 53.36ZM35.2631 57C35.4391 56.8133 35.6231 56.6427 35.8151 56.488C36.0071 56.3333 36.2098 56.2027 36.4231 56.096C36.6418 55.984 36.8738 55.8987 37.1191 55.84C37.3698 55.776 37.6365 55.744 37.9191 55.744C38.3671 55.744 38.7591 55.8187 39.0951 55.968C39.4365 56.1173 39.7218 56.328 39.9511 56.6C40.1805 56.8667 40.3538 57.1893 40.4711 57.568C40.5885 57.9467 40.6471 58.3653 40.6471 58.824V64H39.0791V58.824C39.0791 58.2427 38.9458 57.792 38.6791 57.472C38.4125 57.1467 38.0045 56.984 37.4551 56.984C37.0551 56.984 36.6791 57.08 36.3271 57.272C35.9805 57.4587 35.6578 57.7147 35.3591 58.04V64H33.7991V55.872H34.7351C34.9538 55.872 35.0898 55.976 35.1431 56.184L35.2631 57ZM45.6083 59.944C45.8856 59.944 46.1283 59.9067 46.3363 59.832C46.5496 59.7573 46.7256 59.6533 46.8643 59.52C47.0083 59.3813 47.1149 59.216 47.1843 59.024C47.2589 58.832 47.2963 58.6213 47.2963 58.392C47.2963 57.9227 47.1523 57.5493 46.8643 57.272C46.5816 56.9893 46.1629 56.848 45.6083 56.848C45.0589 56.848 44.6403 56.9893 44.3523 57.272C44.0696 57.5493 43.9283 57.9227 43.9283 58.392C43.9283 58.6213 43.9629 58.832 44.0323 59.024C44.1069 59.2107 44.2136 59.3733 44.3523 59.512C44.4963 59.6453 44.6723 59.752 44.8803 59.832C45.0936 59.9067 45.3363 59.944 45.6083 59.944ZM48.0963 64.424C48.0963 64.232 48.0429 64.08 47.9363 63.968C47.8296 63.8507 47.6829 63.76 47.4963 63.696C47.3149 63.6267 47.1016 63.5787 46.8563 63.552C46.6109 63.52 46.3523 63.496 46.0803 63.48C45.8136 63.464 45.5389 63.4507 45.2563 63.44C44.9736 63.424 44.7016 63.3973 44.4403 63.36C44.1629 63.4987 43.9336 63.6667 43.7523 63.864C43.5763 64.0613 43.4883 64.2933 43.4883 64.56C43.4883 64.7307 43.5309 64.8907 43.6163 65.04C43.7069 65.1893 43.8429 65.3173 44.0243 65.424C44.2109 65.536 44.4429 65.6213 44.7203 65.68C45.0029 65.744 45.3389 65.776 45.7283 65.776C46.1123 65.776 46.4509 65.7413 46.7443 65.672C47.0376 65.608 47.2829 65.5147 47.4803 65.392C47.6829 65.2747 47.8349 65.1333 47.9363 64.968C48.0429 64.8027 48.0963 64.6213 48.0963 64.424ZM49.6803 56.176V56.76C49.6803 56.952 49.5603 57.072 49.3203 57.12L48.4483 57.248C48.5229 57.4133 48.5816 57.5893 48.6243 57.776C48.6669 57.9573 48.6883 58.1493 48.6883 58.352C48.6883 58.752 48.6109 59.1147 48.4563 59.44C48.3016 59.76 48.0883 60.0347 47.8163 60.264C47.5443 60.4933 47.2189 60.6693 46.8403 60.792C46.4669 60.9147 46.0563 60.976 45.6083 60.976C45.2403 60.976 44.8963 60.936 44.5763 60.856C44.4163 60.952 44.2936 61.0587 44.2083 61.176C44.1283 61.288 44.0883 61.4 44.0883 61.512C44.0883 61.6987 44.1656 61.8373 44.3203 61.928C44.4803 62.0187 44.6856 62.0853 44.9363 62.128C45.1923 62.1653 45.4829 62.1893 45.8083 62.2C46.1389 62.2107 46.4723 62.2293 46.8083 62.256C47.1496 62.2773 47.4829 62.32 47.8083 62.384C48.1389 62.4427 48.4296 62.5413 48.6803 62.68C48.9363 62.8133 49.1416 63 49.2963 63.24C49.4563 63.4747 49.5363 63.7813 49.5363 64.16C49.5363 64.512 49.4483 64.8533 49.2723 65.184C49.1016 65.5147 48.8509 65.808 48.5203 66.064C48.1896 66.32 47.7869 66.5253 47.3123 66.68C46.8376 66.8347 46.2989 66.912 45.6962 66.912C45.0936 66.912 44.5683 66.8533 44.1203 66.736C43.6776 66.6187 43.3069 66.4613 43.0083 66.264C42.7149 66.0667 42.4936 65.8373 42.3443 65.576C42.2003 65.3147 42.1283 65.0427 42.1283 64.76C42.1283 64.3653 42.2509 64.032 42.4963 63.76C42.7416 63.4827 43.0803 63.2667 43.5123 63.112C43.2776 63.0053 43.0909 62.8613 42.9523 62.68C42.8136 62.4933 42.7443 62.248 42.7443 61.944C42.7443 61.8267 42.7656 61.7067 42.8083 61.584C42.8509 61.456 42.9149 61.3307 43.0003 61.208C43.0909 61.08 43.2003 60.96 43.3283 60.848C43.4616 60.736 43.6136 60.6347 43.7843 60.544C43.3843 60.32 43.0696 60.024 42.8403 59.656C42.6109 59.2827 42.4963 58.848 42.4963 58.352C42.4963 57.952 42.5736 57.592 42.7283 57.272C42.8829 56.952 43.0963 56.6773 43.3683 56.448C43.6456 56.2187 43.9736 56.0427 44.3523 55.92C44.7363 55.7973 45.1549 55.736 45.6083 55.736C46.3123 55.736 46.9176 55.8827 47.4243 56.176H49.6803Z" fill="#858585"/>
</svg>