<svg width="20" height="22" viewBox="0 0 26 22" fill="none" xmlns="http://www.w3.org/2000/svg">
<path d="M23.3907 2.23427C22.202 1.04849 20.592 0.381663 18.913 0.379613C17.2339 0.377563 15.6224 1.04046 14.4307 2.22334L13.0001 3.55224L11.5684 2.21896C10.377 1.03094 8.76251 0.364835 7.08003 0.367194C5.39755 0.369553 3.78491 1.04018 2.59689 2.23154C1.40886 3.4229 0.742765 5.03741 0.745123 6.71988C0.747482 8.40236 1.41811 10.015 2.60947 11.203L12.3821 21.119C12.4635 21.2016 12.5606 21.2673 12.6676 21.3121C12.7747 21.3569 12.8895 21.38 13.0056 21.38C13.1216 21.38 13.2365 21.3569 13.3435 21.3121C13.4505 21.2673 13.5476 21.2016 13.629 21.119L23.3907 11.203C24.5796 10.0134 25.2474 8.40046 25.2474 6.71865C25.2474 5.03683 24.5796 3.42385 23.3907 2.23427ZM22.1493 9.97365L13.0001 19.253L3.84541 9.9649C2.98387 9.10336 2.49986 7.93486 2.49986 6.71646C2.49986 5.49806 2.98387 4.32956 3.84541 3.46802C4.70694 2.60648 5.87544 2.12248 7.09384 2.12248C8.31224 2.12248 9.48074 2.60648 10.3423 3.46802L10.3642 3.4899L12.404 5.38755C12.5659 5.53824 12.7789 5.62201 13.0001 5.62201C13.2213 5.62201 13.4343 5.53824 13.5962 5.38755L15.636 3.4899L15.6579 3.46802C16.52 2.60706 17.6888 2.12384 18.9072 2.12466C20.1256 2.12548 21.2938 2.61028 22.1548 3.4724C23.0157 4.33452 23.499 5.50334 23.4981 6.72174C23.4973 7.94014 23.0125 9.10831 22.1504 9.96927L22.1493 9.97365Z" fill="red"/>
</svg>