<svg width="28" height="28" viewBox="0 0 28 28" fill="none" xmlns="http://www.w3.org/2000/svg">
<path d="M24.3907 6.23427C23.202 5.04849 21.592 4.38166 19.913 4.37961C18.2339 4.37756 16.6224 5.04046 15.4307 6.22334L14.0001 7.55224L12.5684 6.21896C11.377 5.03094 9.76251 4.36483 8.08003 4.36719C6.39755 4.36955 4.78491 5.04018 3.59689 6.23154C2.40886 7.4229 1.74276 9.03741 1.74512 10.7199C1.74748 12.4024 2.41811 14.015 3.60947 15.203L13.3821 25.119C13.4635 25.2016 13.5606 25.2673 13.6676 25.3121C13.7747 25.3569 13.8895 25.38 14.0056 25.38C14.1216 25.38 14.2365 25.3569 14.3435 25.3121C14.4505 25.2673 14.5476 25.2016 14.629 25.119L24.3907 15.203C25.5796 14.0134 26.2474 12.4005 26.2474 10.7186C26.2474 9.03683 25.5796 7.42385 24.3907 6.23427ZM23.1493 13.9736L14.0001 23.253L4.84541 13.9649C3.98387 13.1034 3.49986 11.9349 3.49986 10.7165C3.49986 9.49806 3.98387 8.32956 4.84541 7.46802C5.70694 6.60648 6.87544 6.12248 8.09384 6.12248C9.31224 6.12248 10.4807 6.60648 11.3423 7.46802L11.3642 7.4899L13.404 9.38755C13.5659 9.53824 13.7789 9.62201 14.0001 9.62201C14.2213 9.62201 14.4343 9.53824 14.5962 9.38755L16.636 7.4899L16.6579 7.46802C17.52 6.60706 18.6888 6.12384 19.9072 6.12466C21.1256 6.12548 22.2938 6.61028 23.1548 7.4724C24.0157 8.33452 24.499 9.50334 24.4981 10.7217C24.4973 11.9401 24.0125 13.1083 23.1504 13.9693L23.1493 13.9736Z" fill="#A90E0E"/>
<path d="M6.11528 7.10825C10.3356 4.61896 12.7437 7.6849 13.9998 9.5C15.7582 7.6849 20.585 4.15232 24.2024 7.88625C27.8198 11.6202 17.7679 19.3327 13.9998 24.0001C4 14.5001 0.839881 10.2199 6.11528 7.10825Z" fill="#A90E0E" stroke="#A90E0E" stroke-width="1.22222"/>
</svg>