<svg width="50" height="50" viewBox="0 0 50 50" fill="none" xmlns="http://www.w3.org/2000/svg">
<path d="M27.625 24.2501V19.0001C27.625 18.768 27.5328 18.5455 27.3687 18.3814C27.2046 18.2173 26.9821 18.1251 26.75 18.1251H23.25C23.0179 18.1251 22.7954 18.2173 22.6313 18.3814C22.4672 18.5455 22.375 18.768 22.375 19.0001V24.2501C22.375 24.4822 22.2828 24.7047 22.1187 24.8688C21.9546 25.0329 21.7321 25.1251 21.5 25.1251H16.25C16.0179 25.1251 15.7954 25.0329 15.6313 24.8688C15.4672 24.7047 15.375 24.4822 15.375 24.2501V14.1329C15.377 14.0118 15.4031 13.8924 15.452 13.7815C15.5008 13.6707 15.5713 13.5708 15.6594 13.4876L24.4094 5.53605C24.5707 5.38848 24.7814 5.30664 25 5.30664C25.2186 5.30664 25.4293 5.38848 25.5906 5.53605L34.3406 13.4876C34.4287 13.5708 34.4992 13.6707 34.548 13.7815C34.5969 13.8924 34.623 14.0118 34.625 14.1329V24.2501C34.625 24.4822 34.5328 24.7047 34.3687 24.8688C34.2046 25.0329 33.9821 25.1251 33.75 25.1251H28.5C28.2679 25.1251 28.0454 25.0329 27.8813 24.8688C27.7172 24.7047 27.625 24.4822 27.625 24.2501Z" stroke="#737373" stroke-width="2" stroke-linecap="round" stroke-linejoin="round"/>
<path d="M16.618 35.884V44.5H15.34V40.618H10.846V44.5H9.562V35.884H10.846V39.688H15.34V35.884H16.618ZM20.92 38.308C21.368 38.308 21.772 38.382 22.132 38.53C22.496 38.674 22.804 38.884 23.056 39.16C23.312 39.432 23.508 39.762 23.644 40.15C23.78 40.534 23.848 40.966 23.848 41.446C23.848 41.926 23.78 42.36 23.644 42.748C23.508 43.136 23.312 43.466 23.056 43.738C22.804 44.01 22.496 44.22 22.132 44.368C21.772 44.512 21.368 44.584 20.92 44.584C20.468 44.584 20.06 44.512 19.696 44.368C19.336 44.22 19.028 44.01 18.772 43.738C18.516 43.466 18.318 43.136 18.178 42.748C18.042 42.36 17.974 41.926 17.974 41.446C17.974 40.966 18.042 40.534 18.178 40.15C18.318 39.762 18.516 39.432 18.772 39.16C19.028 38.884 19.336 38.674 19.696 38.53C20.06 38.382 20.468 38.308 20.92 38.308ZM20.92 43.672C21.496 43.672 21.926 43.478 22.21 43.09C22.494 42.702 22.636 42.156 22.636 41.452C22.636 40.748 22.494 40.202 22.21 39.814C21.926 39.422 21.496 39.226 20.92 39.226C20.336 39.226 19.9 39.422 19.612 39.814C19.328 40.202 19.186 40.748 19.186 41.452C19.186 42.156 19.328 42.702 19.612 43.09C19.9 43.478 20.336 43.672 20.92 43.672ZM25.154 44.5V38.404H25.856C26.02 38.404 26.122 38.482 26.162 38.638L26.246 39.22C26.47 38.952 26.718 38.734 26.99 38.566C27.266 38.394 27.588 38.308 27.956 38.308C28.36 38.308 28.688 38.42 28.94 38.644C29.192 38.864 29.376 39.164 29.492 39.544C29.58 39.328 29.694 39.142 29.834 38.986C29.974 38.83 30.13 38.702 30.302 38.602C30.474 38.502 30.656 38.428 30.848 38.38C31.044 38.332 31.242 38.308 31.442 38.308C31.766 38.308 32.054 38.36 32.306 38.464C32.562 38.564 32.778 38.712 32.954 38.908C33.13 39.104 33.264 39.346 33.356 39.634C33.448 39.922 33.494 40.25 33.494 40.618V44.5H32.318V40.618C32.318 40.162 32.218 39.818 32.018 39.586C31.822 39.354 31.534 39.238 31.154 39.238C30.986 39.238 30.826 39.268 30.674 39.328C30.522 39.384 30.388 39.47 30.272 39.586C30.16 39.702 30.07 39.846 30.002 40.018C29.938 40.19 29.906 40.39 29.906 40.618V44.5H28.73V40.618C28.73 40.146 28.636 39.798 28.448 39.574C28.26 39.35 27.984 39.238 27.62 39.238C27.368 39.238 27.134 39.304 26.918 39.436C26.702 39.568 26.504 39.748 26.324 39.976V44.5H25.154ZM39.1061 40.774C39.1061 40.542 39.0721 40.328 39.0041 40.132C38.9401 39.936 38.8441 39.766 38.7161 39.622C38.5881 39.478 38.4321 39.366 38.2481 39.286C38.0641 39.206 37.8521 39.166 37.6121 39.166C37.1201 39.166 36.7321 39.308 36.4481 39.592C36.1681 39.876 35.9901 40.27 35.9141 40.774H39.1061ZM40.0721 43.63C39.9281 43.798 39.7621 43.944 39.5741 44.068C39.3861 44.188 39.1861 44.286 38.9741 44.362C38.7621 44.438 38.5421 44.494 38.3141 44.53C38.0901 44.566 37.8681 44.584 37.6481 44.584C37.2281 44.584 36.8381 44.514 36.4781 44.374C36.1221 44.23 35.8121 44.022 35.5481 43.75C35.2881 43.474 35.0841 43.134 34.9361 42.73C34.7921 42.322 34.7201 41.854 34.7201 41.326C34.7201 40.902 34.7861 40.508 34.9181 40.144C35.0501 39.776 35.2381 39.456 35.4821 39.184C35.7301 38.912 36.0321 38.698 36.3881 38.542C36.7441 38.386 37.1441 38.308 37.5881 38.308C37.9601 38.308 38.3021 38.37 38.6141 38.494C38.9301 38.614 39.2021 38.79 39.4301 39.022C39.6581 39.254 39.8361 39.54 39.9641 39.88C40.0961 40.22 40.1621 40.608 40.1621 41.044C40.1621 41.224 40.1421 41.346 40.1021 41.41C40.0621 41.47 39.9881 41.5 39.8801 41.5H35.8841C35.8961 41.864 35.9481 42.182 36.0401 42.454C36.1321 42.722 36.2581 42.946 36.4181 43.126C36.5821 43.306 36.7761 43.44 37.0001 43.528C37.2241 43.616 37.4741 43.66 37.7501 43.66C38.0101 43.66 38.2341 43.63 38.4221 43.57C38.6141 43.51 38.7781 43.446 38.9141 43.378C39.0541 43.306 39.1701 43.24 39.2621 43.18C39.3581 43.12 39.4421 43.09 39.5141 43.09C39.6101 43.09 39.6841 43.126 39.7361 43.198L40.0721 43.63Z" fill="#737373"/>
</svg>