
<svg width="26" height="23" viewBox="0 0 26 23" fill="none" xmlns="http://www.w3.org/2000/svg">
<path d="M25.157 21.2334L19.032 8.98344C18.9594 8.83812 18.8476 8.71591 18.7094 8.63049C18.5712 8.54508 18.4119 8.49984 18.2495 8.49984C18.087 8.49984 17.9277 8.54508 17.7895 8.63049C17.6513 8.71591 17.5396 8.83812 17.4669 8.98344L15.0923 13.7336C13.2311 13.6289 11.4403 12.986 9.9375 11.883C11.7007 10 12.7691 7.57207 12.9661 5H15.625C15.8571 5 16.0796 4.90781 16.2437 4.74372C16.4078 4.57962 16.5 4.35706 16.5 4.125C16.5 3.89294 16.4078 3.67038 16.2437 3.50628C16.0796 3.34219 15.8571 3.25 15.625 3.25H9.5V1.5C9.5 1.26794 9.40781 1.04538 9.24372 0.881282C9.07962 0.717187 8.85706 0.625 8.625 0.625C8.39294 0.625 8.17038 0.717187 8.00628 0.881282C7.84219 1.04538 7.75 1.26794 7.75 1.5V3.25H1.625C1.39294 3.25 1.17038 3.34219 1.00628 3.50628C0.842187 3.67038 0.75 3.89294 0.75 4.125C0.75 4.35706 0.842187 4.57962 1.00628 4.74372C1.17038 4.90781 1.39294 5 1.625 5H11.2095C11.0146 7.14446 10.1044 9.16111 8.625 10.7258C7.70314 9.75307 6.99524 8.59807 6.54688 7.33516C6.51001 7.22497 6.45156 7.12323 6.37495 7.03587C6.29834 6.94851 6.2051 6.87728 6.10067 6.82635C5.99624 6.77541 5.88271 6.74579 5.7667 6.7392C5.6507 6.73261 5.53454 6.74919 5.42501 6.78798C5.31549 6.82676 5.21478 6.88697 5.12877 6.9651C5.04276 7.04322 4.97318 7.13769 4.92407 7.243C4.87497 7.3483 4.84733 7.46233 4.84276 7.57843C4.8382 7.69454 4.85681 7.81039 4.8975 7.91922C5.41951 9.39564 6.2418 10.7479 7.3125 11.8906C5.66396 13.102 3.67078 13.7537 1.625 13.75C1.39294 13.75 1.17038 13.8422 1.00628 14.0063C0.842187 14.1704 0.75 14.3929 0.75 14.625C0.75 14.8571 0.842187 15.0796 1.00628 15.2437C1.17038 15.4078 1.39294 15.5 1.625 15.5C4.16314 15.5028 6.62854 14.6523 8.625 13.085C10.2542 14.358 12.1991 15.1637 14.2513 15.4158L11.3419 21.2334C11.238 21.441 11.2209 21.6813 11.2942 21.9015C11.3675 22.1217 11.5253 22.3037 11.7329 22.4076C11.9404 22.5114 12.1807 22.5286 12.4009 22.4552C12.6211 22.3819 12.8032 22.2241 12.907 22.0166L14.4153 19H22.0836L23.5919 22.0166C23.6646 22.1619 23.7764 22.2842 23.9147 22.3696C24.0531 22.4549 24.2124 22.5001 24.375 22.5C24.5241 22.4999 24.6708 22.4617 24.801 22.389C24.9312 22.3164 25.0407 22.2116 25.119 22.0847C25.1974 21.9578 25.242 21.813 25.2487 21.664C25.2553 21.515 25.2238 21.3668 25.157 21.2334ZM15.2903 17.25L18.25 11.3317L21.2086 17.25H15.2903Z" fill="black"/>
</svg>
