<svg width="75" height="75" viewBox="0 0 60 75" xmlns="http://www.w3.org/2000/svg">
  <path transform="translate(19, -5)" d="M20.409 28.5908C20.409 44.1803 12.2884 48.0706 11 56.8181C9.15203 48.0706 0.54541 44.1803 0.54541 28.5908C0.54541 13.0013 9.15203 9.38874 11 0.363525C13.0909 8.72716 20.409 13.0013 20.409 28.5908Z" fill="#33A457"/>
  <path transform="translate(0, 40)" fill-rule="nonzero" d="M0.727228 0.272705C0.727228 0.272705 1.20113 1.17573 2.1494 1.17573H10.8149C10.8149 1.17573 23.2264 1.17573 29.772 14.5467V15.2128C29.772 15.2128 26.1156 21.4416 29.591 31.6422C29.591 31.6422 0.727228 31.777 0.727228 0.634663V0.272705Z" fill="#33A457"/>
  <path transform="translate(30, 40)" fill-rule="nonzero" d="M29.0447 0.272705C29.0447 0.272705 28.5708 1.17573 27.6226 1.17573H18.9571C18.9571 1.17573 6.54555 1.17573 0 14.5467V15.2128C0 15.2128 3.65642 21.4416 0.180979 31.6422C0.180979 31.6422 29.0447 31.777 29.0447 0.634663V0.272705Z" fill="#33A457"/>
</svg>