<svg width="54" height="50" viewBox="0 0 54 50" fill="none" xmlns="http://www.w3.org/2000/svg">
<path d="M14.75 14.625H39.25" stroke="#666666" stroke-width="2" stroke-linecap="round" stroke-linejoin="round"/>
<path d="M37.5 21.625V24.25C37.5 24.4821 37.4078 24.7046 37.2437 24.8687C37.0796 25.0328 36.8571 25.125 36.625 25.125H34C33.7679 25.125 33.5454 25.0328 33.3813 24.8687C33.2172 24.7046 33.125 24.4821 33.125 24.25V21.625" stroke="#666666" stroke-width="2" stroke-linecap="round" stroke-linejoin="round"/>
<path d="M20.875 21.625V24.25C20.875 24.4821 20.7828 24.7046 20.6187 24.8687C20.4546 25.0328 20.2321 25.125 20 25.125H17.375C17.1429 25.125 16.9204 25.0328 16.7563 24.8687C16.5922 24.7046 16.5 24.4821 16.5 24.25V21.625" stroke="#666666" stroke-width="2" stroke-linecap="round" stroke-linejoin="round"/>
<path d="M20 18.125H21.75" stroke="#666666" stroke-width="2" stroke-linecap="round" stroke-linejoin="round"/>
<path d="M32.25 18.125H34" stroke="#666666" stroke-width="2" stroke-linecap="round" stroke-linejoin="round"/>
<path d="M37.5 14.625L34.2297 7.275C34.1618 7.11951 34.0502 6.98709 33.9085 6.89388C33.7667 6.80067 33.6009 6.75068 33.4313 6.75H20.5687C20.3991 6.75068 20.2333 6.80067 20.0915 6.89388C19.9498 6.98709 19.8382 7.11951 19.7703 7.275L16.5 14.625V21.625H37.5V14.625Z" stroke="#666666" stroke-width="2" stroke-linecap="round" stroke-linejoin="round"/>
<path d="M10.122 35.884V44.5H9.006V38.368C9.006 38.276 9.008 38.178 9.012 38.074C9.02 37.97 9.028 37.864 9.036 37.756L6.168 43.018C6.068 43.214 5.914 43.312 5.706 43.312H5.526C5.318 43.312 5.166 43.214 5.07 43.018L2.148 37.738C2.172 37.962 2.184 38.172 2.184 38.368V44.5H1.062V35.884H2.01C2.122 35.884 2.208 35.896 2.268 35.92C2.332 35.94 2.392 36 2.448 36.1L5.328 41.26C5.384 41.364 5.436 41.474 5.484 41.59C5.532 41.706 5.578 41.822 5.622 41.938C5.706 41.702 5.804 41.474 5.916 41.254L8.742 36.1C8.794 36 8.85 35.94 8.91 35.92C8.974 35.896 9.062 35.884 9.174 35.884H10.122ZM17.2125 38.404L13.8285 46.27C13.7925 46.358 13.7445 46.426 13.6845 46.474C13.6245 46.522 13.5365 46.546 13.4205 46.546H12.5505L13.6665 44.116L11.1645 38.404H12.1845C12.2845 38.404 12.3625 38.428 12.4185 38.476C12.4745 38.524 12.5145 38.578 12.5385 38.638L14.0865 42.298C14.1185 42.39 14.1485 42.484 14.1765 42.58C14.2085 42.672 14.2345 42.764 14.2545 42.856C14.2825 42.76 14.3125 42.666 14.3445 42.574C14.3765 42.478 14.4105 42.384 14.4465 42.292L15.9405 38.638C15.9685 38.57 16.0125 38.514 16.0725 38.47C16.1325 38.426 16.2005 38.404 16.2765 38.404H17.2125ZM25.1213 39.544C25.0853 39.588 25.0493 39.624 25.0133 39.652C24.9813 39.676 24.9333 39.688 24.8693 39.688C24.8053 39.688 24.7373 39.664 24.6653 39.616C24.5973 39.564 24.5093 39.51 24.4013 39.454C24.2973 39.394 24.1693 39.34 24.0173 39.292C23.8693 39.24 23.6853 39.214 23.4653 39.214C23.1773 39.214 22.9233 39.266 22.7033 39.37C22.4833 39.474 22.2993 39.622 22.1513 39.814C22.0073 40.006 21.8973 40.24 21.8213 40.516C21.7453 40.792 21.7073 41.102 21.7073 41.446C21.7073 41.802 21.7473 42.12 21.8273 42.4C21.9073 42.676 22.0213 42.91 22.1693 43.102C22.3173 43.29 22.4973 43.434 22.7093 43.534C22.9213 43.63 23.1573 43.678 23.4173 43.678C23.6693 43.678 23.8773 43.648 24.0413 43.588C24.2053 43.524 24.3413 43.456 24.4493 43.384C24.5573 43.312 24.6473 43.246 24.7193 43.186C24.7913 43.122 24.8653 43.09 24.9413 43.09C25.0373 43.09 25.1113 43.126 25.1633 43.198L25.4993 43.63C25.3593 43.802 25.2013 43.948 25.0253 44.068C24.8533 44.188 24.6693 44.286 24.4733 44.362C24.2773 44.438 24.0713 44.494 23.8553 44.53C23.6433 44.566 23.4273 44.584 23.2073 44.584C22.8273 44.584 22.4713 44.514 22.1393 44.374C21.8113 44.234 21.5253 44.03 21.2813 43.762C21.0413 43.494 20.8513 43.166 20.7113 42.778C20.5713 42.386 20.5013 41.942 20.5013 41.446C20.5013 40.994 20.5633 40.576 20.6873 40.192C20.8153 39.808 21.0013 39.478 21.2453 39.202C21.4933 38.922 21.7973 38.704 22.1573 38.548C22.5173 38.388 22.9293 38.308 23.3933 38.308C23.8293 38.308 24.2133 38.378 24.5453 38.518C24.8773 38.658 25.1733 38.856 25.4333 39.112L25.1213 39.544ZM29.8675 41.794C29.3915 41.81 28.9875 41.848 28.6555 41.908C28.3235 41.964 28.0535 42.04 27.8455 42.136C27.6375 42.232 27.4875 42.346 27.3955 42.478C27.3035 42.606 27.2575 42.75 27.2575 42.91C27.2575 43.062 27.2815 43.194 27.3295 43.306C27.3815 43.414 27.4495 43.504 27.5335 43.576C27.6215 43.644 27.7235 43.694 27.8395 43.726C27.9555 43.758 28.0815 43.774 28.2175 43.774C28.3975 43.774 28.5615 43.756 28.7095 43.72C28.8615 43.684 29.0035 43.634 29.1355 43.57C29.2675 43.502 29.3935 43.42 29.5135 43.324C29.6335 43.228 29.7515 43.118 29.8675 42.994V41.794ZM26.4355 39.256C26.7755 38.932 27.1435 38.69 27.5395 38.53C27.9395 38.37 28.3775 38.29 28.8535 38.29C29.2015 38.29 29.5095 38.348 29.7775 38.464C30.0455 38.576 30.2715 38.734 30.4555 38.938C30.6395 39.142 30.7775 39.386 30.8695 39.67C30.9655 39.954 31.0135 40.268 31.0135 40.612V44.5H30.4915C30.3755 44.5 30.2875 44.482 30.2275 44.446C30.1675 44.406 30.1195 44.334 30.0835 44.23L29.9575 43.696C29.8015 43.84 29.6475 43.968 29.4955 44.08C29.3435 44.188 29.1835 44.282 29.0155 44.362C28.8515 44.438 28.6755 44.496 28.4875 44.536C28.2995 44.576 28.0915 44.596 27.8635 44.596C27.6235 44.596 27.3975 44.564 27.1855 44.5C26.9775 44.432 26.7955 44.33 26.6395 44.194C26.4835 44.058 26.3595 43.888 26.2675 43.684C26.1795 43.48 26.1355 43.242 26.1355 42.97C26.1355 42.73 26.1995 42.5 26.3275 42.28C26.4595 42.056 26.6715 41.856 26.9635 41.68C27.2595 41.504 27.6435 41.36 28.1155 41.248C28.5915 41.136 29.1755 41.072 29.8675 41.056V40.612C29.8675 40.152 29.7695 39.808 29.5735 39.58C29.3775 39.352 29.0895 39.238 28.7095 39.238C28.4535 39.238 28.2375 39.27 28.0615 39.334C27.8895 39.398 27.7395 39.47 27.6115 39.55C27.4875 39.626 27.3775 39.696 27.2815 39.76C27.1895 39.824 27.0935 39.856 26.9935 39.856C26.9135 39.856 26.8435 39.834 26.7835 39.79C26.7275 39.746 26.6815 39.694 26.6455 39.634L26.4355 39.256ZM32.5798 44.5V38.404H33.2818C33.4458 38.404 33.5478 38.482 33.5878 38.638L33.6718 39.22C33.8958 38.952 34.1438 38.734 34.4158 38.566C34.6918 38.394 35.0138 38.308 35.3818 38.308C35.7858 38.308 36.1138 38.42 36.3658 38.644C36.6178 38.864 36.8018 39.164 36.9178 39.544C37.0058 39.328 37.1198 39.142 37.2598 38.986C37.3998 38.83 37.5558 38.702 37.7278 38.602C37.8998 38.502 38.0818 38.428 38.2738 38.38C38.4698 38.332 38.6678 38.308 38.8678 38.308C39.1918 38.308 39.4798 38.36 39.7318 38.464C39.9878 38.564 40.2038 38.712 40.3798 38.908C40.5558 39.104 40.6898 39.346 40.7818 39.634C40.8738 39.922 40.9198 40.25 40.9198 40.618V44.5H39.7438V40.618C39.7438 40.162 39.6438 39.818 39.4438 39.586C39.2478 39.354 38.9598 39.238 38.5798 39.238C38.4118 39.238 38.2518 39.268 38.0998 39.328C37.9478 39.384 37.8138 39.47 37.6978 39.586C37.5858 39.702 37.4958 39.846 37.4278 40.018C37.3638 40.19 37.3318 40.39 37.3318 40.618V44.5H36.1558V40.618C36.1558 40.146 36.0618 39.798 35.8738 39.574C35.6858 39.35 35.4098 39.238 35.0458 39.238C34.7938 39.238 34.5598 39.304 34.3438 39.436C34.1278 39.568 33.9298 39.748 33.7498 39.976V44.5H32.5798ZM43.6639 43C43.8559 43.252 44.0619 43.428 44.2819 43.528C44.5059 43.628 44.7559 43.678 45.0319 43.678C45.5679 43.678 45.9819 43.486 46.2739 43.102C46.5699 42.714 46.7179 42.15 46.7179 41.41C46.7179 41.022 46.6839 40.692 46.6159 40.42C46.5519 40.144 46.4559 39.92 46.3279 39.748C46.2039 39.572 46.0499 39.444 45.8659 39.364C45.6819 39.28 45.4739 39.238 45.2419 39.238C44.9019 39.238 44.6059 39.314 44.3539 39.466C44.1059 39.618 43.8759 39.834 43.6639 40.114V43ZM43.6039 39.316C43.7319 39.164 43.8679 39.026 44.0119 38.902C44.1599 38.774 44.3179 38.666 44.4859 38.578C44.6539 38.486 44.8319 38.416 45.0199 38.368C45.2119 38.316 45.4159 38.29 45.6319 38.29C45.9799 38.29 46.2939 38.358 46.5739 38.494C46.8579 38.63 47.0999 38.83 47.2999 39.094C47.4999 39.358 47.6539 39.684 47.7619 40.072C47.8739 40.46 47.9299 40.906 47.9299 41.41C47.9299 41.862 47.8679 42.282 47.7439 42.67C47.6239 43.054 47.4499 43.388 47.2219 43.672C46.9979 43.956 46.7219 44.18 46.3939 44.344C46.0699 44.504 45.7039 44.584 45.2959 44.584C44.9319 44.584 44.6199 44.524 44.3599 44.404C44.0999 44.284 43.8679 44.116 43.6639 43.9V46.546H42.4939V38.404H43.1959C43.3599 38.404 43.4619 38.482 43.5019 38.638L43.6039 39.316ZM52.8379 39.454C52.8059 39.506 52.7719 39.544 52.7359 39.568C52.6999 39.588 52.6539 39.598 52.5979 39.598C52.5339 39.598 52.4619 39.576 52.3819 39.532C52.3059 39.488 52.2119 39.44 52.0999 39.388C51.9919 39.336 51.8639 39.288 51.7159 39.244C51.5679 39.2 51.3919 39.178 51.1879 39.178C51.0199 39.178 50.8659 39.2 50.7259 39.244C50.5899 39.284 50.4739 39.342 50.3779 39.418C50.2819 39.49 50.2079 39.578 50.1559 39.682C50.1039 39.782 50.0779 39.89 50.0779 40.006C50.0779 40.158 50.1219 40.284 50.2099 40.384C50.3019 40.484 50.4199 40.57 50.5639 40.642C50.7119 40.714 50.8779 40.78 51.0619 40.84C51.2499 40.896 51.4399 40.956 51.6319 41.02C51.8279 41.084 52.0179 41.158 52.2019 41.242C52.3899 41.322 52.5559 41.424 52.6999 41.548C52.8479 41.668 52.9659 41.814 53.0539 41.986C53.1459 42.158 53.1919 42.368 53.1919 42.616C53.1919 42.9 53.1399 43.164 53.0359 43.408C52.9359 43.648 52.7859 43.856 52.5859 44.032C52.3899 44.208 52.1459 44.346 51.8539 44.446C51.5619 44.546 51.2279 44.596 50.8519 44.596C50.4319 44.596 50.0439 44.526 49.6879 44.386C49.3319 44.246 49.0339 44.068 48.7939 43.852L49.0699 43.402C49.1019 43.346 49.1419 43.304 49.1899 43.276C49.2379 43.244 49.3019 43.228 49.3819 43.228C49.4579 43.228 49.5359 43.256 49.6159 43.312C49.6959 43.368 49.7919 43.43 49.9039 43.498C50.0159 43.562 50.1519 43.622 50.3119 43.678C50.4719 43.73 50.6719 43.756 50.9119 43.756C51.1119 43.756 51.2859 43.732 51.4339 43.684C51.5819 43.632 51.7039 43.564 51.7999 43.48C51.8999 43.392 51.9739 43.292 52.0219 43.18C52.0699 43.068 52.0939 42.95 52.0939 42.826C52.0939 42.666 52.0479 42.534 51.9559 42.43C51.8679 42.322 51.7499 42.23 51.6019 42.154C51.4579 42.078 51.2919 42.012 51.1039 41.956C50.9159 41.9 50.7239 41.84 50.5279 41.776C50.3319 41.712 50.1399 41.638 49.9519 41.554C49.7639 41.47 49.5959 41.364 49.4479 41.236C49.3039 41.108 49.1859 40.952 49.0939 40.768C49.0059 40.584 48.9619 40.36 48.9619 40.096C48.9619 39.86 49.0099 39.634 49.1059 39.418C49.2059 39.202 49.3479 39.012 49.5319 38.848C49.7199 38.684 49.9499 38.554 50.2219 38.458C50.4979 38.358 50.8119 38.308 51.1639 38.308C51.5679 38.308 51.9319 38.372 52.2559 38.5C52.5839 38.628 52.8639 38.804 53.0959 39.028L52.8379 39.454Z" fill="#666666"/>
</svg>