<svg width="35" height="50" viewBox="0 0 35 50" fill="none" xmlns="http://www.w3.org/2000/svg">
<path d="M17.5 26C23.299 26 28 21.299 28 15.5C28 9.70101 23.299 5 17.5 5C11.701 5 7 9.70101 7 15.5C7 21.299 11.701 26 17.5 26Z" stroke="#666666" stroke-width="2" stroke-linecap="round" stroke-linejoin="round"/>
<path d="M17.5 19C19.9162 19 21.875 17.0412 21.875 14.625C21.875 12.2088 19.9162 10.25 17.5 10.25C15.0838 10.25 13.125 12.2088 13.125 14.625C13.125 17.0412 15.0838 19 17.5 19Z" stroke="#666666" stroke-width="2" stroke-linecap="round" stroke-linejoin="round"/>
<path d="M10.4783 23.3093C11.1366 22.0126 12.1412 20.9235 13.3806 20.1627C14.62 19.402 16.0459 18.9993 17.5001 18.9993C18.9544 18.9993 20.3803 19.402 21.6197 20.1627C22.8591 20.9235 23.8637 22.0126 24.522 23.3093" stroke="#666666" stroke-width="2" stroke-linecap="round" stroke-linejoin="round"/>
<path d="M3.672 40.318C3.996 40.318 4.28 40.276 4.524 40.192C4.772 40.108 4.978 39.99 5.142 39.838C5.31 39.682 5.436 39.498 5.52 39.286C5.604 39.07 5.646 38.832 5.646 38.572C5.646 38.048 5.482 37.636 5.154 37.336C4.83 37.036 4.336 36.886 3.672 36.886H2.34V40.318H3.672ZM3.672 35.884C4.224 35.884 4.704 35.948 5.112 36.076C5.52 36.204 5.858 36.386 6.126 36.622C6.394 36.854 6.592 37.136 6.72 37.468C6.852 37.8 6.918 38.168 6.918 38.572C6.918 38.976 6.848 39.348 6.708 39.688C6.568 40.024 6.362 40.314 6.09 40.558C5.818 40.802 5.478 40.992 5.07 41.128C4.666 41.26 4.2 41.326 3.672 41.326H2.34V44.5H1.062V35.884H3.672ZM9.08616 39.574C9.28216 39.174 9.51816 38.86 9.79416 38.632C10.0702 38.404 10.4022 38.29 10.7902 38.29C10.9222 38.29 11.0462 38.306 11.1622 38.338C11.2822 38.366 11.3862 38.41 11.4742 38.47L11.3962 39.352C11.3682 39.46 11.3022 39.514 11.1982 39.514C11.1422 39.514 11.0582 39.504 10.9462 39.484C10.8342 39.46 10.7142 39.448 10.5862 39.448C10.3982 39.448 10.2322 39.476 10.0882 39.532C9.94416 39.584 9.81416 39.664 9.69816 39.772C9.58616 39.876 9.48616 40.006 9.39816 40.162C9.31016 40.314 9.22816 40.488 9.15216 40.684V44.5H7.98216V38.404H8.65416C8.78216 38.404 8.86816 38.428 8.91216 38.476C8.96016 38.52 8.99416 38.6 9.01416 38.716L9.08616 39.574ZM14.752 38.308C15.2 38.308 15.604 38.382 15.964 38.53C16.328 38.674 16.636 38.884 16.888 39.16C17.144 39.432 17.34 39.762 17.476 40.15C17.612 40.534 17.68 40.966 17.68 41.446C17.68 41.926 17.612 42.36 17.476 42.748C17.34 43.136 17.144 43.466 16.888 43.738C16.636 44.01 16.328 44.22 15.964 44.368C15.604 44.512 15.2 44.584 14.752 44.584C14.3 44.584 13.892 44.512 13.528 44.368C13.168 44.22 12.86 44.01 12.604 43.738C12.348 43.466 12.15 43.136 12.01 42.748C11.874 42.36 11.806 41.926 11.806 41.446C11.806 40.966 11.874 40.534 12.01 40.15C12.15 39.762 12.348 39.432 12.604 39.16C12.86 38.884 13.168 38.674 13.528 38.53C13.892 38.382 14.3 38.308 14.752 38.308ZM14.752 43.672C15.328 43.672 15.758 43.478 16.042 43.09C16.326 42.702 16.468 42.156 16.468 41.452C16.468 40.748 16.326 40.202 16.042 39.814C15.758 39.422 15.328 39.226 14.752 39.226C14.168 39.226 13.732 39.422 13.444 39.814C13.16 40.202 13.018 40.748 13.018 41.452C13.018 42.156 13.16 42.702 13.444 43.09C13.732 43.478 14.168 43.672 14.752 43.672ZM19.2534 44.5V39.364L18.6174 39.286C18.5254 39.266 18.4494 39.234 18.3894 39.19C18.3334 39.142 18.3054 39.074 18.3054 38.986V38.5H19.2534V38.206C19.2534 37.834 19.3114 37.492 19.4274 37.18C19.5474 36.864 19.7254 36.592 19.9614 36.364C20.2014 36.136 20.4974 35.96 20.8494 35.836C21.2054 35.708 21.6214 35.644 22.0974 35.644C22.2494 35.644 22.4094 35.654 22.5774 35.674C22.7454 35.694 22.8874 35.724 23.0034 35.764L22.9614 36.376C22.9534 36.456 22.9034 36.498 22.8114 36.502C22.7194 36.506 22.5914 36.508 22.4274 36.508C22.0634 36.508 21.7534 36.544 21.4974 36.616C21.2414 36.688 21.0314 36.796 20.8674 36.94C20.7034 37.084 20.5834 37.266 20.5074 37.486C20.4314 37.702 20.3934 37.954 20.3934 38.242V38.5H24.1014V44.5H22.9254V39.352H20.4294V44.5H19.2534ZM26.9947 35.644V44.5H25.8187V35.644H26.9947ZM32.7038 40.774C32.7038 40.542 32.6698 40.328 32.6018 40.132C32.5378 39.936 32.4418 39.766 32.3138 39.622C32.1858 39.478 32.0298 39.366 31.8458 39.286C31.6618 39.206 31.4498 39.166 31.2098 39.166C30.7178 39.166 30.3298 39.308 30.0458 39.592C29.7658 39.876 29.5878 40.27 29.5118 40.774H32.7038ZM33.6698 43.63C33.5258 43.798 33.3598 43.944 33.1718 44.068C32.9838 44.188 32.7838 44.286 32.5718 44.362C32.3598 44.438 32.1398 44.494 31.9118 44.53C31.6878 44.566 31.4658 44.584 31.2458 44.584C30.8258 44.584 30.4358 44.514 30.0758 44.374C29.7198 44.23 29.4098 44.022 29.1458 43.75C28.8858 43.474 28.6818 43.134 28.5338 42.73C28.3898 42.322 28.3178 41.854 28.3178 41.326C28.3178 40.902 28.3838 40.508 28.5158 40.144C28.6478 39.776 28.8358 39.456 29.0798 39.184C29.3278 38.912 29.6298 38.698 29.9858 38.542C30.3418 38.386 30.7418 38.308 31.1858 38.308C31.5578 38.308 31.8998 38.37 32.2118 38.494C32.5278 38.614 32.7998 38.79 33.0278 39.022C33.2558 39.254 33.4338 39.54 33.5618 39.88C33.6938 40.22 33.7598 40.608 33.7598 41.044C33.7598 41.224 33.7398 41.346 33.6998 41.41C33.6598 41.47 33.5858 41.5 33.4778 41.5H29.4818C29.4938 41.864 29.5458 42.182 29.6378 42.454C29.7298 42.722 29.8558 42.946 30.0158 43.126C30.1798 43.306 30.3738 43.44 30.5978 43.528C30.8218 43.616 31.0718 43.66 31.3478 43.66C31.6078 43.66 31.8318 43.63 32.0198 43.57C32.2118 43.51 32.3758 43.446 32.5118 43.378C32.6518 43.306 32.7678 43.24 32.8598 43.18C32.9558 43.12 33.0398 43.09 33.1118 43.09C33.2078 43.09 33.2818 43.126 33.3338 43.198L33.6698 43.63Z" fill="#666666"/>
</svg>