<svg width="40" height="69" viewBox="0 0 40 69" fill="none" xmlns="http://www.w3.org/2000/svg">
<path d="M4.99992 8.33333V5H9.99992V8.33333H4.99992ZM10.2083 17.2083L7.83325 14.875L11.3749 11.3333L13.7499 13.6667L10.2083 17.2083ZM19.9999 13.3333C17.6944 13.3333 15.7288 12.5206 14.1033 10.895C12.4777 9.26944 11.6655 7.30444 11.6666 5H14.9999C14.9999 6.38889 15.486 7.56944 16.4583 8.54167C17.4305 9.51389 18.611 10 19.9999 10C21.3888 10 22.5694 9.51389 23.5416 8.54167C24.5138 7.56944 24.9999 6.38889 24.9999 5H28.3333C28.3333 7.30556 27.5205 9.27111 25.8949 10.8967C24.2694 12.5222 22.3044 13.3344 19.9999 13.3333ZM18.3333 20V15H21.6666V20H18.3333ZM29.7916 17.2083L26.2916 13.6667L28.6249 11.3333L32.1666 14.8333L29.7916 17.2083ZM29.9999 8.33333V5H34.9999V8.33333H29.9999ZM3.33325 35V31.6667C4.38881 31.6667 5.17381 31.3889 5.68825 30.8333C6.2027 30.2778 7.27881 30 8.91659 30C10.5555 30 11.6321 30.2778 12.1466 30.8333C12.661 31.3889 13.4177 31.6667 14.4166 31.6667C15.4721 31.6667 16.2571 31.3889 16.7716 30.8333C17.286 30.2778 18.3621 30 19.9999 30C21.5833 30 22.6599 30.2778 23.2299 30.8333C23.7999 31.3889 24.5844 31.6667 25.5833 31.6667C26.6388 31.6667 27.4099 31.3889 27.8966 30.8333C28.3833 30.2778 29.4455 30 31.0833 30C32.7221 30 33.7988 30.2778 34.3133 30.8333C34.8277 31.3889 35.6121 31.6667 36.6666 31.6667V35C35.0833 35 34.0071 34.7222 33.4383 34.1667C32.8694 33.6111 32.0844 33.3333 31.0833 33.3333C30.0833 33.3333 29.3266 33.6111 28.8133 34.1667C28.2999 34.7222 27.2233 35 25.5833 35C23.9999 35 22.9238 34.7222 22.3549 34.1667C21.786 33.6111 21.001 33.3333 19.9999 33.3333C18.9444 33.3333 18.1594 33.6111 17.6449 34.1667C17.1305 34.7222 16.0544 35 14.4166 35C12.7777 35 11.7149 34.7222 11.2283 34.1667C10.7416 33.6111 9.97103 33.3333 8.91659 33.3333C7.86103 33.3333 7.07659 33.6111 6.56325 34.1667C6.04992 34.7222 4.97325 35 3.33325 35ZM3.33325 28.3333V25C4.38881 25 5.17381 24.7222 5.68825 24.1667C6.2027 23.6111 7.27881 23.3333 8.91659 23.3333C10.4999 23.3333 11.5627 23.6111 12.1049 24.1667C12.6471 24.7222 13.4177 25 14.4166 25C15.4721 25 16.2566 24.7222 16.7699 24.1667C17.2833 23.6111 18.3599 23.3333 19.9999 23.3333C21.5833 23.3333 22.6527 23.6111 23.2083 24.1667C23.7638 24.7222 24.5277 25 25.4999 25C26.5555 25 27.3399 24.7222 27.8533 24.1667C28.3666 23.6111 29.4433 23.3333 31.0833 23.3333C32.6666 23.3333 33.7433 23.6111 34.3133 24.1667C34.8833 24.7222 35.6677 25 36.6666 25V28.3333C35.0277 28.3333 33.9371 28.0556 33.3949 27.5C32.8527 26.9444 32.0821 26.6667 31.0833 26.6667C30.0833 26.6667 29.3266 26.9444 28.8133 27.5C28.2999 28.0556 27.2233 28.3333 25.5833 28.3333C23.9999 28.3333 22.9238 28.0556 22.3549 27.5C21.786 26.9444 21.001 26.6667 19.9999 26.6667C18.9444 26.6667 18.1733 26.9444 17.6866 27.5C17.1999 28.0556 16.1377 28.3333 14.4999 28.3333C12.861 28.3333 11.771 28.0556 11.2299 27.5C10.6888 26.9444 9.9177 26.6667 8.91659 26.6667C7.91659 26.6667 7.13214 26.9444 6.56325 27.5C5.99436 28.0556 4.9177 28.3333 3.33325 28.3333Z" fill="#858585"/>
<path d="M6.172 58.048C6.60933 58.048 6.99333 57.9947 7.324 57.888C7.66 57.7813 7.94 57.632 8.164 57.44C8.388 57.2427 8.556 57.0107 8.668 56.744C8.78 56.472 8.836 56.1733 8.836 55.848C8.836 55.1867 8.61733 54.688 8.18 54.352C7.748 54.016 7.09733 53.848 6.228 53.848H4.62V58.048H6.172ZM11.532 64H10.012C9.708 64 9.48667 63.88 9.348 63.64L6.508 59.656C6.41733 59.5227 6.31867 59.4293 6.212 59.376C6.10533 59.3173 5.94533 59.288 5.732 59.288H4.62V64H2.916V52.512H6.228C6.96933 52.512 7.60667 52.5893 8.14 52.744C8.67867 52.8933 9.12133 53.1093 9.468 53.392C9.82 53.6693 10.0787 54.0053 10.244 54.4C10.4147 54.7947 10.5 55.2373 10.5 55.728C10.5 56.128 10.4387 56.504 10.316 56.856C10.1933 57.208 10.012 57.5253 9.772 57.808C9.53733 58.0853 9.24933 58.3253 8.908 58.528C8.56667 58.7307 8.18 58.8853 7.748 58.992C7.96133 59.12 8.14533 59.2987 8.3 59.528L11.532 64ZM14.2124 55.872V64H12.6524V55.872H14.2124ZM14.5084 53.36C14.5084 53.504 14.479 53.6427 14.4204 53.776C14.3617 53.904 14.2817 54.0187 14.1804 54.12C14.0844 54.216 13.9697 54.2933 13.8364 54.352C13.703 54.4053 13.5644 54.432 13.4204 54.432C13.2764 54.432 13.1404 54.4053 13.0124 54.352C12.8844 54.2933 12.7697 54.216 12.6684 54.12C12.5724 54.0187 12.495 53.904 12.4364 53.776C12.383 53.6427 12.3564 53.504 12.3564 53.36C12.3564 53.2107 12.383 53.072 12.4364 52.944C12.495 52.8107 12.5724 52.696 12.6684 52.6C12.7697 52.4987 12.8844 52.4213 13.0124 52.368C13.1404 52.3093 13.2764 52.28 13.4204 52.28C13.5644 52.28 13.703 52.3093 13.8364 52.368C13.9697 52.4213 14.0844 52.4987 14.1804 52.6C14.2817 52.696 14.3617 52.8107 14.4204 52.944C14.479 53.072 14.5084 53.2107 14.5084 53.36ZM23.527 55.872L20.231 64H18.823L15.527 55.872H16.815C16.9377 55.872 17.039 55.9013 17.119 55.96C17.199 56.0187 17.2523 56.0933 17.279 56.184L19.223 61.176C19.2923 61.384 19.351 61.592 19.399 61.8C19.4523 62.0027 19.5003 62.2053 19.543 62.408C19.5857 62.2053 19.6337 62.0027 19.687 61.8C19.7403 61.5973 19.8043 61.3893 19.879 61.176L21.847 56.184C21.879 56.0933 21.935 56.0187 22.015 55.96C22.095 55.9013 22.191 55.872 22.303 55.872H23.527ZM29.9175 59.032C29.9175 58.7227 29.8722 58.4373 29.7815 58.176C29.6962 57.9147 29.5682 57.688 29.3975 57.496C29.2268 57.304 29.0188 57.1547 28.7735 57.048C28.5282 56.9413 28.2455 56.888 27.9255 56.888C27.2695 56.888 26.7522 57.0773 26.3735 57.456C26.0002 57.8347 25.7628 58.36 25.6615 59.032H29.9175ZM31.2055 62.84C31.0135 63.064 30.7922 63.2587 30.5415 63.424C30.2908 63.584 30.0242 63.7147 29.7415 63.816C29.4588 63.9173 29.1655 63.992 28.8615 64.04C28.5628 64.088 28.2668 64.112 27.9735 64.112C27.4135 64.112 26.8935 64.0187 26.4135 63.832C25.9388 63.64 25.5255 63.3627 25.1735 63C24.8268 62.632 24.5548 62.1787 24.3575 61.64C24.1655 61.096 24.0695 60.472 24.0695 59.768C24.0695 59.2027 24.1575 58.6773 24.3335 58.192C24.5095 57.7013 24.7602 57.2747 25.0855 56.912C25.4162 56.5493 25.8188 56.264 26.2935 56.056C26.7682 55.848 27.3015 55.744 27.8935 55.744C28.3895 55.744 28.8455 55.8267 29.2615 55.992C29.6828 56.152 30.0455 56.3867 30.3495 56.696C30.6535 57.0053 30.8908 57.3867 31.0615 57.84C31.2375 58.2933 31.3255 58.8107 31.3255 59.392C31.3255 59.632 31.2988 59.7947 31.2455 59.88C31.1922 59.96 31.0935 60 30.9495 60H25.6215C25.6375 60.4853 25.7068 60.9093 25.8295 61.272C25.9522 61.6293 26.1202 61.928 26.3335 62.168C26.5522 62.408 26.8108 62.5867 27.1095 62.704C27.4082 62.8213 27.7415 62.88 28.1095 62.88C28.4562 62.88 28.7548 62.84 29.0055 62.76C29.2615 62.68 29.4802 62.5947 29.6615 62.504C29.8482 62.408 30.0028 62.32 30.1255 62.24C30.2535 62.16 30.3655 62.12 30.4615 62.12C30.5895 62.12 30.6882 62.168 30.7575 62.264L31.2055 62.84ZM34.4743 57.432C34.7356 56.8987 35.0503 56.48 35.4183 56.176C35.7863 55.872 36.2289 55.72 36.7463 55.72C36.9223 55.72 37.0876 55.7413 37.2423 55.784C37.4023 55.8213 37.5409 55.88 37.6583 55.96L37.5543 57.136C37.5169 57.28 37.4289 57.352 37.2903 57.352C37.2156 57.352 37.1036 57.3387 36.9543 57.312C36.8049 57.28 36.6449 57.264 36.4743 57.264C36.2236 57.264 36.0023 57.3013 35.8103 57.376C35.6183 57.4453 35.4449 57.552 35.2903 57.696C35.1409 57.8347 35.0076 58.008 34.8903 58.216C34.7729 58.4187 34.6636 58.6507 34.5623 58.912V64H33.0023V55.872H33.8983C34.0689 55.872 34.1836 55.904 34.2423 55.968C34.3063 56.0267 34.3516 56.1333 34.3783 56.288L34.4743 57.432Z" fill="#858585"/>
</svg>