<svg width="32" height="50" viewBox="0 0 32 50" fill="none" xmlns="http://www.w3.org/2000/svg">
<path d="M26.3907 7.73427C25.202 6.54849 23.592 5.88166 21.913 5.87961C20.2339 5.87756 18.6224 6.54046 17.4307 7.72334L16.0001 9.05224L14.5684 7.71896C13.377 6.53094 11.7625 5.86483 10.08 5.86719C8.39755 5.86955 6.78491 6.54018 5.59689 7.73154C4.40886 8.9229 3.74276 10.5374 3.74512 12.2199C3.74748 13.9024 4.41811 15.515 5.60947 16.703L15.3821 26.619C15.4635 26.7016 15.5606 26.7673 15.6676 26.8121C15.7747 26.8569 15.8895 26.88 16.0056 26.88C16.1216 26.88 16.2365 26.8569 16.3435 26.8121C16.4505 26.7673 16.5476 26.7016 16.629 26.619L26.3907 16.703C27.5796 15.5134 28.2474 13.9005 28.2474 12.2186C28.2474 10.5368 27.5796 8.92385 26.3907 7.73427ZM25.1493 15.4736L16.0001 24.753L6.84541 15.4649C5.98387 14.6034 5.49986 13.4349 5.49986 12.2165C5.49986 10.9981 5.98387 9.82956 6.84541 8.96802C7.70694 8.10648 8.87544 7.62248 10.0938 7.62248C11.3122 7.62248 12.4807 8.10648 13.3423 8.96802L13.3642 8.9899L15.404 10.8876C15.5659 11.0382 15.7789 11.122 16.0001 11.122C16.2213 11.122 16.4343 11.0382 16.5962 10.8876L18.636 8.9899L18.6579 8.96802C19.52 8.10706 20.6888 7.62384 21.9072 7.62466C23.1256 7.62548 24.2938 8.11028 25.1548 8.9724C26.0157 9.83452 26.499 11.0033 26.4981 12.2217C26.4973 13.4401 26.0125 14.6083 25.1504 15.4693L25.1493 15.4736Z" fill="#666666"/>
<path d="M5.52 37.288C5.48 37.356 5.438 37.406 5.394 37.438C5.35 37.47 5.294 37.486 5.226 37.486C5.154 37.486 5.072 37.454 4.98 37.39C4.888 37.322 4.772 37.248 4.632 37.168C4.496 37.084 4.332 37.01 4.14 36.946C3.948 36.878 3.718 36.844 3.45 36.844C3.198 36.844 2.976 36.878 2.784 36.946C2.596 37.01 2.438 37.1 2.31 37.216C2.182 37.328 2.084 37.462 2.016 37.618C1.952 37.77 1.92 37.936 1.92 38.116C1.92 38.348 1.978 38.54 2.094 38.692C2.214 38.844 2.37 38.974 2.562 39.082C2.754 39.19 2.972 39.284 3.216 39.364C3.46 39.444 3.71 39.528 3.966 39.616C4.222 39.7 4.472 39.798 4.716 39.91C4.96 40.022 5.178 40.164 5.37 40.336C5.562 40.504 5.716 40.712 5.832 40.96C5.952 41.204 6.012 41.504 6.012 41.86C6.012 42.24 5.946 42.596 5.814 42.928C5.686 43.26 5.498 43.55 5.25 43.798C5.002 44.046 4.696 44.242 4.332 44.386C3.972 44.526 3.562 44.596 3.102 44.596C2.826 44.596 2.558 44.568 2.298 44.512C2.038 44.46 1.792 44.386 1.56 44.29C1.328 44.19 1.11 44.072 0.906 43.936C0.706 43.796 0.526 43.64 0.366 43.468L0.732 42.856C0.768 42.808 0.81 42.768 0.858 42.736C0.91 42.704 0.968 42.688 1.032 42.688C1.116 42.688 1.212 42.732 1.32 42.82C1.432 42.908 1.568 43.006 1.728 43.114C1.892 43.218 2.086 43.314 2.31 43.402C2.538 43.49 2.814 43.534 3.138 43.534C3.402 43.534 3.638 43.5 3.846 43.432C4.054 43.36 4.228 43.26 4.368 43.132C4.512 43 4.622 42.842 4.698 42.658C4.774 42.474 4.812 42.27 4.812 42.046C4.812 41.794 4.754 41.588 4.638 41.428C4.522 41.268 4.368 41.134 4.176 41.026C3.984 40.918 3.766 40.826 3.522 40.75C3.278 40.674 3.028 40.596 2.772 40.516C2.516 40.432 2.266 40.336 2.022 40.228C1.778 40.12 1.56 39.98 1.368 39.808C1.176 39.632 1.022 39.414 0.906 39.154C0.79 38.89 0.732 38.566 0.732 38.182C0.732 37.874 0.792 37.576 0.912 37.288C1.032 37 1.206 36.746 1.434 36.526C1.666 36.302 1.95 36.124 2.286 35.992C2.622 35.856 3.006 35.788 3.438 35.788C3.922 35.788 4.366 35.866 4.77 36.022C5.178 36.174 5.532 36.394 5.832 36.682L5.52 37.288ZM10.5433 41.794C10.0673 41.81 9.66331 41.848 9.33131 41.908C8.99931 41.964 8.72931 42.04 8.52131 42.136C8.31331 42.232 8.16331 42.346 8.07131 42.478C7.97931 42.606 7.93331 42.75 7.93331 42.91C7.93331 43.062 7.95731 43.194 8.00531 43.306C8.05731 43.414 8.12531 43.504 8.20931 43.576C8.29731 43.644 8.39931 43.694 8.51531 43.726C8.63131 43.758 8.75731 43.774 8.89331 43.774C9.07331 43.774 9.23731 43.756 9.38531 43.72C9.53731 43.684 9.67931 43.634 9.81131 43.57C9.94331 43.502 10.0693 43.42 10.1893 43.324C10.3093 43.228 10.4273 43.118 10.5433 42.994V41.794ZM7.11131 39.256C7.45131 38.932 7.81931 38.69 8.21531 38.53C8.61531 38.37 9.05331 38.29 9.52931 38.29C9.87731 38.29 10.1853 38.348 10.4533 38.464C10.7213 38.576 10.9473 38.734 11.1313 38.938C11.3153 39.142 11.4533 39.386 11.5453 39.67C11.6413 39.954 11.6893 40.268 11.6893 40.612V44.5H11.1673C11.0513 44.5 10.9633 44.482 10.9033 44.446C10.8433 44.406 10.7953 44.334 10.7593 44.23L10.6333 43.696C10.4773 43.84 10.3233 43.968 10.1713 44.08C10.0193 44.188 9.85931 44.282 9.69131 44.362C9.52731 44.438 9.35131 44.496 9.16331 44.536C8.97531 44.576 8.76731 44.596 8.53931 44.596C8.29931 44.596 8.07331 44.564 7.86131 44.5C7.65331 44.432 7.47131 44.33 7.31531 44.194C7.15931 44.058 7.03531 43.888 6.94331 43.684C6.85531 43.48 6.81131 43.242 6.81131 42.97C6.81131 42.73 6.87531 42.5 7.00331 42.28C7.13531 42.056 7.34731 41.856 7.63931 41.68C7.93531 41.504 8.31931 41.36 8.79131 41.248C9.26731 41.136 9.85131 41.072 10.5433 41.056V40.612C10.5433 40.152 10.4453 39.808 10.2493 39.58C10.0533 39.352 9.76531 39.238 9.38531 39.238C9.12931 39.238 8.91331 39.27 8.73731 39.334C8.56531 39.398 8.41531 39.47 8.28731 39.55C8.16331 39.626 8.05331 39.696 7.95731 39.76C7.86531 39.824 7.76931 39.856 7.66931 39.856C7.58931 39.856 7.51931 39.834 7.45931 39.79C7.40331 39.746 7.35731 39.694 7.32131 39.634L7.11131 39.256ZM18.4187 38.404L15.9467 44.5H14.8907L12.4187 38.404H13.3847C13.4767 38.404 13.5527 38.426 13.6127 38.47C13.6727 38.514 13.7127 38.57 13.7327 38.638L15.1907 42.382C15.2427 42.538 15.2867 42.694 15.3227 42.85C15.3627 43.002 15.3987 43.154 15.4307 43.306C15.4627 43.154 15.4987 43.002 15.5387 42.85C15.5787 42.698 15.6267 42.542 15.6827 42.382L17.1587 38.638C17.1827 38.57 17.2247 38.514 17.2847 38.47C17.3447 38.426 17.4167 38.404 17.5007 38.404H18.4187ZM23.2116 40.774C23.2116 40.542 23.1776 40.328 23.1096 40.132C23.0456 39.936 22.9496 39.766 22.8216 39.622C22.6936 39.478 22.5376 39.366 22.3536 39.286C22.1696 39.206 21.9576 39.166 21.7176 39.166C21.2256 39.166 20.8376 39.308 20.5536 39.592C20.2736 39.876 20.0956 40.27 20.0196 40.774H23.2116ZM24.1776 43.63C24.0336 43.798 23.8676 43.944 23.6796 44.068C23.4916 44.188 23.2916 44.286 23.0796 44.362C22.8676 44.438 22.6476 44.494 22.4196 44.53C22.1956 44.566 21.9736 44.584 21.7536 44.584C21.3336 44.584 20.9436 44.514 20.5836 44.374C20.2276 44.23 19.9176 44.022 19.6536 43.75C19.3936 43.474 19.1896 43.134 19.0416 42.73C18.8976 42.322 18.8256 41.854 18.8256 41.326C18.8256 40.902 18.8916 40.508 19.0236 40.144C19.1556 39.776 19.3436 39.456 19.5876 39.184C19.8356 38.912 20.1376 38.698 20.4936 38.542C20.8496 38.386 21.2496 38.308 21.6936 38.308C22.0656 38.308 22.4076 38.37 22.7196 38.494C23.0356 38.614 23.3076 38.79 23.5356 39.022C23.7636 39.254 23.9416 39.54 24.0696 39.88C24.2016 40.22 24.2676 40.608 24.2676 41.044C24.2676 41.224 24.2476 41.346 24.2076 41.41C24.1676 41.47 24.0936 41.5 23.9856 41.5H19.9896C20.0016 41.864 20.0536 42.182 20.1456 42.454C20.2376 42.722 20.3636 42.946 20.5236 43.126C20.6876 43.306 20.8816 43.44 21.1056 43.528C21.3296 43.616 21.5796 43.66 21.8556 43.66C22.1156 43.66 22.3396 43.63 22.5276 43.57C22.7196 43.51 22.8836 43.446 23.0196 43.378C23.1596 43.306 23.2756 43.24 23.3676 43.18C23.4636 43.12 23.5476 43.09 23.6196 43.09C23.7156 43.09 23.7896 43.126 23.8416 43.198L24.1776 43.63ZM29.4551 39.88C29.2631 39.628 29.0551 39.452 28.8311 39.352C28.6111 39.252 28.3631 39.202 28.0871 39.202C27.5511 39.202 27.1351 39.396 26.8391 39.784C26.5471 40.168 26.4011 40.73 26.4011 41.47C26.4011 41.858 26.4331 42.19 26.4971 42.466C26.5651 42.738 26.6611 42.962 26.7851 43.138C26.9131 43.31 27.0691 43.438 27.2531 43.522C27.4371 43.602 27.6451 43.642 27.8771 43.642C28.2171 43.642 28.5111 43.566 28.7591 43.414C29.0071 43.262 29.2391 43.048 29.4551 42.772V39.88ZM30.6311 35.644V44.5H29.9231C29.7591 44.5 29.6571 44.422 29.6171 44.266L29.5151 43.564C29.2551 43.872 28.9591 44.12 28.6271 44.308C28.2991 44.492 27.9191 44.584 27.4871 44.584C27.1391 44.584 26.8231 44.516 26.5391 44.38C26.2591 44.244 26.0191 44.046 25.8191 43.786C25.6191 43.522 25.4651 43.196 25.3571 42.808C25.2491 42.42 25.1951 41.974 25.1951 41.47C25.1951 41.018 25.2551 40.598 25.3751 40.21C25.4951 39.822 25.6691 39.486 25.8971 39.202C26.1251 38.918 26.4011 38.696 26.7251 38.536C27.0491 38.372 27.4151 38.29 27.8231 38.29C28.1911 38.29 28.5031 38.35 28.7591 38.47C29.0191 38.59 29.2511 38.76 29.4551 38.98V35.644H30.6311Z" fill="#666666"/>
</svg>