
<svg width="24" height="24" viewBox="0 0 24 24" fill="none" xmlns="http://www.w3.org/2000/svg">
<path d="M12 6.75005C10.9617 6.75005 9.94666 7.05796 9.08331 7.63484C8.21995 8.21171 7.54704 9.03165 7.14968 9.99096C6.75232 10.9503 6.64836 12.0059 6.85093 13.0243C7.0535 14.0427 7.55351 14.9781 8.28774 15.7124C9.02197 16.4466 9.95743 16.9466 10.9758 17.1492C11.9942 17.3517 13.0498 17.2478 14.0091 16.8504C14.9685 16.4531 15.7884 15.7802 16.3653 14.9168C16.9421 14.0534 17.25 13.0384 17.25 12C17.2486 10.6081 16.695 9.27359 15.7108 8.28934C14.7265 7.30509 13.392 6.7515 12 6.75005ZM12 15.5C11.3078 15.5 10.6311 15.2948 10.0556 14.9102C9.47998 14.5256 9.03138 13.979 8.76647 13.3394C8.50156 12.6999 8.43225 11.9962 8.5673 11.3172C8.70235 10.6383 9.03569 10.0147 9.52518 9.52518C10.0147 9.03569 10.6383 8.70235 11.3172 8.5673C11.9962 8.43225 12.6999 8.50156 13.3394 8.76647C13.979 9.03138 14.5256 9.47998 14.9102 10.0556C15.2948 10.6311 15.5 11.3078 15.5 12C15.5 12.9283 15.1313 13.8185 14.4749 14.4749C13.8185 15.1313 12.9283 15.5 12 15.5ZM21.625 12.2363C21.6294 12.0788 21.6294 11.9213 21.625 11.7638L23.2569 9.72505C23.3425 9.61801 23.4017 9.49236 23.4298 9.35824C23.458 9.22411 23.4542 9.08526 23.4188 8.95286C23.1513 7.94727 22.7511 6.98176 22.2288 6.08177C22.1604 5.96399 22.0655 5.8638 21.9515 5.78918C21.8376 5.71456 21.7078 5.66756 21.5725 5.65193L18.9782 5.36317C18.8703 5.24942 18.7609 5.14005 18.6501 5.03505L18.3438 2.43411C18.328 2.29872 18.2809 2.16888 18.2061 2.05494C18.1312 1.94101 18.0308 1.84612 17.9129 1.77786C17.0125 1.25652 16.0471 0.856744 15.0418 0.588956C14.9093 0.553734 14.7704 0.550132 14.6363 0.578439C14.5021 0.606746 14.3765 0.666172 14.2696 0.751925L12.2363 2.37505C12.0788 2.37505 11.9213 2.37505 11.7638 2.37505L9.72505 0.746456C9.61801 0.66089 9.49236 0.601663 9.35824 0.573547C9.22411 0.54543 9.08526 0.549209 8.95286 0.584581C7.94743 0.85258 6.98198 1.25273 6.08177 1.77458C5.96399 1.84297 5.8638 1.93791 5.78918 2.05183C5.71456 2.16576 5.66756 2.29554 5.65193 2.43083L5.36317 5.02958C5.24942 5.13823 5.14005 5.2476 5.03505 5.35771L2.43411 5.6563C2.29872 5.67205 2.16888 5.71922 2.05494 5.79403C1.94101 5.86885 1.84612 5.96926 1.77786 6.08724C1.25652 6.98757 0.856744 7.953 0.588956 8.95833C0.553734 9.09081 0.550132 9.22971 0.578439 9.36384C0.606746 9.49797 0.666172 9.62357 0.751925 9.73052L2.37505 11.7638C2.37505 11.9213 2.37505 12.0788 2.37505 12.2363L0.746456 14.2751C0.66089 14.3821 0.601663 14.5077 0.573547 14.6419C0.54543 14.776 0.549209 14.9148 0.584581 15.0472C0.852101 16.0528 1.25228 17.0183 1.77458 17.9183C1.84297 18.0361 1.93791 18.1363 2.05183 18.2109C2.16576 18.2855 2.29554 18.3325 2.43083 18.3482L5.02521 18.6369C5.13385 18.7507 5.24323 18.8601 5.35333 18.965L5.6563 21.566C5.67205 21.7014 5.71922 21.8312 5.79403 21.9452C5.86885 22.0591 5.96926 22.154 6.08724 22.2222C6.98757 22.7436 7.953 23.1434 8.95833 23.4111C9.09081 23.4464 9.22971 23.45 9.36384 23.4217C9.49797 23.3934 9.62357 23.3339 9.73052 23.2482L11.7638 21.625C11.9213 21.6294 12.0788 21.6294 12.2363 21.625L14.2751 23.2569C14.3821 23.3425 14.5077 23.4017 14.6419 23.4298C14.776 23.458 14.9148 23.4542 15.0472 23.4188C16.0528 23.1513 17.0183 22.7511 17.9183 22.2288C18.0361 22.1604 18.1363 22.0655 18.2109 21.9515C18.2855 21.8376 18.3325 21.7078 18.3482 21.5725L18.6369 18.9782C18.7507 18.8703 18.8601 18.7609 18.965 18.6501L21.566 18.3438C21.7014 18.328 21.8312 18.2809 21.9452 18.2061C22.0591 18.1312 22.154 18.0308 22.2222 17.9129C22.7436 17.0125 23.1434 16.0471 23.4111 15.0418C23.4464 14.9093 23.45 14.7704 23.4217 14.6363C23.3934 14.5021 23.3339 14.3765 23.2482 14.2696L21.625 12.2363ZM19.8641 11.5254C19.8827 11.8415 19.8827 12.1586 19.8641 12.4747C19.8511 12.6912 19.9189 12.9048 20.0544 13.0741L21.6065 15.0133C21.4284 15.5793 21.2003 16.1283 20.9251 16.654L18.4532 16.934C18.2379 16.9579 18.0392 17.0607 17.8954 17.2227C17.6848 17.4595 17.4606 17.6837 17.2238 17.8943C17.0618 18.0381 16.9589 18.2368 16.935 18.4521L16.6605 20.9218C16.135 21.1972 15.5859 21.4252 15.0199 21.6032L13.0796 20.0511C12.9243 19.9271 12.7314 19.8596 12.5327 19.8597H12.4802C12.164 19.8783 11.847 19.8783 11.5308 19.8597C11.3144 19.8467 11.1008 19.9145 10.9315 20.0501L8.98677 21.6032C8.42079 21.4251 7.87176 21.1971 7.34614 20.9218L7.06614 18.4532C7.04225 18.2379 6.93936 18.0392 6.77739 17.8954C6.54061 17.6848 6.31637 17.4606 6.10583 17.2238C5.96204 17.0618 5.76329 16.9589 5.54802 16.935L3.07833 16.6594C2.80292 16.1339 2.57488 15.5848 2.39692 15.0188L3.94896 13.0785C4.08448 12.9092 4.1523 12.6956 4.13927 12.4791C4.12068 12.1629 4.12068 11.8459 4.13927 11.5297C4.1523 11.3133 4.08448 11.0997 3.94896 10.9304L2.39692 8.98677C2.57502 8.42079 2.80305 7.87176 3.07833 7.34614L5.54693 7.06614C5.76219 7.04225 5.96095 6.93936 6.10474 6.77739C6.31527 6.54061 6.53951 6.31637 6.7763 6.10583C6.93891 5.96195 7.04222 5.76274 7.06614 5.54693L7.34068 3.07833C7.86623 2.80292 8.41527 2.57488 8.9813 2.39692L10.9216 3.94896C11.0909 4.08448 11.3045 4.1523 11.521 4.13927C11.8372 4.12068 12.1542 4.12068 12.4704 4.13927C12.6868 4.1523 12.9004 4.08448 13.0697 3.94896L15.0133 2.39692C15.5793 2.57502 16.1283 2.80305 16.654 3.07833L16.934 5.54693C16.9579 5.76219 17.0607 5.96095 17.2227 6.10474C17.4595 6.31527 17.6837 6.53951 17.8943 6.7763C18.0381 6.93827 18.2368 7.04115 18.4521 7.06505L20.9218 7.33958C21.1972 7.86513 21.4252 8.41418 21.6032 8.98021L20.0511 10.9205C19.9143 11.0912 19.8464 11.307 19.8608 11.5254H19.8641Z" fill="black"/>
</svg>
