<svg width="49" height="69" viewBox="0 0 49 69" fill="none" xmlns="http://www.w3.org/2000/svg">
<path d="M15.75 13.75V6.25002C15.75 5.9185 15.8817 5.60055 16.1161 5.36613C16.3505 5.13171 16.6685 5.00002 17 5.00002C17.3315 5.00002 17.6495 5.13171 17.8839 5.36613C18.1183 5.60055 18.25 5.9185 18.25 6.25002V13.75C18.25 14.0815 18.1183 14.3995 17.8839 14.6339C17.6495 14.8683 17.3315 15 17 15C16.6685 15 16.3505 14.8683 16.1161 14.6339C15.8817 14.3995 15.75 14.0815 15.75 13.75ZM38.25 6.25002V35C38.25 35.3315 38.1183 35.6495 37.8839 35.8839C37.6495 36.1183 37.3315 36.25 37 36.25C36.6685 36.25 36.3505 36.1183 36.1161 35.8839C35.8817 35.6495 35.75 35.3315 35.75 35V27.5H28.25C27.9185 27.5 27.6005 27.3683 27.3661 27.1339C27.1317 26.8995 27 26.5815 27 26.25C27.0581 23.2558 27.4363 20.2763 28.1281 17.3625C29.6563 11.036 32.5531 6.79533 36.5078 5.10158C36.6979 5.02016 36.9052 4.98716 37.1112 5.00555C37.3171 5.02394 37.5153 5.09314 37.688 5.20695C37.8606 5.32076 38.0023 5.47562 38.1004 5.65766C38.1985 5.8397 38.2499 6.04323 38.25 6.25002ZM35.75 8.42189C30.7235 12.261 29.7391 21.6125 29.5469 25H35.75V8.42189ZM23.2328 6.04533C23.2083 5.8812 23.1514 5.72358 23.0654 5.58168C22.9794 5.43977 22.8659 5.31642 22.7317 5.21881C22.5975 5.12121 22.4452 5.0513 22.2837 5.01317C22.1222 4.97505 21.9547 4.96946 21.791 4.99674C21.6273 5.02403 21.4707 5.08363 21.3303 5.17208C21.1899 5.26052 21.0685 5.37605 20.9732 5.5119C20.8779 5.64776 20.8106 5.80123 20.7752 5.96337C20.7399 6.12551 20.7371 6.29307 20.7672 6.45627L22 13.8485C22 15.1745 21.4732 16.4463 20.5355 17.384C19.5979 18.3217 18.3261 18.8485 17 18.8485C15.6739 18.8485 14.4022 18.3217 13.4645 17.384C12.5268 16.4463 12 15.1745 12 13.8485L13.2313 6.45627C13.2613 6.29307 13.2586 6.12551 13.2233 5.96337C13.1879 5.80123 13.1206 5.64776 13.0253 5.5119C12.93 5.37605 12.8086 5.26052 12.6682 5.17208C12.5278 5.08363 12.3712 5.02403 12.2075 4.99674C12.0438 4.96946 11.8763 4.97505 11.7148 5.01317C11.5533 5.0513 11.401 5.12121 11.2668 5.21881C11.1325 5.31642 11.0191 5.43977 10.9331 5.58168C10.847 5.72358 10.7901 5.8812 10.7656 6.04533L9.51564 13.5453C9.50494 13.613 9.49972 13.6815 9.50001 13.75C9.50251 15.5216 10.1311 17.2353 11.2748 18.5882C12.4185 19.9412 14.0036 20.8464 15.75 21.1438V35C15.75 35.3315 15.8817 35.6495 16.1161 35.8839C16.3505 36.1183 16.6685 36.25 17 36.25C17.3315 36.25 17.6495 36.1183 17.8839 35.8839C18.1183 35.6495 18.25 35.3315 18.25 35V21.1438C19.9964 20.8464 21.5815 19.9412 22.7252 18.5882C23.8689 17.2353 24.4975 15.5216 24.5 13.75C24.4998 13.6814 24.494 13.613 24.4828 13.5453L23.2328 6.04533Z" fill="#858585"/>
<path d="M7.36 54.384C7.30667 54.4747 7.25067 54.5413 7.192 54.584C7.13333 54.6267 7.05867 54.648 6.968 54.648C6.872 54.648 6.76267 54.6053 6.64 54.52C6.51733 54.4293 6.36267 54.3307 6.176 54.224C5.99467 54.112 5.776 54.0133 5.52 53.928C5.264 53.8373 4.95733 53.792 4.6 53.792C4.264 53.792 3.968 53.8373 3.712 53.928C3.46133 54.0133 3.25067 54.1333 3.08 54.288C2.90933 54.4373 2.77867 54.616 2.688 54.824C2.60267 55.0267 2.56 55.248 2.56 55.488C2.56 55.7973 2.63733 56.0533 2.792 56.256C2.952 56.4587 3.16 56.632 3.416 56.776C3.672 56.92 3.96267 57.0453 4.288 57.152C4.61333 57.2587 4.94667 57.3707 5.288 57.488C5.62933 57.6 5.96267 57.7307 6.288 57.88C6.61333 58.0293 6.904 58.2187 7.16 58.448C7.416 58.672 7.62133 58.9493 7.776 59.28C7.936 59.6053 8.016 60.0053 8.016 60.48C8.016 60.9867 7.928 61.4613 7.752 61.904C7.58133 62.3467 7.33067 62.7333 7 63.064C6.66933 63.3947 6.26133 63.656 5.776 63.848C5.296 64.0347 4.74933 64.128 4.136 64.128C3.768 64.128 3.41067 64.0907 3.064 64.016C2.71733 63.9467 2.38933 63.848 2.08 63.72C1.77067 63.5867 1.48 63.4293 1.208 63.248C0.941333 63.0613 0.701333 62.8533 0.488 62.624L0.976 61.808C1.024 61.744 1.08 61.6907 1.144 61.648C1.21333 61.6053 1.29067 61.584 1.376 61.584C1.488 61.584 1.616 61.6427 1.76 61.76C1.90933 61.8773 2.09067 62.008 2.304 62.152C2.52267 62.2907 2.78133 62.4187 3.08 62.536C3.384 62.6533 3.752 62.712 4.184 62.712C4.536 62.712 4.85067 62.6667 5.128 62.576C5.40533 62.48 5.63733 62.3467 5.824 62.176C6.016 62 6.16267 61.7893 6.264 61.544C6.36533 61.2987 6.416 61.0267 6.416 60.728C6.416 60.392 6.33867 60.1173 6.184 59.904C6.02933 59.6907 5.824 59.512 5.568 59.368C5.312 59.224 5.02133 59.1013 4.696 59C4.37067 58.8987 4.03733 58.7947 3.696 58.688C3.35467 58.576 3.02133 58.448 2.696 58.304C2.37067 58.16 2.08 57.9733 1.824 57.744C1.568 57.5093 1.36267 57.2187 1.208 56.872C1.05333 56.52 0.976 56.088 0.976 55.576C0.976 55.1653 1.056 54.768 1.216 54.384C1.376 54 1.608 53.6613 1.912 53.368C2.22133 53.0693 2.6 52.832 3.048 52.656C3.496 52.4747 4.008 52.384 4.584 52.384C5.22933 52.384 5.82133 52.488 6.36 52.696C6.904 52.8987 7.376 53.192 7.776 53.576L7.36 54.384ZM11.0913 57C11.2673 56.8133 11.4513 56.6427 11.6433 56.488C11.8353 56.3333 12.0379 56.2027 12.2513 56.096C12.4699 55.984 12.7019 55.8987 12.9473 55.84C13.1979 55.776 13.4646 55.744 13.7473 55.744C14.1953 55.744 14.5873 55.8187 14.9233 55.968C15.2646 56.1173 15.5499 56.328 15.7793 56.6C16.0086 56.8667 16.1819 57.1893 16.2993 57.568C16.4166 57.9467 16.4753 58.3653 16.4753 58.824V64H14.9073V58.824C14.9073 58.2427 14.7739 57.792 14.5073 57.472C14.2406 57.1467 13.8326 56.984 13.2833 56.984C12.8833 56.984 12.5073 57.08 12.1553 57.272C11.8086 57.4587 11.4859 57.7147 11.1873 58.04V64H9.62725V55.872H10.5633C10.7819 55.872 10.9179 55.976 10.9713 56.184L11.0913 57ZM22.9484 60.392C22.3137 60.4133 21.775 60.464 21.3324 60.544C20.8897 60.6187 20.5297 60.72 20.2524 60.848C19.975 60.976 19.775 61.128 19.6524 61.304C19.5297 61.4747 19.4684 61.6667 19.4684 61.88C19.4684 62.0827 19.5004 62.2587 19.5644 62.408C19.6337 62.552 19.7244 62.672 19.8364 62.768C19.9537 62.8587 20.0897 62.9253 20.2444 62.968C20.399 63.0107 20.567 63.032 20.7484 63.032C20.9884 63.032 21.207 63.008 21.4044 62.96C21.607 62.912 21.7964 62.8453 21.9724 62.76C22.1484 62.6693 22.3164 62.56 22.4764 62.432C22.6364 62.304 22.7937 62.1573 22.9484 61.992V60.392ZM18.3724 57.008C18.8257 56.576 19.3164 56.2533 19.8444 56.04C20.3777 55.8267 20.9617 55.72 21.5964 55.72C22.0604 55.72 22.471 55.7973 22.8284 55.952C23.1857 56.1013 23.487 56.312 23.7324 56.584C23.9777 56.856 24.1617 57.1813 24.2844 57.56C24.4124 57.9387 24.4764 58.3573 24.4764 58.816V64H23.7804C23.6257 64 23.5084 63.976 23.4284 63.928C23.3484 63.8747 23.2844 63.7787 23.2364 63.64L23.0684 62.928C22.8604 63.12 22.655 63.2907 22.4524 63.44C22.2497 63.584 22.0364 63.7093 21.8124 63.816C21.5937 63.9173 21.359 63.9947 21.1084 64.048C20.8577 64.1013 20.5804 64.128 20.2764 64.128C19.9564 64.128 19.655 64.0853 19.3724 64C19.095 63.9093 18.8524 63.7733 18.6444 63.592C18.4364 63.4107 18.271 63.184 18.1484 62.912C18.031 62.64 17.9724 62.3227 17.9724 61.96C17.9724 61.64 18.0577 61.3333 18.2284 61.04C18.4044 60.7413 18.687 60.4747 19.0764 60.24C19.471 60.0053 19.983 59.8133 20.6124 59.664C21.247 59.5147 22.0257 59.4293 22.9484 59.408V58.816C22.9484 58.2027 22.8177 57.744 22.5564 57.44C22.295 57.136 21.911 56.984 21.4044 56.984C21.063 56.984 20.775 57.0267 20.5404 57.112C20.311 57.1973 20.111 57.2933 19.9404 57.4C19.775 57.5013 19.6284 57.5947 19.5004 57.68C19.3777 57.7653 19.2497 57.808 19.1164 57.808C19.0097 57.808 18.9164 57.7787 18.8364 57.72C18.7617 57.6613 18.7004 57.592 18.6524 57.512L18.3724 57.008ZM32.2608 57.392C32.2128 57.4507 32.1648 57.4987 32.1168 57.536C32.0741 57.568 32.0101 57.584 31.9248 57.584C31.8394 57.584 31.7488 57.552 31.6528 57.488C31.5621 57.4187 31.4448 57.3467 31.3008 57.272C31.1621 57.192 30.9914 57.12 30.7888 57.056C30.5914 56.9867 30.3461 56.952 30.0528 56.952C29.6688 56.952 29.3301 57.0213 29.0368 57.16C28.7434 57.2987 28.4981 57.496 28.3008 57.752C28.1088 58.008 27.9621 58.32 27.8608 58.688C27.7594 59.056 27.7088 59.4693 27.7088 59.928C27.7088 60.4027 27.7621 60.8267 27.8688 61.2C27.9754 61.568 28.1274 61.88 28.3248 62.136C28.5221 62.3867 28.7621 62.5787 29.0448 62.712C29.3274 62.84 29.6421 62.904 29.9887 62.904C30.3248 62.904 30.6021 62.864 30.8208 62.784C31.0394 62.6987 31.2208 62.608 31.3648 62.512C31.5088 62.416 31.6288 62.328 31.7248 62.248C31.8208 62.1627 31.9194 62.12 32.0208 62.12C32.1488 62.12 32.2474 62.168 32.3168 62.264L32.7648 62.84C32.5781 63.0693 32.3674 63.264 32.1328 63.424C31.9034 63.584 31.6581 63.7147 31.3968 63.816C31.1354 63.9173 30.8608 63.992 30.5728 64.04C30.2901 64.088 30.0021 64.112 29.7088 64.112C29.2021 64.112 28.7274 64.0187 28.2848 63.832C27.8474 63.6453 27.4661 63.3733 27.1408 63.016C26.8208 62.6587 26.5674 62.2213 26.3808 61.704C26.1941 61.1813 26.1008 60.5893 26.1008 59.928C26.1008 59.3253 26.1834 58.768 26.3488 58.256C26.5194 57.744 26.7674 57.304 27.0928 56.936C27.4234 56.5627 27.8288 56.272 28.3088 56.064C28.7888 55.8507 29.3381 55.744 29.9568 55.744C30.5381 55.744 31.0501 55.8373 31.4928 56.024C31.9354 56.2107 32.3301 56.4747 32.6768 56.816L32.2608 57.392ZM35.781 52.192V59.096H36.149C36.261 59.096 36.3543 59.08 36.429 59.048C36.5037 59.016 36.581 58.952 36.661 58.856L39.093 56.176C39.1677 56.0747 39.2503 56 39.341 55.952C39.4317 55.8987 39.5463 55.872 39.685 55.872H41.109L38.237 59.016C38.0823 59.2133 37.917 59.3653 37.741 59.472C37.8423 59.5413 37.9303 59.6213 38.005 59.712C38.085 59.8027 38.1623 59.9013 38.237 60.008L41.293 64H39.893C39.765 64 39.653 63.9787 39.557 63.936C39.4663 63.8933 39.3837 63.816 39.309 63.704L36.797 60.44C36.717 60.3173 36.637 60.24 36.557 60.208C36.477 60.1707 36.357 60.152 36.197 60.152H35.781V64H34.221V52.192H35.781ZM47.2474 57.272C47.2047 57.3413 47.1594 57.392 47.1114 57.424C47.0634 57.4507 47.002 57.464 46.9274 57.464C46.842 57.464 46.746 57.4347 46.6394 57.376C46.538 57.3173 46.4127 57.2533 46.2634 57.184C46.1194 57.1147 45.9487 57.0507 45.7514 56.992C45.554 56.9333 45.3194 56.904 45.0474 56.904C44.8234 56.904 44.618 56.9333 44.4314 56.992C44.25 57.0453 44.0954 57.1227 43.9674 57.224C43.8394 57.32 43.7407 57.4373 43.6714 57.576C43.602 57.7093 43.5674 57.8533 43.5674 58.008C43.5674 58.2107 43.626 58.3787 43.7434 58.512C43.866 58.6453 44.0234 58.76 44.2154 58.856C44.4127 58.952 44.634 59.04 44.8794 59.12C45.13 59.1947 45.3834 59.2747 45.6394 59.36C45.9007 59.4453 46.154 59.544 46.3994 59.656C46.65 59.7627 46.8714 59.8987 47.0634 60.064C47.2607 60.224 47.418 60.4187 47.5354 60.648C47.658 60.8773 47.7194 61.1573 47.7194 61.488C47.7194 61.8667 47.65 62.2187 47.5114 62.544C47.378 62.864 47.178 63.1413 46.9114 63.376C46.65 63.6107 46.3247 63.7947 45.9354 63.928C45.546 64.0613 45.1007 64.128 44.5994 64.128C44.0394 64.128 43.522 64.0347 43.0474 63.848C42.5727 63.6613 42.1754 63.424 41.8554 63.136L42.2234 62.536C42.266 62.4613 42.3194 62.4053 42.3834 62.368C42.4474 62.3253 42.5327 62.304 42.6394 62.304C42.7407 62.304 42.8447 62.3413 42.9514 62.416C43.058 62.4907 43.186 62.5733 43.3354 62.664C43.4847 62.7493 43.666 62.8293 43.8794 62.904C44.0927 62.9733 44.3594 63.008 44.6794 63.008C44.946 63.008 45.178 62.976 45.3754 62.912C45.5727 62.8427 45.7354 62.752 45.8634 62.64C45.9967 62.5227 46.0954 62.3893 46.1594 62.24C46.2234 62.0907 46.2554 61.9333 46.2554 61.768C46.2554 61.5547 46.194 61.3787 46.0714 61.24C45.954 61.096 45.7967 60.9733 45.5994 60.872C45.4074 60.7707 45.186 60.6827 44.9354 60.608C44.6847 60.5333 44.4287 60.4533 44.1674 60.368C43.906 60.2827 43.65 60.184 43.3994 60.072C43.1487 59.96 42.9247 59.8187 42.7274 59.648C42.5354 59.4773 42.378 59.2693 42.2554 59.024C42.138 58.7787 42.0794 58.48 42.0794 58.128C42.0794 57.8133 42.1434 57.512 42.2714 57.224C42.4047 56.936 42.594 56.6827 42.8394 56.464C43.09 56.2453 43.3967 56.072 43.7594 55.944C44.1274 55.8107 44.546 55.744 45.0154 55.744C45.554 55.744 46.0394 55.8293 46.4714 56C46.9087 56.1707 47.282 56.4053 47.5914 56.704L47.2474 57.272Z" fill="#858585"/>
</svg>