<svg width="73" height="69" viewBox="0 0 73 69" fill="none" xmlns="http://www.w3.org/2000/svg">
<path d="M43.6875 7.46083C41.7575 5.23182 39.5852 3.22466 37.2109 1.47646C37.0008 1.32922 36.7504 1.25024 36.4937 1.25024C36.2371 1.25024 35.9867 1.32922 35.7766 1.47646C33.4066 3.22539 31.2386 5.23253 29.3125 7.46083C25.0172 12.3936 22.75 17.5936 22.75 22.4999C22.75 26.1466 24.1987 29.644 26.7773 32.2226C29.3559 34.8012 32.8533 36.2499 36.5 36.2499C40.1467 36.2499 43.6441 34.8012 46.2227 32.2226C48.8013 29.644 50.25 26.1466 50.25 22.4999C50.25 17.5936 47.9828 12.3936 43.6875 7.46083ZM36.5 33.7499C33.5173 33.7466 30.6578 32.5603 28.5487 30.4512C26.4396 28.3421 25.2533 25.4826 25.25 22.4999C25.25 13.5577 33.9172 6.09364 36.5 4.06239C39.0828 6.09364 47.75 13.5546 47.75 22.4999C47.7467 25.4826 46.5604 28.3421 44.4513 30.4512C42.3422 32.5603 39.4827 33.7466 36.5 33.7499ZM45.2328 23.9593C44.9087 25.7697 44.0376 27.4375 42.7369 28.7379C41.4363 30.0383 39.7684 30.909 37.9578 31.2327C37.8891 31.2437 37.8196 31.2495 37.75 31.2499C37.4364 31.2498 37.1344 31.1319 36.9037 30.9195C36.673 30.7072 36.5306 30.4159 36.5046 30.1034C36.4787 29.7909 36.5711 29.4801 36.7636 29.2326C36.956 28.985 37.2345 28.8189 37.5437 28.7671C40.1328 28.3311 42.3297 26.1343 42.7687 23.5405C42.8243 23.2136 43.0074 22.922 43.2779 22.7301C43.5483 22.5382 43.884 22.4616 44.2109 22.5171C44.5379 22.5726 44.8294 22.7558 45.0213 23.0262C45.2133 23.2967 45.2899 23.6323 45.2344 23.9593H45.2328Z" fill="#858585"/>
<path d="M7.36 54.384C7.30667 54.4747 7.25067 54.5413 7.192 54.584C7.13333 54.6267 7.05867 54.648 6.968 54.648C6.872 54.648 6.76267 54.6053 6.64 54.52C6.51733 54.4293 6.36267 54.3307 6.176 54.224C5.99467 54.112 5.776 54.0133 5.52 53.928C5.264 53.8373 4.95733 53.792 4.6 53.792C4.264 53.792 3.968 53.8373 3.712 53.928C3.46133 54.0133 3.25067 54.1333 3.08 54.288C2.90933 54.4373 2.77867 54.616 2.688 54.824C2.60267 55.0267 2.56 55.248 2.56 55.488C2.56 55.7973 2.63733 56.0533 2.792 56.256C2.952 56.4587 3.16 56.632 3.416 56.776C3.672 56.92 3.96267 57.0453 4.288 57.152C4.61333 57.2587 4.94667 57.3707 5.288 57.488C5.62933 57.6 5.96267 57.7307 6.288 57.88C6.61333 58.0293 6.904 58.2187 7.16 58.448C7.416 58.672 7.62133 58.9493 7.776 59.28C7.936 59.6053 8.016 60.0053 8.016 60.48C8.016 60.9867 7.928 61.4613 7.752 61.904C7.58133 62.3467 7.33067 62.7333 7 63.064C6.66933 63.3947 6.26133 63.656 5.776 63.848C5.296 64.0347 4.74933 64.128 4.136 64.128C3.768 64.128 3.41067 64.0907 3.064 64.016C2.71733 63.9467 2.38933 63.848 2.08 63.72C1.77067 63.5867 1.48 63.4293 1.208 63.248C0.941333 63.0613 0.701333 62.8533 0.488 62.624L0.976 61.808C1.024 61.744 1.08 61.6907 1.144 61.648C1.21333 61.6053 1.29067 61.584 1.376 61.584C1.488 61.584 1.616 61.6427 1.76 61.76C1.90933 61.8773 2.09067 62.008 2.304 62.152C2.52267 62.2907 2.78133 62.4187 3.08 62.536C3.384 62.6533 3.752 62.712 4.184 62.712C4.536 62.712 4.85067 62.6667 5.128 62.576C5.40533 62.48 5.63733 62.3467 5.824 62.176C6.016 62 6.16267 61.7893 6.264 61.544C6.36533 61.2987 6.416 61.0267 6.416 60.728C6.416 60.392 6.33867 60.1173 6.184 59.904C6.02933 59.6907 5.824 59.512 5.568 59.368C5.312 59.224 5.02133 59.1013 4.696 59C4.37067 58.8987 4.03733 58.7947 3.696 58.688C3.35467 58.576 3.02133 58.448 2.696 58.304C2.37067 58.16 2.08 57.9733 1.824 57.744C1.568 57.5093 1.36267 57.2187 1.208 56.872C1.05333 56.52 0.976 56.088 0.976 55.576C0.976 55.1653 1.056 54.768 1.216 54.384C1.376 54 1.608 53.6613 1.912 53.368C2.22133 53.0693 2.6 52.832 3.048 52.656C3.496 52.4747 4.008 52.384 4.584 52.384C5.22933 52.384 5.82133 52.488 6.36 52.696C6.904 52.8987 7.376 53.192 7.776 53.576L7.36 54.384ZM13.2163 55.744C13.8136 55.744 14.3523 55.8427 14.8323 56.04C15.3176 56.232 15.7283 56.512 16.0643 56.88C16.4056 57.2427 16.6669 57.6827 16.8483 58.2C17.0296 58.712 17.1203 59.288 17.1203 59.928C17.1203 60.568 17.0296 61.1467 16.8483 61.664C16.6669 62.1813 16.4056 62.6213 16.0643 62.984C15.7283 63.3467 15.3176 63.6267 14.8323 63.824C14.3523 64.016 13.8136 64.112 13.2163 64.112C12.6136 64.112 12.0696 64.016 11.5843 63.824C11.1043 63.6267 10.6936 63.3467 10.3523 62.984C10.0109 62.6213 9.74692 62.1813 9.56025 61.664C9.37892 61.1467 9.28825 60.568 9.28825 59.928C9.28825 59.288 9.37892 58.712 9.56025 58.2C9.74692 57.6827 10.0109 57.2427 10.3523 56.88C10.6936 56.512 11.1043 56.232 11.5843 56.04C12.0696 55.8427 12.6136 55.744 13.2163 55.744ZM13.2163 62.896C13.9843 62.896 14.5576 62.6373 14.9363 62.12C15.3149 61.6027 15.5043 60.8747 15.5043 59.936C15.5043 58.9973 15.3149 58.2693 14.9363 57.752C14.5576 57.2293 13.9843 56.968 13.2163 56.968C12.4376 56.968 11.8563 57.2293 11.4723 57.752C11.0936 58.2693 10.9043 58.9973 10.9043 59.936C10.9043 60.8747 11.0936 61.6027 11.4723 62.12C11.8563 62.6373 12.4376 62.896 13.2163 62.896ZM25.9861 57.136V61.896C25.9861 62.216 26.0635 62.456 26.2181 62.616C26.3728 62.7707 26.5755 62.848 26.8261 62.848C26.9701 62.848 27.0928 62.8293 27.1941 62.792C27.3008 62.7547 27.3915 62.7147 27.4661 62.672C27.5408 62.624 27.6048 62.5813 27.6581 62.544C27.7115 62.5067 27.7595 62.488 27.8021 62.488C27.8501 62.488 27.8901 62.5013 27.9221 62.528C27.9541 62.5493 27.9861 62.5867 28.0181 62.64L28.4821 63.392C28.2261 63.6267 27.9195 63.808 27.5621 63.936C27.2101 64.064 26.8448 64.128 26.4661 64.128C25.8101 64.128 25.3035 63.944 24.9461 63.576C24.5941 63.208 24.4181 62.6827 24.4181 62V57.136H20.7781V64H19.2101V57.152L18.3621 57.048C18.2395 57.0213 18.1381 56.9787 18.0581 56.92C17.9835 56.856 17.9461 56.7653 17.9461 56.648V56H19.2101V55.264C19.2101 54.8 19.2768 54.3867 19.4101 54.024C19.5435 53.6613 19.7328 53.3547 19.9781 53.104C20.2288 52.848 20.5275 52.656 20.8741 52.528C21.2261 52.3947 21.6208 52.328 22.0581 52.328C22.4261 52.328 22.7648 52.3813 23.0741 52.488L23.0421 53.272C23.0368 53.3413 23.0155 53.3947 22.9781 53.432C22.9408 53.464 22.8901 53.488 22.8261 53.504C22.7675 53.52 22.6928 53.5307 22.6021 53.536C22.5168 53.536 22.4235 53.536 22.3221 53.536C22.0821 53.536 21.8635 53.5653 21.6661 53.624C21.4688 53.6827 21.3008 53.7813 21.1621 53.92C21.0235 54.0587 20.9168 54.2427 20.8421 54.472C20.7675 54.696 20.7301 54.976 20.7301 55.312V56H24.4741L24.8341 53.56C24.8501 53.4693 24.8875 53.4 24.9461 53.352C25.0101 53.2987 25.0901 53.272 25.1861 53.272H25.9861V56H28.2901V57.136H25.9861ZM44.7438 55.872L42.1278 64H40.8798C40.7304 64 40.6291 63.9013 40.5758 63.704L38.8638 58.408C38.8211 58.2747 38.7838 58.144 38.7518 58.016C38.7198 57.8827 38.6904 57.7493 38.6638 57.616C38.6158 57.8933 38.5491 58.1627 38.4638 58.424L36.7278 63.704C36.6744 63.9013 36.5598 64 36.3837 64H35.1998L32.5758 55.872H33.8078C33.9304 55.872 34.0318 55.9013 34.1118 55.96C34.1971 56.0187 34.2531 56.0933 34.2798 56.184L35.7438 61.176C35.7918 61.3787 35.8344 61.576 35.8718 61.768C35.9091 61.96 35.9438 62.152 35.9758 62.344C36.0238 62.152 36.0744 61.96 36.1278 61.768C36.1864 61.576 36.2451 61.3787 36.3038 61.176L37.9278 56.152C37.9544 56.0613 38.0051 55.9893 38.0798 55.936C38.1544 55.8773 38.2451 55.848 38.3518 55.848H39.0318C39.1491 55.848 39.2451 55.8773 39.3198 55.936C39.3998 55.9893 39.4531 56.0613 39.4798 56.152L41.0638 61.176C41.1224 61.3787 41.1784 61.5787 41.2318 61.776C41.2851 61.968 41.3331 62.1627 41.3758 62.36C41.4078 62.168 41.4451 61.976 41.4878 61.784C41.5304 61.5867 41.5784 61.384 41.6318 61.176L43.1198 56.184C43.1464 56.0933 43.1998 56.0187 43.2798 55.96C43.3651 55.9013 43.4611 55.872 43.5678 55.872H44.7438ZM50.339 60.392C49.7043 60.4133 49.1657 60.464 48.723 60.544C48.2803 60.6187 47.9203 60.72 47.643 60.848C47.3657 60.976 47.1657 61.128 47.043 61.304C46.9203 61.4747 46.859 61.6667 46.859 61.88C46.859 62.0827 46.891 62.2587 46.955 62.408C47.0243 62.552 47.115 62.672 47.227 62.768C47.3443 62.8587 47.4803 62.9253 47.635 62.968C47.7897 63.0107 47.9577 63.032 48.139 63.032C48.379 63.032 48.5977 63.008 48.795 62.96C48.9977 62.912 49.187 62.8453 49.363 62.76C49.539 62.6693 49.707 62.56 49.867 62.432C50.027 62.304 50.1843 62.1573 50.339 61.992V60.392ZM45.763 57.008C46.2163 56.576 46.707 56.2533 47.235 56.04C47.7683 55.8267 48.3523 55.72 48.987 55.72C49.451 55.72 49.8617 55.7973 50.219 55.952C50.5763 56.1013 50.8777 56.312 51.123 56.584C51.3683 56.856 51.5523 57.1813 51.675 57.56C51.803 57.9387 51.867 58.3573 51.867 58.816V64H51.171C51.0163 64 50.899 63.976 50.819 63.928C50.739 63.8747 50.675 63.7787 50.627 63.64L50.459 62.928C50.251 63.12 50.0457 63.2907 49.843 63.44C49.6403 63.584 49.427 63.7093 49.203 63.816C48.9843 63.9173 48.7497 63.9947 48.499 64.048C48.2483 64.1013 47.971 64.128 47.667 64.128C47.347 64.128 47.0457 64.0853 46.763 64C46.4857 63.9093 46.243 63.7733 46.035 63.592C45.827 63.4107 45.6617 63.184 45.539 62.912C45.4217 62.64 45.363 62.3227 45.363 61.96C45.363 61.64 45.4483 61.3333 45.619 61.04C45.795 60.7413 46.0777 60.4747 46.467 60.24C46.8617 60.0053 47.3737 59.8133 48.003 59.664C48.6377 59.5147 49.4163 59.4293 50.339 59.408V58.816C50.339 58.2027 50.2083 57.744 49.947 57.44C49.6857 57.136 49.3017 56.984 48.795 56.984C48.4537 56.984 48.1657 57.0267 47.931 57.112C47.7017 57.1973 47.5017 57.2933 47.331 57.4C47.1657 57.5013 47.019 57.5947 46.891 57.68C46.7683 57.7653 46.6403 57.808 46.507 57.808C46.4003 57.808 46.307 57.7787 46.227 57.72C46.1523 57.6613 46.091 57.592 46.043 57.512L45.763 57.008ZM56.39 64.128C55.734 64.128 55.2273 63.944 54.87 63.576C54.518 63.208 54.342 62.6827 54.342 62V57.136H53.398C53.3073 57.136 53.23 57.1093 53.166 57.056C53.1073 56.9973 53.078 56.912 53.078 56.8V56.168L54.398 55.984L54.75 53.56C54.7713 53.4693 54.8113 53.4 54.87 53.352C54.934 53.2987 55.014 53.272 55.11 53.272H55.902V56H58.206V57.136H55.902V61.896C55.902 62.216 55.9793 62.456 56.134 62.616C56.294 62.7707 56.4967 62.848 56.742 62.848C56.886 62.848 57.0087 62.8293 57.11 62.792C57.2167 62.7547 57.3073 62.7147 57.382 62.672C57.4567 62.624 57.5207 62.5813 57.574 62.544C57.6273 62.5067 57.6753 62.488 57.718 62.488C57.7713 62.488 57.8113 62.5013 57.838 62.528C57.87 62.5493 57.902 62.5867 57.934 62.64L58.398 63.392C58.142 63.6267 57.838 63.808 57.486 63.936C57.134 64.064 56.7687 64.128 56.39 64.128ZM64.98 59.032C64.98 58.7227 64.9347 58.4373 64.844 58.176C64.7587 57.9147 64.6307 57.688 64.46 57.496C64.2893 57.304 64.0813 57.1547 63.836 57.048C63.5907 56.9413 63.308 56.888 62.988 56.888C62.332 56.888 61.8147 57.0773 61.436 57.456C61.0627 57.8347 60.8253 58.36 60.724 59.032H64.98ZM66.268 62.84C66.076 63.064 65.8547 63.2587 65.604 63.424C65.3533 63.584 65.0867 63.7147 64.804 63.816C64.5213 63.9173 64.228 63.992 63.924 64.04C63.6253 64.088 63.3293 64.112 63.036 64.112C62.476 64.112 61.956 64.0187 61.476 63.832C61.0013 63.64 60.588 63.3627 60.236 63C59.8893 62.632 59.6173 62.1787 59.42 61.64C59.228 61.096 59.132 60.472 59.132 59.768C59.132 59.2027 59.22 58.6773 59.396 58.192C59.572 57.7013 59.8227 57.2747 60.148 56.912C60.4787 56.5493 60.8813 56.264 61.356 56.056C61.8307 55.848 62.364 55.744 62.956 55.744C63.452 55.744 63.908 55.8267 64.324 55.992C64.7453 56.152 65.108 56.3867 65.412 56.696C65.716 57.0053 65.9533 57.3867 66.124 57.84C66.3 58.2933 66.388 58.8107 66.388 59.392C66.388 59.632 66.3613 59.7947 66.308 59.88C66.2547 59.96 66.156 60 66.012 60H60.684C60.7 60.4853 60.7693 60.9093 60.892 61.272C61.0147 61.6293 61.1827 61.928 61.396 62.168C61.6147 62.408 61.8733 62.5867 62.172 62.704C62.4707 62.8213 62.804 62.88 63.172 62.88C63.5187 62.88 63.8173 62.84 64.068 62.76C64.324 62.68 64.5427 62.5947 64.724 62.504C64.9107 62.408 65.0653 62.32 65.188 62.24C65.316 62.16 65.428 62.12 65.524 62.12C65.652 62.12 65.7507 62.168 65.82 62.264L66.268 62.84ZM69.5368 57.432C69.7981 56.8987 70.1128 56.48 70.4808 56.176C70.8488 55.872 71.2914 55.72 71.8088 55.72C71.9848 55.72 72.1501 55.7413 72.3048 55.784C72.4648 55.8213 72.6034 55.88 72.7208 55.96L72.6168 57.136C72.5794 57.28 72.4914 57.352 72.3528 57.352C72.2781 57.352 72.1661 57.3387 72.0168 57.312C71.8674 57.28 71.7074 57.264 71.5368 57.264C71.2861 57.264 71.0648 57.3013 70.8728 57.376C70.6808 57.4453 70.5074 57.552 70.3528 57.696C70.2034 57.8347 70.0701 58.008 69.9528 58.216C69.8354 58.4187 69.7261 58.6507 69.6248 58.912V64H68.0648V55.872H68.9608C69.1314 55.872 69.2461 55.904 69.3048 55.968C69.3688 56.0267 69.4141 56.1333 69.4408 56.288L69.5368 57.432Z" fill="#858585"/>
</svg>
