<svg width="40" height="69" viewBox="0 0 40 69" fill="none" xmlns="http://www.w3.org/2000/svg">
<path d="M39.8922 30.7422L29.8922 8.24219C29.794 8.02127 29.6338 7.83358 29.4311 7.70185C29.2283 7.57012 28.9918 7.5 28.75 7.5H11.25C11.0103 7.50039 10.7758 7.56968 10.5744 7.69961C10.373 7.82953 10.2132 8.01462 10.114 8.23281C10.1136 8.23592 10.1136 8.23908 10.114 8.24219V8.26094L0.107798 30.7422C0.023186 30.9325 -0.0125308 31.1409 0.00389262 31.3486C0.020316 31.5562 0.0883591 31.7564 0.201839 31.9311C0.31532 32.1057 0.47064 32.2492 0.653688 32.3486C0.836737 32.448 1.04171 32.5 1.24999 32.5H38.75C38.9583 32.5 39.1632 32.448 39.3463 32.3486C39.5293 32.2492 39.6847 32.1057 39.7981 31.9311C39.9116 31.7564 39.9797 31.5562 39.9961 31.3486C40.0125 31.1409 39.9768 30.9325 39.8922 30.7422ZM9.99999 30H3.17342L9.99999 14.6406V30ZM12.5 30V14.6406L19.3265 30H12.5ZM22.0625 30L13.1734 10H27.9375L36.8266 30H22.0625Z" fill="#858585"/>
<path d="M13.748 53.936H10.1V64H8.404V53.936H4.74V52.512H13.748V53.936ZM18.5269 59.032C18.5269 58.7227 18.4815 58.4373 18.3909 58.176C18.3055 57.9147 18.1775 57.688 18.0069 57.496C17.8362 57.304 17.6282 57.1547 17.3829 57.048C17.1375 56.9413 16.8549 56.888 16.5349 56.888C15.8789 56.888 15.3615 57.0773 14.9829 57.456C14.6095 57.8347 14.3722 58.36 14.2709 59.032H18.5269ZM19.8149 62.84C19.6229 63.064 19.4015 63.2587 19.1509 63.424C18.9002 63.584 18.6335 63.7147 18.3509 63.816C18.0682 63.9173 17.7749 63.992 17.4709 64.04C17.1722 64.088 16.8762 64.112 16.5829 64.112C16.0229 64.112 15.5029 64.0187 15.0229 63.832C14.5482 63.64 14.1349 63.3627 13.7829 63C13.4362 62.632 13.1642 62.1787 12.9669 61.64C12.7749 61.096 12.6789 60.472 12.6789 59.768C12.6789 59.2027 12.7669 58.6773 12.9429 58.192C13.1189 57.7013 13.3695 57.2747 13.6949 56.912C14.0255 56.5493 14.4282 56.264 14.9029 56.056C15.3775 55.848 15.9109 55.744 16.5029 55.744C16.9989 55.744 17.4549 55.8267 17.8709 55.992C18.2922 56.152 18.6549 56.3867 18.9589 56.696C19.2629 57.0053 19.5002 57.3867 19.6709 57.84C19.8469 58.2933 19.9349 58.8107 19.9349 59.392C19.9349 59.632 19.9082 59.7947 19.8549 59.88C19.8015 59.96 19.7029 60 19.5589 60H14.2309C14.2469 60.4853 14.3162 60.9093 14.4389 61.272C14.5615 61.6293 14.7295 61.928 14.9429 62.168C15.1615 62.408 15.4202 62.5867 15.7189 62.704C16.0175 62.8213 16.3509 62.88 16.7189 62.88C17.0655 62.88 17.3642 62.84 17.6149 62.76C17.8709 62.68 18.0895 62.5947 18.2709 62.504C18.4575 62.408 18.6122 62.32 18.7349 62.24C18.8629 62.16 18.9749 62.12 19.0709 62.12C19.1989 62.12 19.2975 62.168 19.3669 62.264L19.8149 62.84ZM23.0756 57C23.2516 56.8133 23.4356 56.6427 23.6276 56.488C23.8196 56.3333 24.0223 56.2027 24.2356 56.096C24.4543 55.984 24.6863 55.8987 24.9316 55.84C25.1823 55.776 25.449 55.744 25.7316 55.744C26.1796 55.744 26.5716 55.8187 26.9076 55.968C27.249 56.1173 27.5343 56.328 27.7636 56.6C27.993 56.8667 28.1663 57.1893 28.2836 57.568C28.401 57.9467 28.4596 58.3653 28.4596 58.824V64H26.8916V58.824C26.8916 58.2427 26.7583 57.792 26.4916 57.472C26.225 57.1467 25.817 56.984 25.2676 56.984C24.8676 56.984 24.4916 57.08 24.1396 57.272C23.793 57.4587 23.4703 57.7147 23.1716 58.04V64H21.6116V55.872H22.5476C22.7663 55.872 22.9023 55.976 22.9556 56.184L23.0756 57ZM32.9994 64.128C32.3434 64.128 31.8367 63.944 31.4794 63.576C31.1274 63.208 30.9514 62.6827 30.9514 62V57.136H30.0074C29.9167 57.136 29.8394 57.1093 29.7754 57.056C29.7167 56.9973 29.6874 56.912 29.6874 56.8V56.168L31.0074 55.984L31.3594 53.56C31.3807 53.4693 31.4207 53.4 31.4794 53.352C31.5434 53.2987 31.6234 53.272 31.7194 53.272H32.5114V56H34.8154V57.136H32.5114V61.896C32.5114 62.216 32.5887 62.456 32.7434 62.616C32.9034 62.7707 33.106 62.848 33.3514 62.848C33.4954 62.848 33.618 62.8293 33.7194 62.792C33.826 62.7547 33.9167 62.7147 33.9914 62.672C34.066 62.624 34.13 62.5813 34.1834 62.544C34.2367 62.5067 34.2847 62.488 34.3274 62.488C34.3807 62.488 34.4207 62.5013 34.4474 62.528C34.4794 62.5493 34.5114 62.5867 34.5434 62.64L35.0074 63.392C34.7514 63.6267 34.4474 63.808 34.0954 63.936C33.7434 64.064 33.378 64.128 32.9994 64.128Z" fill="#858585"/>
</svg>