
<svg width="12" height="23" viewBox="0 0 12 23" fill="none" xmlns="http://www.w3.org/2000/svg">
<path d="M6.75 13.8438V7.75C6.75 7.55109 6.67098 7.36032 6.53033 7.21967C6.38968 7.07902 6.19891 7 6 7C5.80109 7 5.61032 7.07902 5.46967 7.21967C5.32902 7.36032 5.25 7.55109 5.25 7.75V13.8438C4.54301 14.0263 3.92686 14.4604 3.51705 15.0648C3.10724 15.6691 2.93191 16.4021 3.02391 17.1265C3.11592 17.8509 3.46895 18.5168 4.01683 18.9995C4.56471 19.4822 5.26982 19.7485 6 19.7485C6.73018 19.7485 7.4353 19.4822 7.98317 18.9995C8.53105 18.5168 8.88408 17.8509 8.97609 17.1265C9.0681 16.4021 8.89276 15.6691 8.48295 15.0648C8.07314 14.4604 7.45699 14.0263 6.75 13.8438ZM6 18.25C5.70333 18.25 5.41332 18.162 5.16665 17.9972C4.91997 17.8324 4.72771 17.5981 4.61418 17.324C4.50065 17.0499 4.47094 16.7483 4.52882 16.4574C4.5867 16.1664 4.72956 15.8991 4.93934 15.6893C5.14912 15.4796 5.41639 15.3367 5.70737 15.2788C5.99834 15.2209 6.29994 15.2507 6.57403 15.3642C6.84812 15.4777 7.08238 15.67 7.2472 15.9166C7.41203 16.1633 7.5 16.4533 7.5 16.75C7.5 17.1478 7.34197 17.5294 7.06066 17.8107C6.77936 18.092 6.39783 18.25 6 18.25ZM9.75 12.0625V4C9.75 3.00544 9.35491 2.05161 8.65165 1.34835C7.94839 0.645088 6.99456 0.25 6 0.25C5.00544 0.25 4.05161 0.645088 3.34835 1.34835C2.64509 2.05161 2.25 3.00544 2.25 4V12.0625C1.27961 12.8394 0.574494 13.8986 0.232094 15.0936C-0.110306 16.2886 -0.0730833 17.5605 0.338618 18.7334C0.75032 19.9063 1.51617 20.9224 2.53034 21.6413C3.5445 22.3601 4.75691 22.7463 6 22.7463C7.24309 22.7463 8.4555 22.3601 9.46966 21.6413C10.4838 20.9224 11.2497 19.9063 11.6614 18.7334C12.0731 17.5605 12.1103 16.2886 11.7679 15.0936C11.4255 13.8986 10.7204 12.8394 9.75 12.0625ZM6 21.25C5.04182 21.2501 4.10863 20.9443 3.3363 20.3772C2.56396 19.8101 1.9928 19.0113 1.70598 18.097C1.41915 17.1828 1.43164 16.2009 1.74161 15.2942C2.05159 14.3876 2.64287 13.6035 3.42938 13.0563C3.5289 12.9868 3.61007 12.8942 3.66592 12.7864C3.72176 12.6786 3.75062 12.5589 3.75 12.4375V4C3.75 3.40326 3.98705 2.83097 4.40901 2.40901C4.83097 1.98705 5.40326 1.75 6 1.75C6.59674 1.75 7.16903 1.98705 7.59099 2.40901C8.01295 2.83097 8.25 3.40326 8.25 4V12.4375C8.24999 12.5583 8.27913 12.6772 8.33495 12.7843C8.39077 12.8914 8.47162 12.9834 8.57063 13.0525C9.35877 13.5992 9.9516 14.3835 10.2626 15.2908C10.5737 16.1982 10.5866 17.1812 10.2996 18.0965C10.0126 19.0117 9.44063 19.8113 8.66717 20.3786C7.8937 20.9459 6.9592 21.2512 6 21.25Z" fill="black"/>
</svg>
