<svg width="40" height="69" viewBox="0 0 40 69" fill="none" xmlns="http://www.w3.org/2000/svg">
<path d="M18.75 10C18.75 10.3315 18.6183 10.6495 18.3839 10.8839C18.1495 11.1183 17.8315 11.25 17.5 11.25H15C14.6685 11.25 14.3505 11.1183 14.1161 10.8839C13.8817 10.6495 13.75 10.3315 13.75 10C13.75 9.66848 13.8817 9.35054 14.1161 9.11612C14.3505 8.8817 14.6685 8.75 15 8.75H17.5C17.8315 8.75 18.1495 8.8817 18.3839 9.11612C18.6183 9.35054 18.75 9.66848 18.75 10ZM26.925 30.8031L27.475 34.6469C27.5256 35.0014 27.4994 35.3627 27.3982 35.7063C27.297 36.0498 27.1232 36.3677 26.8885 36.6382C26.6539 36.9087 26.3638 37.1257 26.0379 37.2744C25.7121 37.4231 25.3581 37.5 25 37.5H15C14.6419 37.5 14.2879 37.4231 13.9621 37.2744C13.6362 37.1257 13.3461 36.9087 13.1115 36.6382C12.8768 36.3677 12.703 36.0498 12.6018 35.7063C12.5006 35.3627 12.4744 35.0014 12.525 34.6469L13.075 30.8031C10.642 29.5351 8.60302 27.6247 7.17941 25.2794C5.75581 22.9341 5.00205 20.2436 5 17.5C5 17.1685 5.1317 16.8505 5.36612 16.6161C5.60054 16.3817 5.91848 16.25 6.25 16.25H8.75V6.25C8.75 5.58696 9.01339 4.95107 9.48223 4.48223C9.95107 4.01339 10.587 3.75 11.25 3.75H28.75C29.413 3.75 30.0489 4.01339 30.5178 4.48223C30.9866 4.95107 31.25 5.58696 31.25 6.25V16.25H33.75C34.0815 16.25 34.3995 16.3817 34.6339 16.6161C34.8683 16.8505 35 17.1685 35 17.5C34.998 20.2436 34.2442 22.9341 32.8206 25.2794C31.397 27.6247 29.358 29.5351 26.925 30.8031ZM11.25 16.25H28.75V6.25H11.25V16.25ZM24.5422 31.7969C21.5866 32.7343 18.4134 32.7343 15.4578 31.7969L15 35H25L24.5422 31.7969ZM32.4375 18.75H7.5625C7.87202 21.8336 9.31596 24.6922 11.6142 26.7713C13.9124 28.8503 16.9009 30.0016 20 30.0016C23.0991 30.0016 26.0876 28.8503 28.3858 26.7713C30.684 24.6922 32.128 21.8336 32.4375 18.75Z" fill="#858585"/>
<path d="M9.748 53.936H6.1V64H4.404V53.936H0.74V52.512H9.748V53.936ZM12.6069 55.744C13.2042 55.744 13.7429 55.8427 14.2229 56.04C14.7082 56.232 15.1189 56.512 15.4549 56.88C15.7962 57.2427 16.0575 57.6827 16.2389 58.2C16.4202 58.712 16.5109 59.288 16.5109 59.928C16.5109 60.568 16.4202 61.1467 16.2389 61.664C16.0575 62.1813 15.7962 62.6213 15.4549 62.984C15.1189 63.3467 14.7082 63.6267 14.2229 63.824C13.7429 64.016 13.2042 64.112 12.6069 64.112C12.0042 64.112 11.4602 64.016 10.9749 63.824C10.4949 63.6267 10.0842 63.3467 9.74288 62.984C9.40154 62.6213 9.13754 62.1813 8.95088 61.664C8.76954 61.1467 8.67888 60.568 8.67888 59.928C8.67888 59.288 8.76954 58.712 8.95088 58.2C9.13754 57.6827 9.40154 57.2427 9.74288 56.88C10.0842 56.512 10.4949 56.232 10.9749 56.04C11.4602 55.8427 12.0042 55.744 12.6069 55.744ZM12.6069 62.896C13.3749 62.896 13.9482 62.6373 14.3269 62.12C14.7055 61.6027 14.8949 60.8747 14.8949 59.936C14.8949 58.9973 14.7055 58.2693 14.3269 57.752C13.9482 57.2293 13.3749 56.968 12.6069 56.968C11.8282 56.968 11.2469 57.2293 10.8629 57.752C10.4842 58.2693 10.2949 58.9973 10.2949 59.936C10.2949 60.8747 10.4842 61.6027 10.8629 62.12C11.2469 62.6373 11.8282 62.896 12.6069 62.896ZM19.8843 55.872V64H18.3243V55.872H19.8843ZM20.1803 53.36C20.1803 53.504 20.1509 53.6427 20.0923 53.776C20.0336 53.904 19.9536 54.0187 19.8523 54.12C19.7563 54.216 19.6416 54.2933 19.5082 54.352C19.3749 54.4053 19.2363 54.432 19.0923 54.432C18.9483 54.432 18.8123 54.4053 18.6843 54.352C18.5563 54.2933 18.4416 54.216 18.3403 54.12C18.2443 54.0187 18.1669 53.904 18.1083 53.776C18.0549 53.6427 18.0283 53.504 18.0283 53.36C18.0283 53.2107 18.0549 53.072 18.1083 52.944C18.1669 52.8107 18.2443 52.696 18.3403 52.6C18.4416 52.4987 18.5563 52.4213 18.6843 52.368C18.8123 52.3093 18.9483 52.28 19.0923 52.28C19.2363 52.28 19.3749 52.3093 19.5082 52.368C19.6416 52.4213 19.7563 52.4987 19.8523 52.6C19.9536 52.696 20.0336 52.8107 20.0923 52.944C20.1509 53.072 20.1803 53.2107 20.1803 53.36ZM23.7429 52.192V64H22.1749V52.192H23.7429ZM31.355 59.032C31.355 58.7227 31.3097 58.4373 31.219 58.176C31.1337 57.9147 31.0057 57.688 30.835 57.496C30.6643 57.304 30.4563 57.1547 30.211 57.048C29.9657 56.9413 29.683 56.888 29.363 56.888C28.707 56.888 28.1897 57.0773 27.811 57.456C27.4377 57.8347 27.2003 58.36 27.099 59.032H31.355ZM32.643 62.84C32.451 63.064 32.2297 63.2587 31.979 63.424C31.7283 63.584 31.4617 63.7147 31.179 63.816C30.8963 63.9173 30.603 63.992 30.299 64.04C30.0003 64.088 29.7043 64.112 29.411 64.112C28.851 64.112 28.331 64.0187 27.851 63.832C27.3763 63.64 26.963 63.3627 26.611 63C26.2643 62.632 25.9923 62.1787 25.795 61.64C25.603 61.096 25.507 60.472 25.507 59.768C25.507 59.2027 25.595 58.6773 25.771 58.192C25.947 57.7013 26.1977 57.2747 26.523 56.912C26.8537 56.5493 27.2563 56.264 27.731 56.056C28.2057 55.848 28.739 55.744 29.331 55.744C29.827 55.744 30.283 55.8267 30.699 55.992C31.1203 56.152 31.483 56.3867 31.787 56.696C32.091 57.0053 32.3283 57.3867 32.499 57.84C32.675 58.2933 32.763 58.8107 32.763 59.392C32.763 59.632 32.7363 59.7947 32.683 59.88C32.6297 59.96 32.531 60 32.387 60H27.059C27.075 60.4853 27.1443 60.9093 27.267 61.272C27.3897 61.6293 27.5577 61.928 27.771 62.168C27.9897 62.408 28.2483 62.5867 28.547 62.704C28.8457 62.8213 29.179 62.88 29.547 62.88C29.8937 62.88 30.1923 62.84 30.443 62.76C30.699 62.68 30.9177 62.5947 31.099 62.504C31.2857 62.408 31.4403 62.32 31.563 62.24C31.691 62.16 31.803 62.12 31.899 62.12C32.027 62.12 32.1257 62.168 32.195 62.264L32.643 62.84ZM36.9213 64.128C36.2653 64.128 35.7586 63.944 35.4013 63.576C35.0493 63.208 34.8733 62.6827 34.8733 62V57.136H33.9293C33.8386 57.136 33.7613 57.1093 33.6973 57.056C33.6386 56.9973 33.6093 56.912 33.6093 56.8V56.168L34.9293 55.984L35.2812 53.56C35.3026 53.4693 35.3426 53.4 35.4013 53.352C35.4653 53.2987 35.5453 53.272 35.6413 53.272H36.4333V56H38.7373V57.136H36.4333V61.896C36.4333 62.216 36.5106 62.456 36.6653 62.616C36.8253 62.7707 37.0279 62.848 37.2733 62.848C37.4173 62.848 37.5399 62.8293 37.6413 62.792C37.7479 62.7547 37.8386 62.7147 37.9133 62.672C37.9879 62.624 38.0519 62.5813 38.1053 62.544C38.1586 62.5067 38.2066 62.488 38.2493 62.488C38.3026 62.488 38.3426 62.5013 38.3693 62.528C38.4013 62.5493 38.4333 62.5867 38.4653 62.64L38.9293 63.392C38.6733 63.6267 38.3693 63.808 38.0173 63.936C37.6653 64.064 37.2999 64.128 36.9213 64.128Z" fill="#858585"/>
</svg>