<svg width="60" height="69" viewBox="0 0 60 69" fill="none" xmlns="http://www.w3.org/2000/svg">
<path d="M32.5001 9.16667C31.5834 9.16667 30.7984 8.84 30.1451 8.18667C29.4917 7.53334 29.1656 6.74889 29.1667 5.83334C29.1667 4.91667 29.4934 4.13167 30.1467 3.47834C30.8001 2.825 31.5845 2.49889 32.5001 2.5C33.4167 2.5 34.2017 2.82667 34.8551 3.48C35.5084 4.13334 35.8345 4.91778 35.8334 5.83334C35.8334 6.75 35.5067 7.535 34.8534 8.18834C34.2001 8.84167 33.4156 9.16778 32.5001 9.16667ZM23.8334 38.3333C23.2223 38.3333 22.7429 38.125 22.3951 37.7083C22.0473 37.2917 21.9434 36.7917 22.0834 36.2083L26.7917 12.4167C26.9584 11.6111 27.3334 11.0072 27.9167 10.605C28.5001 10.2028 29.1112 10.0011 29.7501 10C30.389 10 30.9795 10.1389 31.5217 10.4167C32.064 10.6944 32.5012 11.1111 32.8334 11.6667L34.5001 14.3333C35.0001 15.1389 35.6462 15.8683 36.4384 16.5217C37.2306 17.175 38.1401 17.6539 39.1667 17.9583V16.25C39.1667 15.8889 39.2851 15.5906 39.5217 15.355C39.7584 15.1194 40.0567 15.0011 40.4167 15C40.7779 15 41.0762 15.1183 41.3117 15.355C41.5473 15.5917 41.6656 15.89 41.6667 16.25V37.0833C41.6667 37.4445 41.5484 37.7428 41.3117 37.9783C41.0751 38.2139 40.7767 38.3322 40.4167 38.3333C40.0556 38.3333 39.7573 38.215 39.5217 37.9783C39.2862 37.7417 39.1679 37.4433 39.1667 37.0833V21.4167C37.8334 21.1111 36.5973 20.625 35.4584 19.9583C34.3195 19.2917 33.3334 18.4722 32.5001 17.5L31.5001 22.5L33.9584 24.8333C34.2917 25.1667 34.549 25.535 34.7301 25.9383C34.9112 26.3417 35.0012 26.7789 35.0001 27.25V36.6667C35.0001 37.1389 34.8401 37.535 34.5201 37.855C34.2001 38.175 33.8045 38.3344 33.3334 38.3333C32.8612 38.3333 32.4651 38.1733 32.1451 37.8533C31.8251 37.5333 31.6656 37.1378 31.6667 36.6667V28.3333L28.1667 25L25.4584 37.0833C25.3751 37.4445 25.1806 37.7428 24.8751 37.9783C24.5695 38.2139 24.2223 38.3322 23.8334 38.3333ZM22.3751 21.875L24.6251 10.4583L22.7084 10.0833C21.8195 9.91667 20.9862 10.0906 20.2084 10.605C19.4306 11.1194 18.9584 11.8206 18.7917 12.7083L17.5417 19.25C17.4584 19.7222 17.5417 20.1461 17.7917 20.5217C18.0417 20.8972 18.389 21.1261 18.8334 21.2083L22.3751 21.875Z" fill="#858585"/>
<path d="M9.248 53.936H5.6V64H3.904V53.936H0.24V52.512H9.248V53.936ZM10.3336 57.432C10.595 56.8987 10.9096 56.48 11.2776 56.176C11.6456 55.872 12.0883 55.72 12.6056 55.72C12.7816 55.72 12.947 55.7413 13.1016 55.784C13.2616 55.8213 13.4003 55.88 13.5176 55.96L13.4136 57.136C13.3763 57.28 13.2883 57.352 13.1496 57.352C13.075 57.352 12.963 57.3387 12.8136 57.312C12.6643 57.28 12.5043 57.264 12.3336 57.264C12.083 57.264 11.8616 57.3013 11.6696 57.376C11.4776 57.4453 11.3043 57.552 11.1496 57.696C11.0003 57.8347 10.867 58.008 10.7496 58.216C10.6323 58.4187 10.523 58.6507 10.4216 58.912V64H8.86163V55.872H9.75763C9.92829 55.872 10.043 55.904 10.1016 55.968C10.1656 56.0267 10.211 56.1333 10.2376 56.288L10.3336 57.432ZM19.8081 59.032C19.8081 58.7227 19.7628 58.4373 19.6721 58.176C19.5868 57.9147 19.4588 57.688 19.2881 57.496C19.1175 57.304 18.9095 57.1547 18.6641 57.048C18.4188 56.9413 18.1361 56.888 17.8161 56.888C17.1601 56.888 16.6428 57.0773 16.2641 57.456C15.8908 57.8347 15.6535 58.36 15.5521 59.032H19.8081ZM21.0961 62.84C20.9041 63.064 20.6828 63.2587 20.4321 63.424C20.1815 63.584 19.9148 63.7147 19.6321 63.816C19.3495 63.9173 19.0561 63.992 18.7521 64.04C18.4535 64.088 18.1575 64.112 17.8641 64.112C17.3041 64.112 16.7841 64.0187 16.3041 63.832C15.8295 63.64 15.4161 63.3627 15.0641 63C14.7175 62.632 14.4455 62.1787 14.2481 61.64C14.0561 61.096 13.9601 60.472 13.9601 59.768C13.9601 59.2027 14.0481 58.6773 14.2241 58.192C14.4001 57.7013 14.6508 57.2747 14.9761 56.912C15.3068 56.5493 15.7095 56.264 16.1841 56.056C16.6588 55.848 17.1921 55.744 17.7841 55.744C18.2801 55.744 18.7361 55.8267 19.1521 55.992C19.5735 56.152 19.9361 56.3867 20.2401 56.696C20.5441 57.0053 20.7815 57.3867 20.9521 57.84C21.1281 58.2933 21.2161 58.8107 21.2161 59.392C21.2161 59.632 21.1895 59.7947 21.1361 59.88C21.0828 59.96 20.9841 60 20.8401 60H15.5121C15.5281 60.4853 15.5975 60.9093 15.7201 61.272C15.8428 61.6293 16.0108 61.928 16.2241 62.168C16.4428 62.408 16.7015 62.5867 17.0001 62.704C17.2988 62.8213 17.6321 62.88 18.0001 62.88C18.3468 62.88 18.6455 62.84 18.8961 62.76C19.1521 62.68 19.3708 62.5947 19.5521 62.504C19.7388 62.408 19.8935 62.32 20.0161 62.24C20.1441 62.16 20.2561 62.12 20.3521 62.12C20.4801 62.12 20.5788 62.168 20.6481 62.264L21.0961 62.84ZM24.4529 52.192V59.096H24.8209C24.9329 59.096 25.0262 59.08 25.1009 59.048C25.1755 59.016 25.2529 58.952 25.3329 58.856L27.7649 56.176C27.8395 56.0747 27.9222 56 28.0129 55.952C28.1035 55.8987 28.2182 55.872 28.3569 55.872H29.7809L26.9089 59.016C26.7542 59.2133 26.5889 59.3653 26.4129 59.472C26.5142 59.5413 26.6022 59.6213 26.6769 59.712C26.7569 59.8027 26.8342 59.9013 26.9089 60.008L29.9649 64H28.5649C28.4369 64 28.3249 63.9787 28.2289 63.936C28.1382 63.8933 28.0555 63.816 27.9809 63.704L25.4689 60.44C25.3889 60.3173 25.3089 60.24 25.2289 60.208C25.1489 60.1707 25.0289 60.152 24.8689 60.152H24.4529V64H22.8929V52.192H24.4529ZM32.6873 52.192V59.096H33.0553C33.1673 59.096 33.2606 59.08 33.3353 59.048C33.4099 59.016 33.4873 58.952 33.5673 58.856L35.9993 56.176C36.0739 56.0747 36.1566 56 36.2473 55.952C36.3379 55.8987 36.4526 55.872 36.5913 55.872H38.0153L35.1433 59.016C34.9886 59.2133 34.8233 59.3653 34.6473 59.472C34.7486 59.5413 34.8366 59.6213 34.9113 59.712C34.9913 59.8027 35.0686 59.9013 35.1433 60.008L38.1993 64H36.7993C36.6713 64 36.5593 63.9787 36.4633 63.936C36.3726 63.8933 36.2899 63.816 36.2153 63.704L33.7033 60.44C33.6233 60.3173 33.5433 60.24 33.4633 60.208C33.3833 60.1707 33.2633 60.152 33.1033 60.152H32.6873V64H31.1273V52.192H32.6873ZM40.9936 55.872V64H39.4336V55.872H40.9936ZM41.2896 53.36C41.2896 53.504 41.2603 53.6427 41.2016 53.776C41.143 53.904 41.063 54.0187 40.9616 54.12C40.8656 54.216 40.751 54.2933 40.6176 54.352C40.4843 54.4053 40.3456 54.432 40.2016 54.432C40.0576 54.432 39.9216 54.4053 39.7936 54.352C39.6656 54.2933 39.551 54.216 39.4496 54.12C39.3536 54.0187 39.2763 53.904 39.2176 53.776C39.1643 53.6427 39.1376 53.504 39.1376 53.36C39.1376 53.2107 39.1643 53.072 39.2176 52.944C39.2763 52.8107 39.3536 52.696 39.4496 52.6C39.551 52.4987 39.6656 52.4213 39.7936 52.368C39.9216 52.3093 40.0576 52.28 40.2016 52.28C40.3456 52.28 40.4843 52.3093 40.6176 52.368C40.751 52.4213 40.8656 52.4987 40.9616 52.6C41.063 52.696 41.143 52.8107 41.2016 52.944C41.2603 53.072 41.2896 53.2107 41.2896 53.36ZM44.7163 57C44.8923 56.8133 45.0763 56.6427 45.2683 56.488C45.4603 56.3333 45.6629 56.2027 45.8763 56.096C46.0949 55.984 46.3269 55.8987 46.5723 55.84C46.8229 55.776 47.0896 55.744 47.3723 55.744C47.8203 55.744 48.2123 55.8187 48.5483 55.968C48.8896 56.1173 49.1749 56.328 49.4043 56.6C49.6336 56.8667 49.8069 57.1893 49.9243 57.568C50.0416 57.9467 50.1003 58.3653 50.1003 58.824V64H48.5323V58.824C48.5323 58.2427 48.3989 57.792 48.1323 57.472C47.8656 57.1467 47.4576 56.984 46.9083 56.984C46.5083 56.984 46.1323 57.08 45.7803 57.272C45.4336 57.4587 45.1109 57.7147 44.8123 58.04V64H43.2523V55.872H44.1883C44.4069 55.872 44.5429 55.976 44.5963 56.184L44.7163 57ZM55.0614 59.944C55.3387 59.944 55.5814 59.9067 55.7894 59.832C56.0027 59.7573 56.1787 59.6533 56.3174 59.52C56.4614 59.3813 56.568 59.216 56.6374 59.024C56.712 58.832 56.7494 58.6213 56.7494 58.392C56.7494 57.9227 56.6054 57.5493 56.3174 57.272C56.0347 56.9893 55.616 56.848 55.0614 56.848C54.512 56.848 54.0934 56.9893 53.8054 57.272C53.5227 57.5493 53.3814 57.9227 53.3814 58.392C53.3814 58.6213 53.416 58.832 53.4854 59.024C53.56 59.2107 53.6667 59.3733 53.8054 59.512C53.9494 59.6453 54.1254 59.752 54.3334 59.832C54.5467 59.9067 54.7894 59.944 55.0614 59.944ZM57.5494 64.424C57.5494 64.232 57.496 64.08 57.3894 63.968C57.2827 63.8507 57.136 63.76 56.9494 63.696C56.768 63.6267 56.5547 63.5787 56.3094 63.552C56.064 63.52 55.8054 63.496 55.5334 63.48C55.2667 63.464 54.992 63.4507 54.7094 63.44C54.4267 63.424 54.1547 63.3973 53.8934 63.36C53.616 63.4987 53.3867 63.6667 53.2054 63.864C53.0294 64.0613 52.9414 64.2933 52.9414 64.56C52.9414 64.7307 52.984 64.8907 53.0694 65.04C53.16 65.1893 53.296 65.3173 53.4774 65.424C53.664 65.536 53.896 65.6213 54.1734 65.68C54.456 65.744 54.792 65.776 55.1814 65.776C55.5654 65.776 55.904 65.7413 56.1974 65.672C56.4907 65.608 56.736 65.5147 56.9334 65.392C57.136 65.2747 57.288 65.1333 57.3894 64.968C57.496 64.8027 57.5494 64.6213 57.5494 64.424ZM59.1334 56.176V56.76C59.1334 56.952 59.0134 57.072 58.7734 57.12L57.9014 57.248C57.976 57.4133 58.0347 57.5893 58.0774 57.776C58.12 57.9573 58.1414 58.1493 58.1414 58.352C58.1414 58.752 58.064 59.1147 57.9094 59.44C57.7547 59.76 57.5414 60.0347 57.2694 60.264C56.9974 60.4933 56.672 60.6693 56.2934 60.792C55.92 60.9147 55.5094 60.976 55.0614 60.976C54.6934 60.976 54.3494 60.936 54.0294 60.856C53.8694 60.952 53.7467 61.0587 53.6614 61.176C53.5814 61.288 53.5414 61.4 53.5414 61.512C53.5414 61.6987 53.6187 61.8373 53.7734 61.928C53.9334 62.0187 54.1387 62.0853 54.3894 62.128C54.6454 62.1653 54.936 62.1893 55.2614 62.2C55.592 62.2107 55.9254 62.2293 56.2614 62.256C56.6027 62.2773 56.936 62.32 57.2614 62.384C57.592 62.4427 57.8827 62.5413 58.1334 62.68C58.3894 62.8133 58.5947 63 58.7494 63.24C58.9094 63.4747 58.9894 63.7813 58.9894 64.16C58.9894 64.512 58.9014 64.8533 58.7254 65.184C58.5547 65.5147 58.304 65.808 57.9734 66.064C57.6427 66.32 57.24 66.5253 56.7654 66.68C56.2907 66.8347 55.752 66.912 55.1494 66.912C54.5467 66.912 54.0214 66.8533 53.5734 66.736C53.1307 66.6187 52.76 66.4613 52.4614 66.264C52.168 66.0667 51.9467 65.8373 51.7974 65.576C51.6534 65.3147 51.5814 65.0427 51.5814 64.76C51.5814 64.3653 51.704 64.032 51.9494 63.76C52.1947 63.4827 52.5334 63.2667 52.9654 63.112C52.7307 63.0053 52.544 62.8613 52.4054 62.68C52.2667 62.4933 52.1974 62.248 52.1974 61.944C52.1974 61.8267 52.2187 61.7067 52.2614 61.584C52.304 61.456 52.368 61.3307 52.4534 61.208C52.544 61.08 52.6534 60.96 52.7814 60.848C52.9147 60.736 53.0667 60.6347 53.2374 60.544C52.8374 60.32 52.5227 60.024 52.2934 59.656C52.064 59.2827 51.9494 58.848 51.9494 58.352C51.9494 57.952 52.0267 57.592 52.1814 57.272C52.336 56.952 52.5494 56.6773 52.8214 56.448C53.0987 56.2187 53.4267 56.0427 53.8054 55.92C54.1894 55.7973 54.608 55.736 55.0614 55.736C55.7654 55.736 56.3707 55.8827 56.8774 56.176H59.1334Z" fill="#858585"/>
</svg>
