
<svg width="28" height="28" viewBox="0 0 28 28" fill="none" xmlns="http://www.w3.org/2000/svg">
<path d="M14 24.5C19.799 24.5 24.5 19.799 24.5 14C24.5 8.20101 19.799 3.5 14 3.5C8.20101 3.5 3.5 8.20101 3.5 14C3.5 19.799 8.20101 24.5 14 24.5Z" stroke="black" stroke-width="2" stroke-linecap="round" stroke-linejoin="round"/>
<path d="M14.375 16.75C16.7912 16.75 18.75 14.7912 18.75 12.375C18.75 9.95875 16.7912 8 14.375 8C11.9588 8 10 9.95875 10 12.375C10 14.7912 11.9588 16.75 14.375 16.75Z" stroke="black" stroke-width="2" stroke-linecap="round" stroke-linejoin="round"/>
<path d="M6.97803 21.8096C7.63637 20.5128 8.64092 19.4237 9.88034 18.663C11.1198 17.9022 12.5456 17.4995 13.9999 17.4995C15.4542 17.4995 16.88 17.9022 18.1195 18.663C19.3589 19.4237 20.3634 20.5128 21.0218 21.8096" stroke="black" stroke-width="2" stroke-linecap="round" stroke-linejoin="round"/>
</svg>
