
<svg width="20" height="16" viewBox="0 0 20 16" fill="none" xmlns="http://www.w3.org/2000/svg">
<path d="M17.5 0.5H2.5C1.90326 0.5 1.33097 0.737053 0.90901 1.15901C0.487053 1.58097 0.25 2.15326 0.25 2.75V13.25C0.25 13.8467 0.487053 14.419 0.90901 14.841C1.33097 15.2629 1.90326 15.5 2.5 15.5H17.5C18.0967 15.5 18.669 15.2629 19.091 14.841C19.5129 14.419 19.75 13.8467 19.75 13.25V2.75C19.75 2.15326 19.5129 1.58097 19.091 1.15901C18.669 0.737053 18.0967 0.5 17.5 0.5ZM1.75 5H18.25V6.5H13.6741C13.3283 6.50019 12.9932 6.61983 12.7255 6.83867C12.4578 7.05751 12.2739 7.36211 12.205 7.70094C12.0999 8.20757 11.8235 8.66251 11.4222 8.98912C11.0209 9.31573 10.5193 9.49406 10.0019 9.49406C9.48447 9.49406 8.98287 9.31573 8.58157 8.98912C8.18028 8.66251 7.90381 8.20757 7.79875 7.70094C7.72968 7.36148 7.54526 7.05639 7.27679 6.83748C7.00831 6.61857 6.67235 6.49932 6.32594 6.5H1.75V5ZM2.5 2H17.5C17.6989 2 17.8897 2.07902 18.0303 2.21967C18.171 2.36032 18.25 2.55109 18.25 2.75V3.5H1.75V2.75C1.75 2.55109 1.82902 2.36032 1.96967 2.21967C2.11032 2.07902 2.30109 2 2.5 2ZM17.5 14H2.5C2.30109 14 2.11032 13.921 1.96967 13.7803C1.82902 13.6397 1.75 13.4489 1.75 13.25V8H6.325C6.49759 8.84721 6.95763 9.60876 7.62725 10.1557C8.29687 10.7027 9.13492 11.0015 9.99953 11.0015C10.8641 11.0015 11.7022 10.7027 12.3718 10.1557C13.0414 9.60876 13.5015 8.84721 13.6741 8H18.25V13.25C18.25 13.4489 18.171 13.6397 18.0303 13.7803C17.8897 13.921 17.6989 14 17.5 14Z" fill="black"/>
</svg>
