<svg width="91" height="69" viewBox="0 0 91 69" fill="none" xmlns="http://www.w3.org/2000/svg">
<path d="M58.625 12.5C57.7597 12.5 56.9138 12.7566 56.1944 13.2373C55.4749 13.7181 54.9142 14.4013 54.583 15.2008C54.2519 16.0002 54.1653 16.8799 54.3341 17.7285C54.5029 18.5772 54.9196 19.3567 55.5314 19.9686C56.1433 20.5804 56.9228 20.9971 57.7715 21.1659C58.6201 21.3347 59.4998 21.2481 60.2992 20.917C61.0987 20.5858 61.7819 20.0251 62.2627 19.3056C62.7434 18.5862 63 17.7403 63 16.875C63 15.7147 62.5391 14.6019 61.7186 13.7814C60.8981 12.9609 59.7853 12.5 58.625 12.5ZM58.625 18.75C58.2542 18.75 57.8917 18.64 57.5833 18.434C57.275 18.228 57.0346 17.9351 56.8927 17.5925C56.7508 17.2499 56.7137 16.8729 56.786 16.5092C56.8584 16.1455 57.037 15.8114 57.2992 15.5492C57.5614 15.287 57.8955 15.1084 58.2592 15.036C58.6229 14.9637 58.9999 15.0008 59.3425 15.1427C59.6851 15.2846 59.978 15.525 60.184 15.8333C60.39 16.1416 60.5 16.5042 60.5 16.875C60.5 17.3723 60.3025 17.8492 59.9508 18.2008C59.5992 18.5525 59.1223 18.75 58.625 18.75ZM36.75 16.875C36.75 16.0097 36.4934 15.1638 36.0127 14.4444C35.532 13.7249 34.8487 13.1642 34.0492 12.833C33.2498 12.5019 32.3701 12.4153 31.5215 12.5841C30.6728 12.7529 29.8933 13.1696 29.2814 13.7814C28.6696 14.3933 28.2529 15.1728 28.0841 16.0215C27.9153 16.8701 28.0019 17.7498 28.333 18.5492C28.6642 19.3487 29.2249 20.0319 29.9444 20.5127C30.6638 20.9934 31.5097 21.25 32.375 21.25C33.5353 21.25 34.6481 20.7891 35.4686 19.9686C36.2891 19.1481 36.75 18.0353 36.75 16.875ZM32.375 18.75C32.0042 18.75 31.6416 18.64 31.3333 18.434C31.025 18.228 30.7846 17.9351 30.6427 17.5925C30.5008 17.2499 30.4637 16.8729 30.536 16.5092C30.6084 16.1455 30.787 15.8114 31.0492 15.5492C31.3114 15.287 31.6455 15.1084 32.0092 15.036C32.3729 14.9637 32.7499 15.0008 33.0925 15.1427C33.4351 15.2846 33.728 15.525 33.934 15.8333C34.14 16.1416 34.25 16.5042 34.25 16.875C34.25 17.3723 34.0525 17.8492 33.7008 18.2008C33.3492 18.5525 32.8723 18.75 32.375 18.75ZM39.875 13.75C40.7403 13.75 41.5862 13.4934 42.3056 13.0127C43.0251 12.532 43.5858 11.8487 43.917 11.0492C44.2481 10.2498 44.3347 9.37015 44.1659 8.52148C43.9971 7.67281 43.5804 6.89326 42.9686 6.28141C42.3567 5.66956 41.5772 5.25288 40.7285 5.08407C39.8799 4.91526 39.0002 5.0019 38.2008 5.33303C37.4013 5.66416 36.7181 6.22492 36.2373 6.94438C35.7566 7.66385 35.5 8.50971 35.5 9.375C35.5 10.5353 35.9609 11.6481 36.7814 12.4686C37.6019 13.2891 38.7147 13.75 39.875 13.75ZM39.875 7.5C40.2458 7.5 40.6084 7.60997 40.9167 7.816C41.225 8.02202 41.4654 8.31486 41.6073 8.65747C41.7492 9.00008 41.7863 9.37708 41.714 9.7408C41.6416 10.1045 41.4631 10.4386 41.2008 10.7008C40.9386 10.9631 40.6045 11.1416 40.2408 11.214C39.8771 11.2863 39.5001 11.2492 39.1575 11.1073C38.8149 10.9654 38.522 10.725 38.316 10.4167C38.11 10.1084 38 9.74584 38 9.375C38 8.87772 38.1975 8.40081 38.5492 8.04918C38.9008 7.69755 39.3777 7.5 39.875 7.5ZM51.125 13.75C51.9903 13.75 52.8362 13.4934 53.5556 13.0127C54.2751 12.532 54.8358 11.8487 55.167 11.0492C55.4981 10.2498 55.5847 9.37015 55.4159 8.52148C55.2471 7.67281 54.8305 6.89326 54.2186 6.28141C53.6067 5.66956 52.8272 5.25288 51.9785 5.08407C51.1299 4.91526 50.2502 5.0019 49.4508 5.33303C48.6513 5.66416 47.9681 6.22492 47.4873 6.94438C47.0066 7.66385 46.75 8.50971 46.75 9.375C46.75 10.5353 47.2109 11.6481 48.0314 12.4686C48.8519 13.2891 49.9647 13.75 51.125 13.75ZM51.125 7.5C51.4958 7.5 51.8584 7.60997 52.1667 7.816C52.475 8.02202 52.7154 8.31486 52.8573 8.65747C52.9992 9.00008 53.0363 9.37708 52.964 9.7408C52.8916 10.1045 52.7131 10.4386 52.4508 10.7008C52.1886 10.9631 51.8545 11.1416 51.4908 11.214C51.1271 11.2863 50.7501 11.2492 50.4075 11.1073C50.0649 10.9654 49.772 10.725 49.566 10.4167C49.36 10.1084 49.25 9.74584 49.25 9.375C49.25 8.87772 49.4475 8.40081 49.7992 8.04918C50.1508 7.69755 50.6277 7.5 51.125 7.5ZM54.7375 23.2594C54.1026 22.9091 53.5429 22.4371 53.0906 21.8703C52.6383 21.3035 52.3022 20.6531 52.1016 19.9563C51.6859 18.527 50.8177 17.2711 49.6272 16.3776C48.4368 15.484 46.9885 15.0009 45.5 15.0009C44.0115 15.0009 42.5632 15.484 41.3728 16.3776C40.1823 17.2711 39.3141 18.527 38.8984 19.9563C38.497 21.3584 37.5557 22.544 36.2813 23.2531C35.0586 23.9147 34.0915 24.965 33.5327 26.2379C32.974 27.5108 32.8555 28.9336 33.1961 30.2814C33.5367 31.6292 34.317 32.8249 35.4134 33.6795C36.5098 34.5341 37.8599 34.9988 39.25 35C40.0831 35.0024 40.908 34.836 41.675 34.5109C44.1204 33.5024 46.8655 33.5024 49.3109 34.5109C50.7921 35.1551 52.4652 35.2009 53.9793 34.6386C55.4935 34.0763 56.7312 32.9497 57.433 31.4949C58.1347 30.0401 58.246 28.3701 57.7435 26.8351C57.241 25.3 56.1637 24.0191 54.7375 23.2609V23.2594ZM51.75 32.5C51.2425 32.5004 50.7402 32.3978 50.2734 32.1984C47.2119 30.9339 43.774 30.9339 40.7125 32.1984C39.8228 32.5815 38.8194 32.6055 37.9125 32.2653C37.0055 31.9251 36.2654 31.2471 35.8471 30.3734C35.4288 29.4997 35.3649 28.498 35.6686 27.5782C35.9724 26.6584 36.6203 25.8919 37.4766 25.4391C38.3973 24.9306 39.2087 24.2456 39.8645 23.4234C40.5203 22.6011 41.0075 21.6576 41.2984 20.6469C41.5626 19.7369 42.1151 18.9372 42.8728 18.3682C43.6305 17.7992 44.5524 17.4915 45.5 17.4915C46.4476 17.4915 47.3695 17.7992 48.1272 18.3682C48.8849 18.9372 49.4374 19.7369 49.7016 20.6469C49.9934 21.6595 50.4822 22.6046 51.1399 23.428C51.7976 24.2514 52.6113 24.9369 53.5344 25.4453C54.2716 25.8407 54.8555 26.4713 55.1931 27.2367C55.5307 28.0022 55.6026 28.8585 55.3975 29.6696C55.1923 30.4806 54.7219 31.1998 54.061 31.7126C53.4 32.2255 52.5866 32.5027 51.75 32.5Z" fill="#858585"/>
<path d="M16.416 52.512L12.832 64H11.296L8.496 55.48C8.432 55.3093 8.376 55.104 8.328 54.864C8.26933 55.1093 8.21333 55.3147 8.16 55.48L5.328 64H3.8L0.216 52.512H1.64C1.78933 52.512 1.91467 52.5493 2.016 52.624C2.11733 52.6933 2.184 52.7893 2.216 52.912L4.48 60.6C4.52267 60.7493 4.56 60.912 4.592 61.088C4.62933 61.264 4.66667 61.448 4.704 61.64C4.74133 61.448 4.77867 61.264 4.816 61.088C4.85867 60.912 4.90667 60.7493 4.96 60.6L7.552 52.912C7.584 52.8053 7.65067 52.712 7.752 52.632C7.85867 52.552 7.984 52.512 8.128 52.512H8.616C8.76533 52.512 8.888 52.5493 8.984 52.624C9.08 52.6987 9.14933 52.7947 9.192 52.912L11.776 60.6C11.872 60.8933 11.9573 61.2267 12.032 61.6C12.096 61.232 12.1653 60.8987 12.24 60.6L14.512 52.912C14.5387 52.8053 14.6053 52.712 14.712 52.632C14.8187 52.552 14.944 52.512 15.088 52.512H16.416ZM19.2905 55.872V64H17.7305V55.872H19.2905ZM19.5865 53.36C19.5865 53.504 19.5572 53.6427 19.4985 53.776C19.4398 53.904 19.3598 54.0187 19.2585 54.12C19.1625 54.216 19.0478 54.2933 18.9145 54.352C18.7812 54.4053 18.6425 54.432 18.4985 54.432C18.3545 54.432 18.2185 54.4053 18.0905 54.352C17.9625 54.2933 17.8478 54.216 17.7465 54.12C17.6505 54.0187 17.5732 53.904 17.5145 53.776C17.4612 53.6427 17.4345 53.504 17.4345 53.36C17.4345 53.2107 17.4612 53.072 17.5145 52.944C17.5732 52.8107 17.6505 52.696 17.7465 52.6C17.8478 52.4987 17.9625 52.4213 18.0905 52.368C18.2185 52.3093 18.3545 52.28 18.4985 52.28C18.6425 52.28 18.7812 52.3093 18.9145 52.368C19.0478 52.4213 19.1625 52.4987 19.2585 52.6C19.3598 52.696 19.4398 52.8107 19.4985 52.944C19.5572 53.072 19.5865 53.2107 19.5865 53.36ZM23.1491 52.192V64H21.5811V52.192H23.1491ZM30.6173 57.84C30.3613 57.504 30.0839 57.2693 29.7853 57.136C29.4919 57.0027 29.1613 56.936 28.7933 56.936C28.0786 56.936 27.5239 57.1947 27.1293 57.712C26.7399 58.224 26.5453 58.9733 26.5453 59.96C26.5453 60.4773 26.5879 60.92 26.6733 61.288C26.7639 61.6507 26.8919 61.9493 27.0573 62.184C27.2279 62.4133 27.4359 62.584 27.6813 62.696C27.9266 62.8027 28.2039 62.856 28.5133 62.856C28.9666 62.856 29.3586 62.7547 29.6893 62.552C30.0199 62.3493 30.3293 62.064 30.6173 61.696V57.84ZM32.1853 52.192V64H31.2413C31.0226 64 30.8866 63.896 30.8333 63.688L30.6973 62.752C30.3506 63.1627 29.9559 63.4933 29.5133 63.744C29.0759 63.9893 28.5693 64.112 27.9933 64.112C27.5293 64.112 27.1079 64.0213 26.7293 63.84C26.3559 63.6587 26.0359 63.3947 25.7693 63.048C25.5026 62.696 25.2973 62.2613 25.1533 61.744C25.0093 61.2267 24.9373 60.632 24.9373 59.96C24.9373 59.3573 25.0173 58.7973 25.1773 58.28C25.3373 57.7627 25.5693 57.3147 25.8733 56.936C26.1773 56.5573 26.5453 56.2613 26.9773 56.048C27.4093 55.8293 27.8973 55.72 28.4413 55.72C28.9319 55.72 29.3479 55.8 29.6893 55.96C30.0359 56.12 30.3453 56.3467 30.6173 56.64V52.192H32.1853ZM42.7765 60.392C42.1418 60.4133 41.6032 60.464 41.1605 60.544C40.7178 60.6187 40.3578 60.72 40.0805 60.848C39.8032 60.976 39.6032 61.128 39.4805 61.304C39.3578 61.4747 39.2965 61.6667 39.2965 61.88C39.2965 62.0827 39.3285 62.2587 39.3925 62.408C39.4618 62.552 39.5525 62.672 39.6645 62.768C39.7818 62.8587 39.9178 62.9253 40.0725 62.968C40.2272 63.0107 40.3952 63.032 40.5765 63.032C40.8165 63.032 41.0352 63.008 41.2325 62.96C41.4352 62.912 41.6245 62.8453 41.8005 62.76C41.9765 62.6693 42.1445 62.56 42.3045 62.432C42.4645 62.304 42.6218 62.1573 42.7765 61.992V60.392ZM38.2005 57.008C38.6538 56.576 39.1445 56.2533 39.6725 56.04C40.2058 55.8267 40.7898 55.72 41.4245 55.72C41.8885 55.72 42.2992 55.7973 42.6565 55.952C43.0138 56.1013 43.3152 56.312 43.5605 56.584C43.8058 56.856 43.9898 57.1813 44.1125 57.56C44.2405 57.9387 44.3045 58.3573 44.3045 58.816V64H43.6085C43.4538 64 43.3365 63.976 43.2565 63.928C43.1765 63.8747 43.1125 63.7787 43.0645 63.64L42.8965 62.928C42.6885 63.12 42.4832 63.2907 42.2805 63.44C42.0778 63.584 41.8645 63.7093 41.6405 63.816C41.4218 63.9173 41.1872 63.9947 40.9365 64.048C40.6858 64.1013 40.4085 64.128 40.1045 64.128C39.7845 64.128 39.4832 64.0853 39.2005 64C38.9232 63.9093 38.6805 63.7733 38.4725 63.592C38.2645 63.4107 38.0992 63.184 37.9765 62.912C37.8592 62.64 37.8005 62.3227 37.8005 61.96C37.8005 61.64 37.8858 61.3333 38.0565 61.04C38.2325 60.7413 38.5152 60.4747 38.9045 60.24C39.2992 60.0053 39.8112 59.8133 40.4405 59.664C41.0752 59.5147 41.8538 59.4293 42.7765 59.408V58.816C42.7765 58.2027 42.6458 57.744 42.3845 57.44C42.1232 57.136 41.7392 56.984 41.2325 56.984C40.8912 56.984 40.6032 57.0267 40.3685 57.112C40.1392 57.1973 39.9392 57.2933 39.7685 57.4C39.6032 57.5013 39.4565 57.5947 39.3285 57.68C39.2058 57.7653 39.0778 57.808 38.9445 57.808C38.8378 57.808 38.7445 57.7787 38.6645 57.72C38.5898 57.6613 38.5285 57.592 38.4805 57.512L38.2005 57.008ZM47.8569 57C48.0329 56.8133 48.2169 56.6427 48.4089 56.488C48.6009 56.3333 48.8035 56.2027 49.0169 56.096C49.2355 55.984 49.4675 55.8987 49.7129 55.84C49.9635 55.776 50.2302 55.744 50.5129 55.744C50.9609 55.744 51.3529 55.8187 51.6889 55.968C52.0302 56.1173 52.3155 56.328 52.5449 56.6C52.7742 56.8667 52.9475 57.1893 53.0649 57.568C53.1822 57.9467 53.2409 58.3653 53.2409 58.824V64H51.6729V58.824C51.6729 58.2427 51.5395 57.792 51.2729 57.472C51.0062 57.1467 50.5982 56.984 50.0489 56.984C49.6489 56.984 49.2729 57.08 48.9209 57.272C48.5742 57.4587 48.2515 57.7147 47.9529 58.04V64H46.3929V55.872H47.3289C47.5475 55.872 47.6835 55.976 47.7369 56.184L47.8569 57ZM56.978 55.872V64H55.418V55.872H56.978ZM57.274 53.36C57.274 53.504 57.2447 53.6427 57.186 53.776C57.1273 53.904 57.0473 54.0187 56.946 54.12C56.85 54.216 56.7353 54.2933 56.602 54.352C56.4687 54.4053 56.33 54.432 56.186 54.432C56.042 54.432 55.906 54.4053 55.778 54.352C55.65 54.2933 55.5353 54.216 55.434 54.12C55.338 54.0187 55.2607 53.904 55.202 53.776C55.1487 53.6427 55.122 53.504 55.122 53.36C55.122 53.2107 55.1487 53.072 55.202 52.944C55.2607 52.8107 55.338 52.696 55.434 52.6C55.5353 52.4987 55.65 52.4213 55.778 52.368C55.906 52.3093 56.042 52.28 56.186 52.28C56.33 52.28 56.4687 52.3093 56.602 52.368C56.7353 52.4213 56.85 52.4987 56.946 52.6C57.0473 52.696 57.1273 52.8107 57.186 52.944C57.2447 53.072 57.274 53.2107 57.274 53.36ZM59.2366 64V55.872H60.1726C60.3913 55.872 60.5273 55.976 60.5806 56.184L60.6926 56.96C60.9913 56.6027 61.322 56.312 61.6846 56.088C62.0526 55.8587 62.482 55.744 62.9726 55.744C63.5113 55.744 63.9486 55.8933 64.2846 56.192C64.6206 56.4853 64.866 56.8853 65.0206 57.392C65.138 57.104 65.29 56.856 65.4766 56.648C65.6633 56.44 65.8713 56.2693 66.1006 56.136C66.33 56.0027 66.5726 55.904 66.8286 55.84C67.09 55.776 67.354 55.744 67.6206 55.744C68.0526 55.744 68.4366 55.8133 68.7726 55.952C69.114 56.0853 69.402 56.2827 69.6366 56.544C69.8713 56.8053 70.05 57.128 70.1726 57.512C70.2953 57.896 70.3566 58.3333 70.3566 58.824V64H68.7886V58.824C68.7886 58.216 68.6553 57.7573 68.3886 57.448C68.1273 57.1387 67.7433 56.984 67.2366 56.984C67.0126 56.984 66.7993 57.024 66.5966 57.104C66.394 57.1787 66.2153 57.2933 66.0606 57.448C65.9113 57.6027 65.7913 57.7947 65.7006 58.024C65.6153 58.2533 65.5726 58.52 65.5726 58.824V64H64.0046V58.824C64.0046 58.1947 63.8793 57.7307 63.6286 57.432C63.378 57.1333 63.01 56.984 62.5246 56.984C62.1886 56.984 61.8766 57.072 61.5886 57.248C61.3006 57.424 61.0366 57.664 60.7966 57.968V64H59.2366ZM76.8234 60.392C76.1887 60.4133 75.65 60.464 75.2074 60.544C74.7647 60.6187 74.4047 60.72 74.1274 60.848C73.85 60.976 73.65 61.128 73.5274 61.304C73.4047 61.4747 73.3434 61.6667 73.3434 61.88C73.3434 62.0827 73.3754 62.2587 73.4394 62.408C73.5087 62.552 73.5994 62.672 73.7114 62.768C73.8287 62.8587 73.9647 62.9253 74.1194 62.968C74.274 63.0107 74.442 63.032 74.6234 63.032C74.8634 63.032 75.082 63.008 75.2794 62.96C75.482 62.912 75.6714 62.8453 75.8474 62.76C76.0234 62.6693 76.1914 62.56 76.3514 62.432C76.5114 62.304 76.6687 62.1573 76.8234 61.992V60.392ZM72.2474 57.008C72.7007 56.576 73.1914 56.2533 73.7194 56.04C74.2527 55.8267 74.8367 55.72 75.4714 55.72C75.9354 55.72 76.346 55.7973 76.7034 55.952C77.0607 56.1013 77.362 56.312 77.6074 56.584C77.8527 56.856 78.0367 57.1813 78.1594 57.56C78.2874 57.9387 78.3514 58.3573 78.3514 58.816V64H77.6554C77.5007 64 77.3834 63.976 77.3034 63.928C77.2234 63.8747 77.1594 63.7787 77.1114 63.64L76.9434 62.928C76.7354 63.12 76.53 63.2907 76.3274 63.44C76.1247 63.584 75.9114 63.7093 75.6874 63.816C75.4687 63.9173 75.234 63.9947 74.9834 64.048C74.7327 64.1013 74.4554 64.128 74.1514 64.128C73.8314 64.128 73.53 64.0853 73.2474 64C72.97 63.9093 72.7274 63.7733 72.5194 63.592C72.3114 63.4107 72.146 63.184 72.0234 62.912C71.906 62.64 71.8474 62.3227 71.8474 61.96C71.8474 61.64 71.9327 61.3333 72.1034 61.04C72.2794 60.7413 72.562 60.4747 72.9514 60.24C73.346 60.0053 73.858 59.8133 74.4874 59.664C75.122 59.5147 75.9007 59.4293 76.8234 59.408V58.816C76.8234 58.2027 76.6927 57.744 76.4314 57.44C76.17 57.136 75.786 56.984 75.2794 56.984C74.938 56.984 74.65 57.0267 74.4154 57.112C74.186 57.1973 73.986 57.2933 73.8154 57.4C73.65 57.5013 73.5034 57.5947 73.3754 57.68C73.2527 57.7653 73.1247 57.808 72.9914 57.808C72.8847 57.808 72.7914 57.7787 72.7114 57.72C72.6367 57.6613 72.5754 57.592 72.5274 57.512L72.2474 57.008ZM82.0398 52.192V64H80.4718V52.192H82.0398ZM89.0599 57.272C89.0172 57.3413 88.9719 57.392 88.9239 57.424C88.8759 57.4507 88.8145 57.464 88.7399 57.464C88.6545 57.464 88.5585 57.4347 88.4519 57.376C88.3505 57.3173 88.2252 57.2533 88.0759 57.184C87.9319 57.1147 87.7612 57.0507 87.5639 56.992C87.3665 56.9333 87.1319 56.904 86.8599 56.904C86.6359 56.904 86.4305 56.9333 86.2439 56.992C86.0625 57.0453 85.9079 57.1227 85.7799 57.224C85.6519 57.32 85.5532 57.4373 85.4839 57.576C85.4145 57.7093 85.3799 57.8533 85.3799 58.008C85.3799 58.2107 85.4385 58.3787 85.5559 58.512C85.6785 58.6453 85.8359 58.76 86.0279 58.856C86.2252 58.952 86.4465 59.04 86.6919 59.12C86.9425 59.1947 87.1959 59.2747 87.4519 59.36C87.7132 59.4453 87.9665 59.544 88.2119 59.656C88.4625 59.7627 88.6839 59.8987 88.8759 60.064C89.0732 60.224 89.2305 60.4187 89.3479 60.648C89.4705 60.8773 89.5319 61.1573 89.5319 61.488C89.5319 61.8667 89.4625 62.2187 89.3239 62.544C89.1905 62.864 88.9905 63.1413 88.7239 63.376C88.4625 63.6107 88.1372 63.7947 87.7479 63.928C87.3585 64.0613 86.9132 64.128 86.4119 64.128C85.8519 64.128 85.3345 64.0347 84.8599 63.848C84.3852 63.6613 83.9879 63.424 83.6679 63.136L84.0359 62.536C84.0785 62.4613 84.1319 62.4053 84.1959 62.368C84.2599 62.3253 84.3452 62.304 84.4519 62.304C84.5532 62.304 84.6572 62.3413 84.7639 62.416C84.8705 62.4907 84.9985 62.5733 85.1479 62.664C85.2972 62.7493 85.4785 62.8293 85.6919 62.904C85.9052 62.9733 86.1719 63.008 86.4919 63.008C86.7585 63.008 86.9905 62.976 87.1879 62.912C87.3852 62.8427 87.5479 62.752 87.6759 62.64C87.8092 62.5227 87.9079 62.3893 87.9719 62.24C88.0359 62.0907 88.0679 61.9333 88.0679 61.768C88.0679 61.5547 88.0065 61.3787 87.8839 61.24C87.7665 61.096 87.6092 60.9733 87.4119 60.872C87.2199 60.7707 86.9985 60.6827 86.7479 60.608C86.4972 60.5333 86.2412 60.4533 85.9799 60.368C85.7185 60.2827 85.4625 60.184 85.2119 60.072C84.9612 59.96 84.7372 59.8187 84.5399 59.648C84.3479 59.4773 84.1905 59.2693 84.0679 59.024C83.9505 58.7787 83.8919 58.48 83.8919 58.128C83.8919 57.8133 83.9559 57.512 84.0839 57.224C84.2172 56.936 84.4065 56.6827 84.6519 56.464C84.9025 56.2453 85.2092 56.072 85.5719 55.944C85.9399 55.8107 86.3585 55.744 86.8279 55.744C87.3665 55.744 87.8519 55.8293 88.2839 56C88.7212 56.1707 89.0945 56.4053 89.4039 56.704L89.0599 57.272Z" fill="#858585"/>
</svg>