<svg width="61" height="69" viewBox="0 0 61 69" fill="none" xmlns="http://www.w3.org/2000/svg">
<path d="M31.4492 31.1919C28.8445 31.1919 26.3563 31.3896 24.2773 31.7544C24.3867 30.9646 25.0102 24.82 25.1078 23.5513H28.4211L28.6359 29.8403H33.9125L34.1719 23.5497H37.3937C37.5297 24.7997 38.3789 30.9349 38.525 31.7372C36.4641 31.3833 34.0156 31.1919 31.4492 31.1919ZM40.5 9.14658L43.3445 7.49814C43.1773 5.23955 43.1684 5.00518 43.1773 4.81064L42.375 6.90596L39.5344 8.13564L33.5938 3.98096L38.4813 8.7958L36.9703 10.2294C37.3349 10.2752 37.6883 10.3252 38.0305 10.3794L40.5 9.14658ZM36.8219 13.5278C37.982 13.7036 38.6086 13.895 38.9375 14.0317C38.6086 14.1685 37.982 14.3599 36.8219 14.5356C35.3328 14.7606 33.4242 14.8849 31.4492 14.8849C29.4742 14.8849 27.5656 14.7606 26.0766 14.5356C24.9164 14.3599 24.2898 14.1685 23.9609 14.0317C24.2898 13.895 24.9164 13.7036 26.0766 13.5278C27.5656 13.3028 29.4742 13.1786 31.4492 13.1786C33.4242 13.1786 35.3328 13.3028 36.8219 13.5278ZM32.7289 14.0317C32.7289 13.8692 32.1562 13.7372 31.4492 13.7372C30.7422 13.7372 30.1695 13.8692 30.1695 14.0317C30.1695 14.1942 30.7422 14.3263 31.4492 14.3263C32.1562 14.3263 32.7289 14.1942 32.7289 14.0317ZM43.2148 14.0317C43.2148 15.6239 37.9469 16.9146 31.4492 16.9146C24.9516 16.9146 19.6836 15.6239 19.6836 14.0317C19.6836 12.4396 24.9516 11.1489 31.4492 11.1489C37.9469 11.1489 43.2148 12.4403 43.2148 14.0317ZM40.4672 14.0317C40.4672 13.2349 39.5773 12.738 37.4922 12.3708C35.8719 12.0856 33.7258 11.9286 31.4484 11.9286C29.1711 11.9286 27.025 12.0849 25.4047 12.3708C23.3195 12.738 22.4297 13.2349 22.4297 14.0317C22.4297 14.8286 23.3195 15.3255 25.4047 15.6927C27.025 15.9778 29.1711 16.1349 31.4484 16.1349C33.7258 16.1349 35.8719 15.9786 37.4922 15.6927C39.5773 15.3255 40.4672 14.8286 40.4672 14.0317ZM45.4406 29.1622L43.175 29.3614C43.1906 28.938 43.2133 16.0481 43.2133 16.0481C43.1133 16.1169 43.0125 16.1794 42.9148 16.2356C42.2195 16.6388 41.2602 16.9911 40.0641 17.2841C37.7477 17.8521 34.6867 18.1646 31.4469 18.1646C28.207 18.1646 25.1469 17.8521 22.8297 17.2841C21.6336 16.9911 20.6742 16.638 19.9789 16.2356C19.9008 16.1896 19.8227 16.1403 19.7383 16.0864C19.7844 17.7567 19.8508 20.2138 19.9086 22.5638L15.8195 20.9052L15.3479 19.6157L16.9227 16.9153L15.0312 18.5481L13.2344 13.2067L14.25 21.8703L19.9656 24.8224C20.018 27.1294 20.0492 28.988 20.0273 29.3403C20.0086 29.6388 19.9937 31.5442 19.4328 33.6638C19.0253 35.1487 20.4961 36.4571 21.9234 35.8794C23.0562 35.5255 23.9469 22.2997 23.9469 22.2997H29.6305L29.8438 28.5903H32.7125L32.9695 22.2989H38.5164C38.5164 22.2989 39.7852 35.2521 41.1398 35.8786C41.2584 35.9319 41.3872 35.9585 41.5172 35.9567C42.4633 35.9567 43.6766 34.6841 43.4969 33.7771C43.3103 32.8031 43.2023 32.2846 43.1742 31.2935L46.8578 29.9255L47.7656 24.4661L45.4406 29.1622Z" fill="#858585"/>
<path d="M16.416 52.512L12.832 64H11.296L8.496 55.48C8.432 55.3093 8.376 55.104 8.328 54.864C8.26933 55.1093 8.21333 55.3147 8.16 55.48L5.328 64H3.8L0.216 52.512H1.64C1.78933 52.512 1.91467 52.5493 2.016 52.624C2.11733 52.6933 2.184 52.7893 2.216 52.912L4.48 60.6C4.52267 60.7493 4.56 60.912 4.592 61.088C4.62933 61.264 4.66667 61.448 4.704 61.64C4.74133 61.448 4.77867 61.264 4.816 61.088C4.85867 60.912 4.90667 60.7493 4.96 60.6L7.552 52.912C7.584 52.8053 7.65067 52.712 7.752 52.632C7.85867 52.552 7.984 52.512 8.128 52.512H8.616C8.76533 52.512 8.888 52.5493 8.984 52.624C9.08 52.6987 9.14933 52.7947 9.192 52.912L11.776 60.6C11.872 60.8933 11.9573 61.2267 12.032 61.6C12.096 61.232 12.1653 60.8987 12.24 60.6L14.512 52.912C14.5387 52.8053 14.6053 52.712 14.712 52.632C14.8187 52.552 14.944 52.512 15.088 52.512H16.416ZM20.2631 55.744C20.8605 55.744 21.3991 55.8427 21.8791 56.04C22.3645 56.232 22.7751 56.512 23.1111 56.88C23.4525 57.2427 23.7138 57.6827 23.8951 58.2C24.0765 58.712 24.1671 59.288 24.1671 59.928C24.1671 60.568 24.0765 61.1467 23.8951 61.664C23.7138 62.1813 23.4525 62.6213 23.1111 62.984C22.7751 63.3467 22.3645 63.6267 21.8791 63.824C21.3991 64.016 20.8605 64.112 20.2631 64.112C19.6605 64.112 19.1165 64.016 18.6311 63.824C18.1511 63.6267 17.7405 63.3467 17.3991 62.984C17.0578 62.6213 16.7938 62.1813 16.6071 61.664C16.4258 61.1467 16.3351 60.568 16.3351 59.928C16.3351 59.288 16.4258 58.712 16.6071 58.2C16.7938 57.6827 17.0578 57.2427 17.3991 56.88C17.7405 56.512 18.1511 56.232 18.6311 56.04C19.1165 55.8427 19.6605 55.744 20.2631 55.744ZM20.2631 62.896C21.0311 62.896 21.6045 62.6373 21.9831 62.12C22.3618 61.6027 22.5511 60.8747 22.5511 59.936C22.5511 58.9973 22.3618 58.2693 21.9831 57.752C21.6045 57.2293 21.0311 56.968 20.2631 56.968C19.4845 56.968 18.9031 57.2293 18.5191 57.752C18.1405 58.2693 17.9511 58.9973 17.9511 59.936C17.9511 60.8747 18.1405 61.6027 18.5191 62.12C18.9031 62.6373 19.4845 62.896 20.2631 62.896ZM29.3725 55.744C29.9698 55.744 30.5085 55.8427 30.9885 56.04C31.4738 56.232 31.8845 56.512 32.2205 56.88C32.5618 57.2427 32.8232 57.6827 33.0045 58.2C33.1858 58.712 33.2765 59.288 33.2765 59.928C33.2765 60.568 33.1858 61.1467 33.0045 61.664C32.8232 62.1813 32.5618 62.6213 32.2205 62.984C31.8845 63.3467 31.4738 63.6267 30.9885 63.824C30.5085 64.016 29.9698 64.112 29.3725 64.112C28.7698 64.112 28.2258 64.016 27.7405 63.824C27.2605 63.6267 26.8498 63.3467 26.5085 62.984C26.1672 62.6213 25.9032 62.1813 25.7165 61.664C25.5352 61.1467 25.4445 60.568 25.4445 59.928C25.4445 59.288 25.5352 58.712 25.7165 58.2C25.9032 57.6827 26.1672 57.2427 26.5085 56.88C26.8498 56.512 27.2605 56.232 27.7405 56.04C28.2258 55.8427 28.7698 55.744 29.3725 55.744ZM29.3725 62.896C30.1405 62.896 30.7138 62.6373 31.0925 62.12C31.4712 61.6027 31.6605 60.8747 31.6605 59.936C31.6605 58.9973 31.4712 58.2693 31.0925 57.752C30.7138 57.2293 30.1405 56.968 29.3725 56.968C28.5938 56.968 28.0125 57.2293 27.6285 57.752C27.2498 58.2693 27.0605 58.9973 27.0605 59.936C27.0605 60.8747 27.2498 61.6027 27.6285 62.12C28.0125 62.6373 28.5938 62.896 29.3725 62.896ZM40.2579 57.84C40.0019 57.504 39.7245 57.2693 39.4259 57.136C39.1325 57.0027 38.8019 56.936 38.4339 56.936C37.7192 56.936 37.1645 57.1947 36.7699 57.712C36.3805 58.224 36.1859 58.9733 36.1859 59.96C36.1859 60.4773 36.2285 60.92 36.3139 61.288C36.4045 61.6507 36.5325 61.9493 36.6979 62.184C36.8685 62.4133 37.0765 62.584 37.3219 62.696C37.5672 62.8027 37.8445 62.856 38.1539 62.856C38.6072 62.856 38.9992 62.7547 39.3299 62.552C39.6605 62.3493 39.9699 62.064 40.2579 61.696V57.84ZM41.8259 52.192V64H40.8819C40.6632 64 40.5272 63.896 40.4739 63.688L40.3379 62.752C39.9912 63.1627 39.5965 63.4933 39.1539 63.744C38.7165 63.9893 38.2099 64.112 37.6339 64.112C37.1699 64.112 36.7485 64.0213 36.3699 63.84C35.9965 63.6587 35.6765 63.3947 35.4099 63.048C35.1432 62.696 34.9379 62.2613 34.7939 61.744C34.6499 61.2267 34.5779 60.632 34.5779 59.96C34.5779 59.3573 34.6579 58.7973 34.8179 58.28C34.9779 57.7627 35.2099 57.3147 35.5139 56.936C35.8179 56.5573 36.1859 56.2613 36.6179 56.048C37.0499 55.8293 37.5379 55.72 38.0819 55.72C38.5725 55.72 38.9885 55.8 39.3299 55.96C39.6765 56.12 39.9859 56.3467 40.2579 56.64V52.192H41.8259ZM49.3863 59.032C49.3863 58.7227 49.3409 58.4373 49.2503 58.176C49.1649 57.9147 49.0369 57.688 48.8663 57.496C48.6956 57.304 48.4876 57.1547 48.2423 57.048C47.9969 56.9413 47.7143 56.888 47.3943 56.888C46.7383 56.888 46.2209 57.0773 45.8423 57.456C45.4689 57.8347 45.2316 58.36 45.1303 59.032H49.3863ZM50.6743 62.84C50.4823 63.064 50.2609 63.2587 50.0103 63.424C49.7596 63.584 49.4929 63.7147 49.2103 63.816C48.9276 63.9173 48.6343 63.992 48.3303 64.04C48.0316 64.088 47.7356 64.112 47.4423 64.112C46.8823 64.112 46.3623 64.0187 45.8823 63.832C45.4076 63.64 44.9943 63.3627 44.6423 63C44.2956 62.632 44.0236 62.1787 43.8263 61.64C43.6343 61.096 43.5383 60.472 43.5383 59.768C43.5383 59.2027 43.6263 58.6773 43.8023 58.192C43.9783 57.7013 44.2289 57.2747 44.5543 56.912C44.8849 56.5493 45.2876 56.264 45.7623 56.056C46.2369 55.848 46.7703 55.744 47.3623 55.744C47.8583 55.744 48.3143 55.8267 48.7303 55.992C49.1516 56.152 49.5143 56.3867 49.8183 56.696C50.1223 57.0053 50.3596 57.3867 50.5303 57.84C50.7063 58.2933 50.7943 58.8107 50.7943 59.392C50.7943 59.632 50.7676 59.7947 50.7143 59.88C50.6609 59.96 50.5623 60 50.4183 60H45.0903C45.1063 60.4853 45.1756 60.9093 45.2983 61.272C45.4209 61.6293 45.5889 61.928 45.8023 62.168C46.0209 62.408 46.2796 62.5867 46.5783 62.704C46.8769 62.8213 47.2103 62.88 47.5783 62.88C47.9249 62.88 48.2236 62.84 48.4743 62.76C48.7303 62.68 48.9489 62.5947 49.1303 62.504C49.3169 62.408 49.4716 62.32 49.5943 62.24C49.7223 62.16 49.8343 62.12 49.9303 62.12C50.0583 62.12 50.1569 62.168 50.2263 62.264L50.6743 62.84ZM53.935 57C54.111 56.8133 54.295 56.6427 54.487 56.488C54.679 56.3333 54.8817 56.2027 55.095 56.096C55.3137 55.984 55.5457 55.8987 55.791 55.84C56.0417 55.776 56.3083 55.744 56.591 55.744C57.039 55.744 57.431 55.8187 57.767 55.968C58.1083 56.1173 58.3937 56.328 58.623 56.6C58.8523 56.8667 59.0257 57.1893 59.143 57.568C59.2603 57.9467 59.319 58.3653 59.319 58.824V64H57.751V58.824C57.751 58.2427 57.6177 57.792 57.351 57.472C57.0843 57.1467 56.6763 56.984 56.127 56.984C55.727 56.984 55.351 57.08 54.999 57.272C54.6523 57.4587 54.3297 57.7147 54.031 58.04V64H52.471V55.872H53.407C53.6257 55.872 53.7617 55.976 53.815 56.184L53.935 57Z" fill="#858585"/>
</svg>